<?xml version="1.0" encoding="utf-8" standalone="no"?>
<!DOCTYPE svg PUBLIC "-//W3C//DTD SVG 1.1//EN"
  "http://www.w3.org/Graphics/SVG/1.1/DTD/svg11.dtd">
<svg xmlns:xlink="http://www.w3.org/1999/xlink" width="460.8pt" height="345.6pt" viewBox="0 0 460.8 345.6" xmlns="http://www.w3.org/2000/svg" version="1.1">
 <metadata>
  <rdf:RDF xmlns:dc="http://purl.org/dc/elements/1.1/" xmlns:cc="http://creativecommons.org/ns#" xmlns:rdf="http://www.w3.org/1999/02/22-rdf-syntax-ns#">
   <cc:Work>
    <dc:type rdf:resource="http://purl.org/dc/dcmitype/StillImage"/>
    <dc:date>2022-01-04T16:48:57.971929</dc:date>
    <dc:format>image/svg+xml</dc:format>
    <dc:creator>
     <cc:Agent>
      <dc:title>Matplotlib v3.5.0, https://matplotlib.org/</dc:title>
     </cc:Agent>
    </dc:creator>
   </cc:Work>
  </rdf:RDF>
 </metadata>
 <defs>
  <style type="text/css">*{stroke-linejoin: round; stroke-linecap: butt}</style>
 </defs>
 <g id="figure_1">
  <g id="patch_1">
   <path d="M 0 345.6 
L 460.8 345.6 
L 460.8 0 
L 0 0 
z
" style="fill: #ffffff"/>
  </g>
  <g id="axes_1">
   <g id="patch_2">
    <path d="M 57.6 307.584 
L 414.72 307.584 
L 414.72 41.472 
L 57.6 41.472 
z
" style="fill: #ffffff"/>
   </g>
   <g id="matplotlib.axis_1">
    <g id="xtick_1">
     <g id="line2d_1">
      <defs>
       <path id="m76a9b4e122" d="M 0 0 
L 0 3.5 
" style="stroke: #000000; stroke-width: 0.8"/>
      </defs>
      <g>
       <use xlink:href="#m76a9b4e122" x="73.832727" y="307.584" style="stroke: #000000; stroke-width: 0.8"/>
      </g>
     </g>
     <g id="text_1">
      <!-- 0.0 -->
      <g transform="translate(65.881165 322.182437)scale(0.1 -0.1)">
       <defs>
        <path id="DejaVuSans-30" d="M 2034 4250 
Q 1547 4250 1301 3770 
Q 1056 3291 1056 2328 
Q 1056 1369 1301 889 
Q 1547 409 2034 409 
Q 2525 409 2770 889 
Q 3016 1369 3016 2328 
Q 3016 3291 2770 3770 
Q 2525 4250 2034 4250 
z
M 2034 4750 
Q 2819 4750 3233 4129 
Q 3647 3509 3647 2328 
Q 3647 1150 3233 529 
Q 2819 -91 2034 -91 
Q 1250 -91 836 529 
Q 422 1150 422 2328 
Q 422 3509 836 4129 
Q 1250 4750 2034 4750 
z
" transform="scale(0.015625)"/>
        <path id="DejaVuSans-2e" d="M 684 794 
L 1344 794 
L 1344 0 
L 684 0 
L 684 794 
z
" transform="scale(0.015625)"/>
       </defs>
       <use xlink:href="#DejaVuSans-30"/>
       <use xlink:href="#DejaVuSans-2e" x="63.623047"/>
       <use xlink:href="#DejaVuSans-30" x="95.410156"/>
      </g>
     </g>
    </g>
    <g id="xtick_2">
     <g id="line2d_2">
      <g>
       <use xlink:href="#m76a9b4e122" x="138.763636" y="307.584" style="stroke: #000000; stroke-width: 0.8"/>
      </g>
     </g>
     <g id="text_2">
      <!-- 0.2 -->
      <g transform="translate(130.812074 322.182437)scale(0.1 -0.1)">
       <defs>
        <path id="DejaVuSans-32" d="M 1228 531 
L 3431 531 
L 3431 0 
L 469 0 
L 469 531 
Q 828 903 1448 1529 
Q 2069 2156 2228 2338 
Q 2531 2678 2651 2914 
Q 2772 3150 2772 3378 
Q 2772 3750 2511 3984 
Q 2250 4219 1831 4219 
Q 1534 4219 1204 4116 
Q 875 4013 500 3803 
L 500 4441 
Q 881 4594 1212 4672 
Q 1544 4750 1819 4750 
Q 2544 4750 2975 4387 
Q 3406 4025 3406 3419 
Q 3406 3131 3298 2873 
Q 3191 2616 2906 2266 
Q 2828 2175 2409 1742 
Q 1991 1309 1228 531 
z
" transform="scale(0.015625)"/>
       </defs>
       <use xlink:href="#DejaVuSans-30"/>
       <use xlink:href="#DejaVuSans-2e" x="63.623047"/>
       <use xlink:href="#DejaVuSans-32" x="95.410156"/>
      </g>
     </g>
    </g>
    <g id="xtick_3">
     <g id="line2d_3">
      <g>
       <use xlink:href="#m76a9b4e122" x="203.694545" y="307.584" style="stroke: #000000; stroke-width: 0.8"/>
      </g>
     </g>
     <g id="text_3">
      <!-- 0.4 -->
      <g transform="translate(195.742983 322.182437)scale(0.1 -0.1)">
       <defs>
        <path id="DejaVuSans-34" d="M 2419 4116 
L 825 1625 
L 2419 1625 
L 2419 4116 
z
M 2253 4666 
L 3047 4666 
L 3047 1625 
L 3713 1625 
L 3713 1100 
L 3047 1100 
L 3047 0 
L 2419 0 
L 2419 1100 
L 313 1100 
L 313 1709 
L 2253 4666 
z
" transform="scale(0.015625)"/>
       </defs>
       <use xlink:href="#DejaVuSans-30"/>
       <use xlink:href="#DejaVuSans-2e" x="63.623047"/>
       <use xlink:href="#DejaVuSans-34" x="95.410156"/>
      </g>
     </g>
    </g>
    <g id="xtick_4">
     <g id="line2d_4">
      <g>
       <use xlink:href="#m76a9b4e122" x="268.625455" y="307.584" style="stroke: #000000; stroke-width: 0.8"/>
      </g>
     </g>
     <g id="text_4">
      <!-- 0.6 -->
      <g transform="translate(260.673892 322.182437)scale(0.1 -0.1)">
       <defs>
        <path id="DejaVuSans-36" d="M 2113 2584 
Q 1688 2584 1439 2293 
Q 1191 2003 1191 1497 
Q 1191 994 1439 701 
Q 1688 409 2113 409 
Q 2538 409 2786 701 
Q 3034 994 3034 1497 
Q 3034 2003 2786 2293 
Q 2538 2584 2113 2584 
z
M 3366 4563 
L 3366 3988 
Q 3128 4100 2886 4159 
Q 2644 4219 2406 4219 
Q 1781 4219 1451 3797 
Q 1122 3375 1075 2522 
Q 1259 2794 1537 2939 
Q 1816 3084 2150 3084 
Q 2853 3084 3261 2657 
Q 3669 2231 3669 1497 
Q 3669 778 3244 343 
Q 2819 -91 2113 -91 
Q 1303 -91 875 529 
Q 447 1150 447 2328 
Q 447 3434 972 4092 
Q 1497 4750 2381 4750 
Q 2619 4750 2861 4703 
Q 3103 4656 3366 4563 
z
" transform="scale(0.015625)"/>
       </defs>
       <use xlink:href="#DejaVuSans-30"/>
       <use xlink:href="#DejaVuSans-2e" x="63.623047"/>
       <use xlink:href="#DejaVuSans-36" x="95.410156"/>
      </g>
     </g>
    </g>
    <g id="xtick_5">
     <g id="line2d_5">
      <g>
       <use xlink:href="#m76a9b4e122" x="333.556364" y="307.584" style="stroke: #000000; stroke-width: 0.8"/>
      </g>
     </g>
     <g id="text_5">
      <!-- 0.8 -->
      <g transform="translate(325.604801 322.182437)scale(0.1 -0.1)">
       <defs>
        <path id="DejaVuSans-38" d="M 2034 2216 
Q 1584 2216 1326 1975 
Q 1069 1734 1069 1313 
Q 1069 891 1326 650 
Q 1584 409 2034 409 
Q 2484 409 2743 651 
Q 3003 894 3003 1313 
Q 3003 1734 2745 1975 
Q 2488 2216 2034 2216 
z
M 1403 2484 
Q 997 2584 770 2862 
Q 544 3141 544 3541 
Q 544 4100 942 4425 
Q 1341 4750 2034 4750 
Q 2731 4750 3128 4425 
Q 3525 4100 3525 3541 
Q 3525 3141 3298 2862 
Q 3072 2584 2669 2484 
Q 3125 2378 3379 2068 
Q 3634 1759 3634 1313 
Q 3634 634 3220 271 
Q 2806 -91 2034 -91 
Q 1263 -91 848 271 
Q 434 634 434 1313 
Q 434 1759 690 2068 
Q 947 2378 1403 2484 
z
M 1172 3481 
Q 1172 3119 1398 2916 
Q 1625 2713 2034 2713 
Q 2441 2713 2670 2916 
Q 2900 3119 2900 3481 
Q 2900 3844 2670 4047 
Q 2441 4250 2034 4250 
Q 1625 4250 1398 4047 
Q 1172 3844 1172 3481 
z
" transform="scale(0.015625)"/>
       </defs>
       <use xlink:href="#DejaVuSans-30"/>
       <use xlink:href="#DejaVuSans-2e" x="63.623047"/>
       <use xlink:href="#DejaVuSans-38" x="95.410156"/>
      </g>
     </g>
    </g>
    <g id="xtick_6">
     <g id="line2d_6">
      <g>
       <use xlink:href="#m76a9b4e122" x="398.487273" y="307.584" style="stroke: #000000; stroke-width: 0.8"/>
      </g>
     </g>
     <g id="text_6">
      <!-- 1.0 -->
      <g transform="translate(390.53571 322.182437)scale(0.1 -0.1)">
       <defs>
        <path id="DejaVuSans-31" d="M 794 531 
L 1825 531 
L 1825 4091 
L 703 3866 
L 703 4441 
L 1819 4666 
L 2450 4666 
L 2450 531 
L 3481 531 
L 3481 0 
L 794 0 
L 794 531 
z
" transform="scale(0.015625)"/>
       </defs>
       <use xlink:href="#DejaVuSans-31"/>
       <use xlink:href="#DejaVuSans-2e" x="63.623047"/>
       <use xlink:href="#DejaVuSans-30" x="95.410156"/>
      </g>
     </g>
    </g>
   </g>
   <g id="matplotlib.axis_2">
    <g id="ytick_1">
     <g id="line2d_7">
      <defs>
       <path id="m3e86c8829d" d="M 0 0 
L -3.5 0 
" style="stroke: #000000; stroke-width: 0.8"/>
      </defs>
      <g>
       <use xlink:href="#m3e86c8829d" x="57.6" y="295.488" style="stroke: #000000; stroke-width: 0.8"/>
      </g>
     </g>
     <g id="text_7">
      <!-- 0 -->
      <g transform="translate(44.2375 299.287219)scale(0.1 -0.1)">
       <use xlink:href="#DejaVuSans-30"/>
      </g>
     </g>
    </g>
    <g id="ytick_2">
     <g id="line2d_8">
      <g>
       <use xlink:href="#m3e86c8829d" x="57.6" y="247.104" style="stroke: #000000; stroke-width: 0.8"/>
      </g>
     </g>
     <g id="text_8">
      <!-- 1 -->
      <g transform="translate(44.2375 250.903219)scale(0.1 -0.1)">
       <use xlink:href="#DejaVuSans-31"/>
      </g>
     </g>
    </g>
    <g id="ytick_3">
     <g id="line2d_9">
      <g>
       <use xlink:href="#m3e86c8829d" x="57.6" y="198.72" style="stroke: #000000; stroke-width: 0.8"/>
      </g>
     </g>
     <g id="text_9">
      <!-- 2 -->
      <g transform="translate(44.2375 202.519219)scale(0.1 -0.1)">
       <use xlink:href="#DejaVuSans-32"/>
      </g>
     </g>
    </g>
    <g id="ytick_4">
     <g id="line2d_10">
      <g>
       <use xlink:href="#m3e86c8829d" x="57.6" y="150.336" style="stroke: #000000; stroke-width: 0.8"/>
      </g>
     </g>
     <g id="text_10">
      <!-- 3 -->
      <g transform="translate(44.2375 154.135219)scale(0.1 -0.1)">
       <defs>
        <path id="DejaVuSans-33" d="M 2597 2516 
Q 3050 2419 3304 2112 
Q 3559 1806 3559 1356 
Q 3559 666 3084 287 
Q 2609 -91 1734 -91 
Q 1441 -91 1130 -33 
Q 819 25 488 141 
L 488 750 
Q 750 597 1062 519 
Q 1375 441 1716 441 
Q 2309 441 2620 675 
Q 2931 909 2931 1356 
Q 2931 1769 2642 2001 
Q 2353 2234 1838 2234 
L 1294 2234 
L 1294 2753 
L 1863 2753 
Q 2328 2753 2575 2939 
Q 2822 3125 2822 3475 
Q 2822 3834 2567 4026 
Q 2313 4219 1838 4219 
Q 1578 4219 1281 4162 
Q 984 4106 628 3988 
L 628 4550 
Q 988 4650 1302 4700 
Q 1616 4750 1894 4750 
Q 2613 4750 3031 4423 
Q 3450 4097 3450 3541 
Q 3450 3153 3228 2886 
Q 3006 2619 2597 2516 
z
" transform="scale(0.015625)"/>
       </defs>
       <use xlink:href="#DejaVuSans-33"/>
      </g>
     </g>
    </g>
    <g id="ytick_5">
     <g id="line2d_11">
      <g>
       <use xlink:href="#m3e86c8829d" x="57.6" y="101.952" style="stroke: #000000; stroke-width: 0.8"/>
      </g>
     </g>
     <g id="text_11">
      <!-- 4 -->
      <g transform="translate(44.2375 105.751219)scale(0.1 -0.1)">
       <use xlink:href="#DejaVuSans-34"/>
      </g>
     </g>
    </g>
    <g id="ytick_6">
     <g id="line2d_12">
      <g>
       <use xlink:href="#m3e86c8829d" x="57.6" y="53.568" style="stroke: #000000; stroke-width: 0.8"/>
      </g>
     </g>
     <g id="text_12">
      <!-- 5 -->
      <g transform="translate(44.2375 57.367219)scale(0.1 -0.1)">
       <defs>
        <path id="DejaVuSans-35" d="M 691 4666 
L 3169 4666 
L 3169 4134 
L 1269 4134 
L 1269 2991 
Q 1406 3038 1543 3061 
Q 1681 3084 1819 3084 
Q 2600 3084 3056 2656 
Q 3513 2228 3513 1497 
Q 3513 744 3044 326 
Q 2575 -91 1722 -91 
Q 1428 -91 1123 -41 
Q 819 9 494 109 
L 494 744 
Q 775 591 1075 516 
Q 1375 441 1709 441 
Q 2250 441 2565 725 
Q 2881 1009 2881 1497 
Q 2881 1984 2565 2268 
Q 2250 2553 1709 2553 
Q 1456 2553 1204 2497 
Q 953 2441 691 2322 
L 691 4666 
z
" transform="scale(0.015625)"/>
       </defs>
       <use xlink:href="#DejaVuSans-35"/>
      </g>
     </g>
    </g>
   </g>
   <g id="line2d_13">
    <defs>
     <path id="m051e06f6fd" d="M 0 3 
C 0.795609 3 1.55874 2.683901 2.12132 2.12132 
C 2.683901 1.55874 3 0.795609 3 0 
C 3 -0.795609 2.683901 -1.55874 2.12132 -2.12132 
C 1.55874 -2.683901 0.795609 -3 0 -3 
C -0.795609 -3 -1.55874 -2.683901 -2.12132 -2.12132 
C -2.683901 -1.55874 -3 -0.795609 -3 0 
C -3 0.795609 -2.683901 1.55874 -2.12132 2.12132 
C -1.55874 2.683901 -0.795609 3 0 3 
z
" style="stroke: #1f77b4"/>
    </defs>
    <g clip-path="url(#pf0ccf31eb6)">
     <use xlink:href="#m051e06f6fd" x="73.832727" y="53.568" style="fill: #1f77b4; stroke: #1f77b4"/>
     <use xlink:href="#m051e06f6fd" x="75.456" y="53.568" style="fill: #1f77b4; stroke: #1f77b4"/>
     <use xlink:href="#m051e06f6fd" x="77.079273" y="53.568" style="fill: #1f77b4; stroke: #1f77b4"/>
     <use xlink:href="#m051e06f6fd" x="78.702545" y="53.568" style="fill: #1f77b4; stroke: #1f77b4"/>
     <use xlink:href="#m051e06f6fd" x="80.325818" y="53.568" style="fill: #1f77b4; stroke: #1f77b4"/>
     <use xlink:href="#m051e06f6fd" x="81.949091" y="53.568" style="fill: #1f77b4; stroke: #1f77b4"/>
     <use xlink:href="#m051e06f6fd" x="83.572364" y="53.568" style="fill: #1f77b4; stroke: #1f77b4"/>
     <use xlink:href="#m051e06f6fd" x="85.195636" y="53.568" style="fill: #1f77b4; stroke: #1f77b4"/>
     <use xlink:href="#m051e06f6fd" x="86.818909" y="53.568" style="fill: #1f77b4; stroke: #1f77b4"/>
     <use xlink:href="#m051e06f6fd" x="88.442182" y="53.568" style="fill: #1f77b4; stroke: #1f77b4"/>
     <use xlink:href="#m051e06f6fd" x="90.065455" y="53.568" style="fill: #1f77b4; stroke: #1f77b4"/>
     <use xlink:href="#m051e06f6fd" x="91.688727" y="53.568" style="fill: #1f77b4; stroke: #1f77b4"/>
     <use xlink:href="#m051e06f6fd" x="93.312" y="53.568" style="fill: #1f77b4; stroke: #1f77b4"/>
     <use xlink:href="#m051e06f6fd" x="94.935273" y="53.568" style="fill: #1f77b4; stroke: #1f77b4"/>
     <use xlink:href="#m051e06f6fd" x="96.558545" y="53.568" style="fill: #1f77b4; stroke: #1f77b4"/>
     <use xlink:href="#m051e06f6fd" x="98.181818" y="53.568" style="fill: #1f77b4; stroke: #1f77b4"/>
     <use xlink:href="#m051e06f6fd" x="99.805091" y="53.568" style="fill: #1f77b4; stroke: #1f77b4"/>
     <use xlink:href="#m051e06f6fd" x="101.428364" y="53.568" style="fill: #1f77b4; stroke: #1f77b4"/>
     <use xlink:href="#m051e06f6fd" x="103.051636" y="53.568" style="fill: #1f77b4; stroke: #1f77b4"/>
     <use xlink:href="#m051e06f6fd" x="104.674909" y="53.568" style="fill: #1f77b4; stroke: #1f77b4"/>
     <use xlink:href="#m051e06f6fd" x="106.298182" y="53.568" style="fill: #1f77b4; stroke: #1f77b4"/>
     <use xlink:href="#m051e06f6fd" x="107.921455" y="53.568" style="fill: #1f77b4; stroke: #1f77b4"/>
     <use xlink:href="#m051e06f6fd" x="109.544727" y="53.568" style="fill: #1f77b4; stroke: #1f77b4"/>
     <use xlink:href="#m051e06f6fd" x="111.168" y="53.568" style="fill: #1f77b4; stroke: #1f77b4"/>
     <use xlink:href="#m051e06f6fd" x="112.791273" y="53.568" style="fill: #1f77b4; stroke: #1f77b4"/>
     <use xlink:href="#m051e06f6fd" x="114.414545" y="53.568" style="fill: #1f77b4; stroke: #1f77b4"/>
     <use xlink:href="#m051e06f6fd" x="116.037818" y="53.568" style="fill: #1f77b4; stroke: #1f77b4"/>
     <use xlink:href="#m051e06f6fd" x="117.661091" y="53.568" style="fill: #1f77b4; stroke: #1f77b4"/>
     <use xlink:href="#m051e06f6fd" x="119.284364" y="53.568" style="fill: #1f77b4; stroke: #1f77b4"/>
     <use xlink:href="#m051e06f6fd" x="120.907636" y="53.568" style="fill: #1f77b4; stroke: #1f77b4"/>
     <use xlink:href="#m051e06f6fd" x="122.530909" y="53.568" style="fill: #1f77b4; stroke: #1f77b4"/>
     <use xlink:href="#m051e06f6fd" x="124.154182" y="53.568" style="fill: #1f77b4; stroke: #1f77b4"/>
     <use xlink:href="#m051e06f6fd" x="125.777455" y="53.568" style="fill: #1f77b4; stroke: #1f77b4"/>
     <use xlink:href="#m051e06f6fd" x="127.400727" y="53.568" style="fill: #1f77b4; stroke: #1f77b4"/>
     <use xlink:href="#m051e06f6fd" x="129.024" y="53.568" style="fill: #1f77b4; stroke: #1f77b4"/>
     <use xlink:href="#m051e06f6fd" x="130.647273" y="53.568" style="fill: #1f77b4; stroke: #1f77b4"/>
     <use xlink:href="#m051e06f6fd" x="132.270545" y="53.568" style="fill: #1f77b4; stroke: #1f77b4"/>
     <use xlink:href="#m051e06f6fd" x="133.893818" y="53.568" style="fill: #1f77b4; stroke: #1f77b4"/>
     <use xlink:href="#m051e06f6fd" x="135.517091" y="53.568" style="fill: #1f77b4; stroke: #1f77b4"/>
     <use xlink:href="#m051e06f6fd" x="137.140364" y="53.568" style="fill: #1f77b4; stroke: #1f77b4"/>
     <use xlink:href="#m051e06f6fd" x="138.763636" y="53.568" style="fill: #1f77b4; stroke: #1f77b4"/>
     <use xlink:href="#m051e06f6fd" x="140.386909" y="53.568" style="fill: #1f77b4; stroke: #1f77b4"/>
     <use xlink:href="#m051e06f6fd" x="142.010182" y="53.568" style="fill: #1f77b4; stroke: #1f77b4"/>
     <use xlink:href="#m051e06f6fd" x="143.633455" y="53.568" style="fill: #1f77b4; stroke: #1f77b4"/>
     <use xlink:href="#m051e06f6fd" x="145.256727" y="53.568" style="fill: #1f77b4; stroke: #1f77b4"/>
     <use xlink:href="#m051e06f6fd" x="146.88" y="53.568" style="fill: #1f77b4; stroke: #1f77b4"/>
     <use xlink:href="#m051e06f6fd" x="148.503273" y="53.568" style="fill: #1f77b4; stroke: #1f77b4"/>
     <use xlink:href="#m051e06f6fd" x="150.126545" y="53.568" style="fill: #1f77b4; stroke: #1f77b4"/>
     <use xlink:href="#m051e06f6fd" x="151.749818" y="53.568" style="fill: #1f77b4; stroke: #1f77b4"/>
     <use xlink:href="#m051e06f6fd" x="153.373091" y="53.568" style="fill: #1f77b4; stroke: #1f77b4"/>
     <use xlink:href="#m051e06f6fd" x="154.996364" y="53.568" style="fill: #1f77b4; stroke: #1f77b4"/>
     <use xlink:href="#m051e06f6fd" x="156.619636" y="53.568" style="fill: #1f77b4; stroke: #1f77b4"/>
     <use xlink:href="#m051e06f6fd" x="158.242909" y="53.568" style="fill: #1f77b4; stroke: #1f77b4"/>
     <use xlink:href="#m051e06f6fd" x="159.866182" y="53.568" style="fill: #1f77b4; stroke: #1f77b4"/>
     <use xlink:href="#m051e06f6fd" x="161.489455" y="53.568" style="fill: #1f77b4; stroke: #1f77b4"/>
     <use xlink:href="#m051e06f6fd" x="163.112727" y="53.568" style="fill: #1f77b4; stroke: #1f77b4"/>
     <use xlink:href="#m051e06f6fd" x="164.736" y="53.568" style="fill: #1f77b4; stroke: #1f77b4"/>
     <use xlink:href="#m051e06f6fd" x="166.359273" y="53.568" style="fill: #1f77b4; stroke: #1f77b4"/>
     <use xlink:href="#m051e06f6fd" x="167.982545" y="53.568" style="fill: #1f77b4; stroke: #1f77b4"/>
     <use xlink:href="#m051e06f6fd" x="169.605818" y="53.568" style="fill: #1f77b4; stroke: #1f77b4"/>
     <use xlink:href="#m051e06f6fd" x="171.229091" y="53.568" style="fill: #1f77b4; stroke: #1f77b4"/>
     <use xlink:href="#m051e06f6fd" x="172.852364" y="53.568" style="fill: #1f77b4; stroke: #1f77b4"/>
     <use xlink:href="#m051e06f6fd" x="174.475636" y="53.568" style="fill: #1f77b4; stroke: #1f77b4"/>
     <use xlink:href="#m051e06f6fd" x="176.098909" y="53.568" style="fill: #1f77b4; stroke: #1f77b4"/>
     <use xlink:href="#m051e06f6fd" x="177.722182" y="53.568" style="fill: #1f77b4; stroke: #1f77b4"/>
     <use xlink:href="#m051e06f6fd" x="179.345455" y="53.568" style="fill: #1f77b4; stroke: #1f77b4"/>
     <use xlink:href="#m051e06f6fd" x="180.968727" y="53.568" style="fill: #1f77b4; stroke: #1f77b4"/>
     <use xlink:href="#m051e06f6fd" x="182.592" y="53.568" style="fill: #1f77b4; stroke: #1f77b4"/>
     <use xlink:href="#m051e06f6fd" x="184.215273" y="53.568" style="fill: #1f77b4; stroke: #1f77b4"/>
     <use xlink:href="#m051e06f6fd" x="185.838545" y="53.568" style="fill: #1f77b4; stroke: #1f77b4"/>
     <use xlink:href="#m051e06f6fd" x="187.461818" y="53.568" style="fill: #1f77b4; stroke: #1f77b4"/>
     <use xlink:href="#m051e06f6fd" x="189.085091" y="53.568" style="fill: #1f77b4; stroke: #1f77b4"/>
     <use xlink:href="#m051e06f6fd" x="190.708364" y="53.568" style="fill: #1f77b4; stroke: #1f77b4"/>
     <use xlink:href="#m051e06f6fd" x="192.331636" y="53.568" style="fill: #1f77b4; stroke: #1f77b4"/>
     <use xlink:href="#m051e06f6fd" x="193.954909" y="53.568" style="fill: #1f77b4; stroke: #1f77b4"/>
     <use xlink:href="#m051e06f6fd" x="195.578182" y="53.568" style="fill: #1f77b4; stroke: #1f77b4"/>
     <use xlink:href="#m051e06f6fd" x="197.201455" y="53.568" style="fill: #1f77b4; stroke: #1f77b4"/>
     <use xlink:href="#m051e06f6fd" x="198.824727" y="53.568" style="fill: #1f77b4; stroke: #1f77b4"/>
     <use xlink:href="#m051e06f6fd" x="200.448" y="53.568" style="fill: #1f77b4; stroke: #1f77b4"/>
     <use xlink:href="#m051e06f6fd" x="202.071273" y="53.568" style="fill: #1f77b4; stroke: #1f77b4"/>
     <use xlink:href="#m051e06f6fd" x="203.694545" y="53.568" style="fill: #1f77b4; stroke: #1f77b4"/>
     <use xlink:href="#m051e06f6fd" x="205.317818" y="53.568" style="fill: #1f77b4; stroke: #1f77b4"/>
     <use xlink:href="#m051e06f6fd" x="206.941091" y="53.568" style="fill: #1f77b4; stroke: #1f77b4"/>
     <use xlink:href="#m051e06f6fd" x="208.564364" y="53.568" style="fill: #1f77b4; stroke: #1f77b4"/>
     <use xlink:href="#m051e06f6fd" x="210.187636" y="53.568" style="fill: #1f77b4; stroke: #1f77b4"/>
     <use xlink:href="#m051e06f6fd" x="211.810909" y="53.568" style="fill: #1f77b4; stroke: #1f77b4"/>
     <use xlink:href="#m051e06f6fd" x="213.434182" y="53.568" style="fill: #1f77b4; stroke: #1f77b4"/>
     <use xlink:href="#m051e06f6fd" x="215.057455" y="53.568" style="fill: #1f77b4; stroke: #1f77b4"/>
     <use xlink:href="#m051e06f6fd" x="216.680727" y="53.568" style="fill: #1f77b4; stroke: #1f77b4"/>
     <use xlink:href="#m051e06f6fd" x="218.304" y="53.568" style="fill: #1f77b4; stroke: #1f77b4"/>
     <use xlink:href="#m051e06f6fd" x="219.927273" y="53.568" style="fill: #1f77b4; stroke: #1f77b4"/>
     <use xlink:href="#m051e06f6fd" x="221.550545" y="53.568" style="fill: #1f77b4; stroke: #1f77b4"/>
     <use xlink:href="#m051e06f6fd" x="223.173818" y="53.568" style="fill: #1f77b4; stroke: #1f77b4"/>
     <use xlink:href="#m051e06f6fd" x="224.797091" y="53.568" style="fill: #1f77b4; stroke: #1f77b4"/>
     <use xlink:href="#m051e06f6fd" x="226.420364" y="53.568" style="fill: #1f77b4; stroke: #1f77b4"/>
     <use xlink:href="#m051e06f6fd" x="228.043636" y="53.568" style="fill: #1f77b4; stroke: #1f77b4"/>
     <use xlink:href="#m051e06f6fd" x="229.666909" y="53.568" style="fill: #1f77b4; stroke: #1f77b4"/>
     <use xlink:href="#m051e06f6fd" x="231.290182" y="53.568" style="fill: #1f77b4; stroke: #1f77b4"/>
     <use xlink:href="#m051e06f6fd" x="232.913455" y="53.568" style="fill: #1f77b4; stroke: #1f77b4"/>
     <use xlink:href="#m051e06f6fd" x="234.536727" y="53.568" style="fill: #1f77b4; stroke: #1f77b4"/>
     <use xlink:href="#m051e06f6fd" x="236.16" y="53.568" style="fill: #1f77b4; stroke: #1f77b4"/>
     <use xlink:href="#m051e06f6fd" x="237.783273" y="58.358977" style="fill: #1f77b4; stroke: #1f77b4"/>
     <use xlink:href="#m051e06f6fd" x="239.406545" y="63.056014" style="fill: #1f77b4; stroke: #1f77b4"/>
     <use xlink:href="#m051e06f6fd" x="241.029818" y="67.661849" style="fill: #1f77b4; stroke: #1f77b4"/>
     <use xlink:href="#m051e06f6fd" x="242.653091" y="72.17911" style="fill: #1f77b4; stroke: #1f77b4"/>
     <use xlink:href="#m051e06f6fd" x="244.276364" y="76.610328" style="fill: #1f77b4; stroke: #1f77b4"/>
     <use xlink:href="#m051e06f6fd" x="245.899636" y="80.957937" style="fill: #1f77b4; stroke: #1f77b4"/>
     <use xlink:href="#m051e06f6fd" x="247.522909" y="85.224282" style="fill: #1f77b4; stroke: #1f77b4"/>
     <use xlink:href="#m051e06f6fd" x="249.146182" y="89.411618" style="fill: #1f77b4; stroke: #1f77b4"/>
     <use xlink:href="#m051e06f6fd" x="250.769455" y="93.522121" style="fill: #1f77b4; stroke: #1f77b4"/>
     <use xlink:href="#m051e06f6fd" x="252.392727" y="97.557884" style="fill: #1f77b4; stroke: #1f77b4"/>
     <use xlink:href="#m051e06f6fd" x="254.016" y="101.520928" style="fill: #1f77b4; stroke: #1f77b4"/>
     <use xlink:href="#m051e06f6fd" x="255.639273" y="105.413199" style="fill: #1f77b4; stroke: #1f77b4"/>
     <use xlink:href="#m051e06f6fd" x="257.262545" y="109.236577" style="fill: #1f77b4; stroke: #1f77b4"/>
     <use xlink:href="#m051e06f6fd" x="258.885818" y="112.992873" style="fill: #1f77b4; stroke: #1f77b4"/>
     <use xlink:href="#m051e06f6fd" x="260.509091" y="116.683837" style="fill: #1f77b4; stroke: #1f77b4"/>
     <use xlink:href="#m051e06f6fd" x="262.132364" y="120.311158" style="fill: #1f77b4; stroke: #1f77b4"/>
     <use xlink:href="#m051e06f6fd" x="263.755636" y="123.876469" style="fill: #1f77b4; stroke: #1f77b4"/>
     <use xlink:href="#m051e06f6fd" x="265.378909" y="127.381344" style="fill: #1f77b4; stroke: #1f77b4"/>
     <use xlink:href="#m051e06f6fd" x="267.002182" y="130.827307" style="fill: #1f77b4; stroke: #1f77b4"/>
     <use xlink:href="#m051e06f6fd" x="268.625455" y="134.21583" style="fill: #1f77b4; stroke: #1f77b4"/>
     <use xlink:href="#m051e06f6fd" x="270.248727" y="137.548338" style="fill: #1f77b4; stroke: #1f77b4"/>
     <use xlink:href="#m051e06f6fd" x="271.872" y="140.826207" style="fill: #1f77b4; stroke: #1f77b4"/>
     <use xlink:href="#m051e06f6fd" x="273.495273" y="144.050769" style="fill: #1f77b4; stroke: #1f77b4"/>
     <use xlink:href="#m051e06f6fd" x="275.118545" y="147.223314" style="fill: #1f77b4; stroke: #1f77b4"/>
     <use xlink:href="#m051e06f6fd" x="276.741818" y="150.34509" style="fill: #1f77b4; stroke: #1f77b4"/>
     <use xlink:href="#m051e06f6fd" x="278.365091" y="153.417306" style="fill: #1f77b4; stroke: #1f77b4"/>
     <use xlink:href="#m051e06f6fd" x="279.988364" y="156.441131" style="fill: #1f77b4; stroke: #1f77b4"/>
     <use xlink:href="#m051e06f6fd" x="281.611636" y="159.4177" style="fill: #1f77b4; stroke: #1f77b4"/>
     <use xlink:href="#m051e06f6fd" x="283.234909" y="162.348111" style="fill: #1f77b4; stroke: #1f77b4"/>
     <use xlink:href="#m051e06f6fd" x="284.858182" y="165.233429" style="fill: #1f77b4; stroke: #1f77b4"/>
     <use xlink:href="#m051e06f6fd" x="286.481455" y="168.074687" style="fill: #1f77b4; stroke: #1f77b4"/>
     <use xlink:href="#m051e06f6fd" x="288.104727" y="170.872885" style="fill: #1f77b4; stroke: #1f77b4"/>
     <use xlink:href="#m051e06f6fd" x="289.728" y="173.628995" style="fill: #1f77b4; stroke: #1f77b4"/>
     <use xlink:href="#m051e06f6fd" x="291.351273" y="176.343959" style="fill: #1f77b4; stroke: #1f77b4"/>
     <use xlink:href="#m051e06f6fd" x="292.974545" y="179.018691" style="fill: #1f77b4; stroke: #1f77b4"/>
     <use xlink:href="#m051e06f6fd" x="294.597818" y="181.654079" style="fill: #1f77b4; stroke: #1f77b4"/>
     <use xlink:href="#m051e06f6fd" x="296.221091" y="184.250982" style="fill: #1f77b4; stroke: #1f77b4"/>
     <use xlink:href="#m051e06f6fd" x="297.844364" y="186.810239" style="fill: #1f77b4; stroke: #1f77b4"/>
     <use xlink:href="#m051e06f6fd" x="299.467636" y="189.332661" style="fill: #1f77b4; stroke: #1f77b4"/>
     <use xlink:href="#m051e06f6fd" x="301.090909" y="191.819038" style="fill: #1f77b4; stroke: #1f77b4"/>
     <use xlink:href="#m051e06f6fd" x="302.714182" y="194.270136" style="fill: #1f77b4; stroke: #1f77b4"/>
     <use xlink:href="#m051e06f6fd" x="304.337455" y="196.686701" style="fill: #1f77b4; stroke: #1f77b4"/>
     <use xlink:href="#m051e06f6fd" x="305.960727" y="199.069456" style="fill: #1f77b4; stroke: #1f77b4"/>
     <use xlink:href="#m051e06f6fd" x="307.584" y="201.419107" style="fill: #1f77b4; stroke: #1f77b4"/>
     <use xlink:href="#m051e06f6fd" x="309.207273" y="203.736338" style="fill: #1f77b4; stroke: #1f77b4"/>
     <use xlink:href="#m051e06f6fd" x="310.830545" y="206.021815" style="fill: #1f77b4; stroke: #1f77b4"/>
     <use xlink:href="#m051e06f6fd" x="312.453818" y="208.276186" style="fill: #1f77b4; stroke: #1f77b4"/>
     <use xlink:href="#m051e06f6fd" x="314.077091" y="210.500081" style="fill: #1f77b4; stroke: #1f77b4"/>
     <use xlink:href="#m051e06f6fd" x="315.700364" y="212.694115" style="fill: #1f77b4; stroke: #1f77b4"/>
     <use xlink:href="#m051e06f6fd" x="317.323636" y="214.858884" style="fill: #1f77b4; stroke: #1f77b4"/>
     <use xlink:href="#m051e06f6fd" x="318.946909" y="216.994969" style="fill: #1f77b4; stroke: #1f77b4"/>
     <use xlink:href="#m051e06f6fd" x="320.570182" y="219.102938" style="fill: #1f77b4; stroke: #1f77b4"/>
     <use xlink:href="#m051e06f6fd" x="322.193455" y="221.18334" style="fill: #1f77b4; stroke: #1f77b4"/>
     <use xlink:href="#m051e06f6fd" x="323.816727" y="223.236714" style="fill: #1f77b4; stroke: #1f77b4"/>
     <use xlink:href="#m051e06f6fd" x="325.44" y="225.263583" style="fill: #1f77b4; stroke: #1f77b4"/>
     <use xlink:href="#m051e06f6fd" x="327.063273" y="227.264455" style="fill: #1f77b4; stroke: #1f77b4"/>
     <use xlink:href="#m051e06f6fd" x="328.686545" y="229.239828" style="fill: #1f77b4; stroke: #1f77b4"/>
     <use xlink:href="#m051e06f6fd" x="330.309818" y="231.190187" style="fill: #1f77b4; stroke: #1f77b4"/>
     <use xlink:href="#m051e06f6fd" x="331.933091" y="233.116002" style="fill: #1f77b4; stroke: #1f77b4"/>
     <use xlink:href="#m051e06f6fd" x="333.556364" y="235.017735" style="fill: #1f77b4; stroke: #1f77b4"/>
     <use xlink:href="#m051e06f6fd" x="335.179636" y="236.895834" style="fill: #1f77b4; stroke: #1f77b4"/>
     <use xlink:href="#m051e06f6fd" x="336.802909" y="238.750738" style="fill: #1f77b4; stroke: #1f77b4"/>
     <use xlink:href="#m051e06f6fd" x="338.426182" y="240.582872" style="fill: #1f77b4; stroke: #1f77b4"/>
     <use xlink:href="#m051e06f6fd" x="340.049455" y="242.392654" style="fill: #1f77b4; stroke: #1f77b4"/>
     <use xlink:href="#m051e06f6fd" x="341.672727" y="244.18049" style="fill: #1f77b4; stroke: #1f77b4"/>
     <use xlink:href="#m051e06f6fd" x="343.296" y="245.946778" style="fill: #1f77b4; stroke: #1f77b4"/>
     <use xlink:href="#m051e06f6fd" x="344.919273" y="247.691903" style="fill: #1f77b4; stroke: #1f77b4"/>
     <use xlink:href="#m051e06f6fd" x="346.542545" y="249.416245" style="fill: #1f77b4; stroke: #1f77b4"/>
     <use xlink:href="#m051e06f6fd" x="348.165818" y="251.120172" style="fill: #1f77b4; stroke: #1f77b4"/>
     <use xlink:href="#m051e06f6fd" x="349.789091" y="252.804045" style="fill: #1f77b4; stroke: #1f77b4"/>
     <use xlink:href="#m051e06f6fd" x="351.412364" y="254.468216" style="fill: #1f77b4; stroke: #1f77b4"/>
     <use xlink:href="#m051e06f6fd" x="353.035636" y="256.113028" style="fill: #1f77b4; stroke: #1f77b4"/>
     <use xlink:href="#m051e06f6fd" x="354.658909" y="257.738818" style="fill: #1f77b4; stroke: #1f77b4"/>
     <use xlink:href="#m051e06f6fd" x="356.282182" y="259.345913" style="fill: #1f77b4; stroke: #1f77b4"/>
     <use xlink:href="#m051e06f6fd" x="357.905455" y="260.934635" style="fill: #1f77b4; stroke: #1f77b4"/>
     <use xlink:href="#m051e06f6fd" x="359.528727" y="262.505296" style="fill: #1f77b4; stroke: #1f77b4"/>
     <use xlink:href="#m051e06f6fd" x="361.152" y="264.058204" style="fill: #1f77b4; stroke: #1f77b4"/>
     <use xlink:href="#m051e06f6fd" x="362.775273" y="265.593657" style="fill: #1f77b4; stroke: #1f77b4"/>
     <use xlink:href="#m051e06f6fd" x="364.398545" y="267.111948" style="fill: #1f77b4; stroke: #1f77b4"/>
     <use xlink:href="#m051e06f6fd" x="366.021818" y="268.613364" style="fill: #1f77b4; stroke: #1f77b4"/>
     <use xlink:href="#m051e06f6fd" x="367.645091" y="270.098184" style="fill: #1f77b4; stroke: #1f77b4"/>
     <use xlink:href="#m051e06f6fd" x="369.268364" y="271.566683" style="fill: #1f77b4; stroke: #1f77b4"/>
     <use xlink:href="#m051e06f6fd" x="370.891636" y="273.019127" style="fill: #1f77b4; stroke: #1f77b4"/>
     <use xlink:href="#m051e06f6fd" x="372.514909" y="274.45578" style="fill: #1f77b4; stroke: #1f77b4"/>
     <use xlink:href="#m051e06f6fd" x="374.138182" y="275.876897" style="fill: #1f77b4; stroke: #1f77b4"/>
     <use xlink:href="#m051e06f6fd" x="375.761455" y="277.282729" style="fill: #1f77b4; stroke: #1f77b4"/>
     <use xlink:href="#m051e06f6fd" x="377.384727" y="278.673521" style="fill: #1f77b4; stroke: #1f77b4"/>
     <use xlink:href="#m051e06f6fd" x="379.008" y="280.049515" style="fill: #1f77b4; stroke: #1f77b4"/>
     <use xlink:href="#m051e06f6fd" x="380.631273" y="281.410944" style="fill: #1f77b4; stroke: #1f77b4"/>
     <use xlink:href="#m051e06f6fd" x="382.254545" y="282.75804" style="fill: #1f77b4; stroke: #1f77b4"/>
     <use xlink:href="#m051e06f6fd" x="383.877818" y="284.091028" style="fill: #1f77b4; stroke: #1f77b4"/>
     <use xlink:href="#m051e06f6fd" x="385.501091" y="285.410128" style="fill: #1f77b4; stroke: #1f77b4"/>
     <use xlink:href="#m051e06f6fd" x="387.124364" y="286.715556" style="fill: #1f77b4; stroke: #1f77b4"/>
     <use xlink:href="#m051e06f6fd" x="388.747636" y="288.007524" style="fill: #1f77b4; stroke: #1f77b4"/>
     <use xlink:href="#m051e06f6fd" x="390.370909" y="289.28624" style="fill: #1f77b4; stroke: #1f77b4"/>
     <use xlink:href="#m051e06f6fd" x="391.994182" y="290.551907" style="fill: #1f77b4; stroke: #1f77b4"/>
     <use xlink:href="#m051e06f6fd" x="393.617455" y="291.804723" style="fill: #1f77b4; stroke: #1f77b4"/>
     <use xlink:href="#m051e06f6fd" x="395.240727" y="293.044884" style="fill: #1f77b4; stroke: #1f77b4"/>
     <use xlink:href="#m051e06f6fd" x="396.864" y="294.272581" style="fill: #1f77b4; stroke: #1f77b4"/>
     <use xlink:href="#m051e06f6fd" x="398.487273" y="295.488" style="fill: #1f77b4; stroke: #1f77b4"/>
    </g>
   </g>
   <g id="patch_3">
    <path d="M 57.6 307.584 
L 57.6 41.472 
" style="fill: none; stroke: #000000; stroke-width: 0.8; stroke-linejoin: miter; stroke-linecap: square"/>
   </g>
   <g id="patch_4">
    <path d="M 414.72 307.584 
L 414.72 41.472 
" style="fill: none; stroke: #000000; stroke-width: 0.8; stroke-linejoin: miter; stroke-linecap: square"/>
   </g>
   <g id="patch_5">
    <path d="M 57.6 307.584 
L 414.72 307.584 
" style="fill: none; stroke: #000000; stroke-width: 0.8; stroke-linejoin: miter; stroke-linecap: square"/>
   </g>
   <g id="patch_6">
    <path d="M 57.6 41.472 
L 414.72 41.472 
" style="fill: none; stroke: #000000; stroke-width: 0.8; stroke-linejoin: miter; stroke-linecap: square"/>
   </g>
  </g>
 </g>
 <defs>
  <clipPath id="pf0ccf31eb6">
   <rect x="57.6" y="41.472" width="357.12" height="266.112"/>
  </clipPath>
 </defs>
</svg>
