<?xml version="1.0" encoding="utf-8" standalone="no"?>
<!DOCTYPE svg PUBLIC "-//W3C//DTD SVG 1.1//EN"
  "http://www.w3.org/Graphics/SVG/1.1/DTD/svg11.dtd">
<svg xmlns:xlink="http://www.w3.org/1999/xlink" width="460.8pt" height="345.6pt" viewBox="0 0 460.8 345.6" xmlns="http://www.w3.org/2000/svg" version="1.1">
 <metadata>
  <rdf:RDF xmlns:dc="http://purl.org/dc/elements/1.1/" xmlns:cc="http://creativecommons.org/ns#" xmlns:rdf="http://www.w3.org/1999/02/22-rdf-syntax-ns#">
   <cc:Work>
    <dc:type rdf:resource="http://purl.org/dc/dcmitype/StillImage"/>
    <dc:date>2022-01-02T12:59:29.192548</dc:date>
    <dc:format>image/svg+xml</dc:format>
    <dc:creator>
     <cc:Agent>
      <dc:title>Matplotlib v3.5.0, https://matplotlib.org/</dc:title>
     </cc:Agent>
    </dc:creator>
   </cc:Work>
  </rdf:RDF>
 </metadata>
 <defs>
  <style type="text/css">*{stroke-linejoin: round; stroke-linecap: butt}</style>
 </defs>
 <g id="figure_1">
  <g id="patch_1">
   <path d="M 0 345.6 
L 460.8 345.6 
L 460.8 0 
L 0 0 
z
" style="fill: #ffffff"/>
  </g>
  <g id="axes_1">
   <g id="patch_2">
    <path d="M 57.6 307.584 
L 414.72 307.584 
L 414.72 41.472 
L 57.6 41.472 
z
" style="fill: #ffffff"/>
   </g>
   <g id="matplotlib.axis_1">
    <g id="xtick_1">
     <g id="line2d_1">
      <defs>
       <path id="m98809c9068" d="M 0 0 
L 0 3.5 
" style="stroke: #000000; stroke-width: 0.8"/>
      </defs>
      <g>
       <use xlink:href="#m98809c9068" x="73.832727" y="307.584" style="stroke: #000000; stroke-width: 0.8"/>
      </g>
     </g>
     <g id="text_1">
      <!-- 0.0 -->
      <g transform="translate(65.881165 322.182437)scale(0.1 -0.1)">
       <defs>
        <path id="DejaVuSans-30" d="M 2034 4250 
Q 1547 4250 1301 3770 
Q 1056 3291 1056 2328 
Q 1056 1369 1301 889 
Q 1547 409 2034 409 
Q 2525 409 2770 889 
Q 3016 1369 3016 2328 
Q 3016 3291 2770 3770 
Q 2525 4250 2034 4250 
z
M 2034 4750 
Q 2819 4750 3233 4129 
Q 3647 3509 3647 2328 
Q 3647 1150 3233 529 
Q 2819 -91 2034 -91 
Q 1250 -91 836 529 
Q 422 1150 422 2328 
Q 422 3509 836 4129 
Q 1250 4750 2034 4750 
z
" transform="scale(0.015625)"/>
        <path id="DejaVuSans-2e" d="M 684 794 
L 1344 794 
L 1344 0 
L 684 0 
L 684 794 
z
" transform="scale(0.015625)"/>
       </defs>
       <use xlink:href="#DejaVuSans-30"/>
       <use xlink:href="#DejaVuSans-2e" x="63.623047"/>
       <use xlink:href="#DejaVuSans-30" x="95.410156"/>
      </g>
     </g>
    </g>
    <g id="xtick_2">
     <g id="line2d_2">
      <g>
       <use xlink:href="#m98809c9068" x="138.763636" y="307.584" style="stroke: #000000; stroke-width: 0.8"/>
      </g>
     </g>
     <g id="text_2">
      <!-- 0.2 -->
      <g transform="translate(130.812074 322.182437)scale(0.1 -0.1)">
       <defs>
        <path id="DejaVuSans-32" d="M 1228 531 
L 3431 531 
L 3431 0 
L 469 0 
L 469 531 
Q 828 903 1448 1529 
Q 2069 2156 2228 2338 
Q 2531 2678 2651 2914 
Q 2772 3150 2772 3378 
Q 2772 3750 2511 3984 
Q 2250 4219 1831 4219 
Q 1534 4219 1204 4116 
Q 875 4013 500 3803 
L 500 4441 
Q 881 4594 1212 4672 
Q 1544 4750 1819 4750 
Q 2544 4750 2975 4387 
Q 3406 4025 3406 3419 
Q 3406 3131 3298 2873 
Q 3191 2616 2906 2266 
Q 2828 2175 2409 1742 
Q 1991 1309 1228 531 
z
" transform="scale(0.015625)"/>
       </defs>
       <use xlink:href="#DejaVuSans-30"/>
       <use xlink:href="#DejaVuSans-2e" x="63.623047"/>
       <use xlink:href="#DejaVuSans-32" x="95.410156"/>
      </g>
     </g>
    </g>
    <g id="xtick_3">
     <g id="line2d_3">
      <g>
       <use xlink:href="#m98809c9068" x="203.694545" y="307.584" style="stroke: #000000; stroke-width: 0.8"/>
      </g>
     </g>
     <g id="text_3">
      <!-- 0.4 -->
      <g transform="translate(195.742983 322.182437)scale(0.1 -0.1)">
       <defs>
        <path id="DejaVuSans-34" d="M 2419 4116 
L 825 1625 
L 2419 1625 
L 2419 4116 
z
M 2253 4666 
L 3047 4666 
L 3047 1625 
L 3713 1625 
L 3713 1100 
L 3047 1100 
L 3047 0 
L 2419 0 
L 2419 1100 
L 313 1100 
L 313 1709 
L 2253 4666 
z
" transform="scale(0.015625)"/>
       </defs>
       <use xlink:href="#DejaVuSans-30"/>
       <use xlink:href="#DejaVuSans-2e" x="63.623047"/>
       <use xlink:href="#DejaVuSans-34" x="95.410156"/>
      </g>
     </g>
    </g>
    <g id="xtick_4">
     <g id="line2d_4">
      <g>
       <use xlink:href="#m98809c9068" x="268.625455" y="307.584" style="stroke: #000000; stroke-width: 0.8"/>
      </g>
     </g>
     <g id="text_4">
      <!-- 0.6 -->
      <g transform="translate(260.673892 322.182437)scale(0.1 -0.1)">
       <defs>
        <path id="DejaVuSans-36" d="M 2113 2584 
Q 1688 2584 1439 2293 
Q 1191 2003 1191 1497 
Q 1191 994 1439 701 
Q 1688 409 2113 409 
Q 2538 409 2786 701 
Q 3034 994 3034 1497 
Q 3034 2003 2786 2293 
Q 2538 2584 2113 2584 
z
M 3366 4563 
L 3366 3988 
Q 3128 4100 2886 4159 
Q 2644 4219 2406 4219 
Q 1781 4219 1451 3797 
Q 1122 3375 1075 2522 
Q 1259 2794 1537 2939 
Q 1816 3084 2150 3084 
Q 2853 3084 3261 2657 
Q 3669 2231 3669 1497 
Q 3669 778 3244 343 
Q 2819 -91 2113 -91 
Q 1303 -91 875 529 
Q 447 1150 447 2328 
Q 447 3434 972 4092 
Q 1497 4750 2381 4750 
Q 2619 4750 2861 4703 
Q 3103 4656 3366 4563 
z
" transform="scale(0.015625)"/>
       </defs>
       <use xlink:href="#DejaVuSans-30"/>
       <use xlink:href="#DejaVuSans-2e" x="63.623047"/>
       <use xlink:href="#DejaVuSans-36" x="95.410156"/>
      </g>
     </g>
    </g>
    <g id="xtick_5">
     <g id="line2d_5">
      <g>
       <use xlink:href="#m98809c9068" x="333.556364" y="307.584" style="stroke: #000000; stroke-width: 0.8"/>
      </g>
     </g>
     <g id="text_5">
      <!-- 0.8 -->
      <g transform="translate(325.604801 322.182437)scale(0.1 -0.1)">
       <defs>
        <path id="DejaVuSans-38" d="M 2034 2216 
Q 1584 2216 1326 1975 
Q 1069 1734 1069 1313 
Q 1069 891 1326 650 
Q 1584 409 2034 409 
Q 2484 409 2743 651 
Q 3003 894 3003 1313 
Q 3003 1734 2745 1975 
Q 2488 2216 2034 2216 
z
M 1403 2484 
Q 997 2584 770 2862 
Q 544 3141 544 3541 
Q 544 4100 942 4425 
Q 1341 4750 2034 4750 
Q 2731 4750 3128 4425 
Q 3525 4100 3525 3541 
Q 3525 3141 3298 2862 
Q 3072 2584 2669 2484 
Q 3125 2378 3379 2068 
Q 3634 1759 3634 1313 
Q 3634 634 3220 271 
Q 2806 -91 2034 -91 
Q 1263 -91 848 271 
Q 434 634 434 1313 
Q 434 1759 690 2068 
Q 947 2378 1403 2484 
z
M 1172 3481 
Q 1172 3119 1398 2916 
Q 1625 2713 2034 2713 
Q 2441 2713 2670 2916 
Q 2900 3119 2900 3481 
Q 2900 3844 2670 4047 
Q 2441 4250 2034 4250 
Q 1625 4250 1398 4047 
Q 1172 3844 1172 3481 
z
" transform="scale(0.015625)"/>
       </defs>
       <use xlink:href="#DejaVuSans-30"/>
       <use xlink:href="#DejaVuSans-2e" x="63.623047"/>
       <use xlink:href="#DejaVuSans-38" x="95.410156"/>
      </g>
     </g>
    </g>
    <g id="xtick_6">
     <g id="line2d_6">
      <g>
       <use xlink:href="#m98809c9068" x="398.487273" y="307.584" style="stroke: #000000; stroke-width: 0.8"/>
      </g>
     </g>
     <g id="text_6">
      <!-- 1.0 -->
      <g transform="translate(390.53571 322.182437)scale(0.1 -0.1)">
       <defs>
        <path id="DejaVuSans-31" d="M 794 531 
L 1825 531 
L 1825 4091 
L 703 3866 
L 703 4441 
L 1819 4666 
L 2450 4666 
L 2450 531 
L 3481 531 
L 3481 0 
L 794 0 
L 794 531 
z
" transform="scale(0.015625)"/>
       </defs>
       <use xlink:href="#DejaVuSans-31"/>
       <use xlink:href="#DejaVuSans-2e" x="63.623047"/>
       <use xlink:href="#DejaVuSans-30" x="95.410156"/>
      </g>
     </g>
    </g>
   </g>
   <g id="matplotlib.axis_2">
    <g id="ytick_1">
     <g id="line2d_7">
      <defs>
       <path id="m20ad1488d7" d="M 0 0 
L -3.5 0 
" style="stroke: #000000; stroke-width: 0.8"/>
      </defs>
      <g>
       <use xlink:href="#m20ad1488d7" x="57.6" y="294.37456" style="stroke: #000000; stroke-width: 0.8"/>
      </g>
     </g>
     <g id="text_7">
      <!-- 0.4 -->
      <g transform="translate(34.696875 298.173779)scale(0.1 -0.1)">
       <use xlink:href="#DejaVuSans-30"/>
       <use xlink:href="#DejaVuSans-2e" x="63.623047"/>
       <use xlink:href="#DejaVuSans-34" x="95.410156"/>
      </g>
     </g>
    </g>
    <g id="ytick_2">
     <g id="line2d_8">
      <g>
       <use xlink:href="#m20ad1488d7" x="57.6" y="254.813657" style="stroke: #000000; stroke-width: 0.8"/>
      </g>
     </g>
     <g id="text_8">
      <!-- 0.6 -->
      <g transform="translate(34.696875 258.612875)scale(0.1 -0.1)">
       <use xlink:href="#DejaVuSans-30"/>
       <use xlink:href="#DejaVuSans-2e" x="63.623047"/>
       <use xlink:href="#DejaVuSans-36" x="95.410156"/>
      </g>
     </g>
    </g>
    <g id="ytick_3">
     <g id="line2d_9">
      <g>
       <use xlink:href="#m20ad1488d7" x="57.6" y="215.252753" style="stroke: #000000; stroke-width: 0.8"/>
      </g>
     </g>
     <g id="text_9">
      <!-- 0.8 -->
      <g transform="translate(34.696875 219.051972)scale(0.1 -0.1)">
       <use xlink:href="#DejaVuSans-30"/>
       <use xlink:href="#DejaVuSans-2e" x="63.623047"/>
       <use xlink:href="#DejaVuSans-38" x="95.410156"/>
      </g>
     </g>
    </g>
    <g id="ytick_4">
     <g id="line2d_10">
      <g>
       <use xlink:href="#m20ad1488d7" x="57.6" y="175.69185" style="stroke: #000000; stroke-width: 0.8"/>
      </g>
     </g>
     <g id="text_10">
      <!-- 1.0 -->
      <g transform="translate(34.696875 179.491068)scale(0.1 -0.1)">
       <use xlink:href="#DejaVuSans-31"/>
       <use xlink:href="#DejaVuSans-2e" x="63.623047"/>
       <use xlink:href="#DejaVuSans-30" x="95.410156"/>
      </g>
     </g>
    </g>
    <g id="ytick_5">
     <g id="line2d_11">
      <g>
       <use xlink:href="#m20ad1488d7" x="57.6" y="136.130946" style="stroke: #000000; stroke-width: 0.8"/>
      </g>
     </g>
     <g id="text_11">
      <!-- 1.2 -->
      <g transform="translate(34.696875 139.930165)scale(0.1 -0.1)">
       <use xlink:href="#DejaVuSans-31"/>
       <use xlink:href="#DejaVuSans-2e" x="63.623047"/>
       <use xlink:href="#DejaVuSans-32" x="95.410156"/>
      </g>
     </g>
    </g>
    <g id="ytick_6">
     <g id="line2d_12">
      <g>
       <use xlink:href="#m20ad1488d7" x="57.6" y="96.570043" style="stroke: #000000; stroke-width: 0.8"/>
      </g>
     </g>
     <g id="text_12">
      <!-- 1.4 -->
      <g transform="translate(34.696875 100.369261)scale(0.1 -0.1)">
       <use xlink:href="#DejaVuSans-31"/>
       <use xlink:href="#DejaVuSans-2e" x="63.623047"/>
       <use xlink:href="#DejaVuSans-34" x="95.410156"/>
      </g>
     </g>
    </g>
    <g id="ytick_7">
     <g id="line2d_13">
      <g>
       <use xlink:href="#m20ad1488d7" x="57.6" y="57.009139" style="stroke: #000000; stroke-width: 0.8"/>
      </g>
     </g>
     <g id="text_13">
      <!-- 1.6 -->
      <g transform="translate(34.696875 60.808358)scale(0.1 -0.1)">
       <use xlink:href="#DejaVuSans-31"/>
       <use xlink:href="#DejaVuSans-2e" x="63.623047"/>
       <use xlink:href="#DejaVuSans-36" x="95.410156"/>
      </g>
     </g>
    </g>
   </g>
   <g id="line2d_14">
    <defs>
     <path id="mab1a9f518f" d="M 0 3 
C 0.795609 3 1.55874 2.683901 2.12132 2.12132 
C 2.683901 1.55874 3 0.795609 3 0 
C 3 -0.795609 2.683901 -1.55874 2.12132 -2.12132 
C 1.55874 -2.683901 0.795609 -3 0 -3 
C -0.795609 -3 -1.55874 -2.683901 -2.12132 -2.12132 
C -2.683901 -1.55874 -3 -0.795609 -3 0 
C -3 0.795609 -2.683901 1.55874 -2.12132 2.12132 
C -1.55874 2.683901 -0.795609 3 0 3 
z
" style="stroke: #1f77b4"/>
    </defs>
    <g clip-path="url(#p0d86409dde)">
     <use xlink:href="#mab1a9f518f" x="73.832727" y="295.488" style="fill: #1f77b4; stroke: #1f77b4"/>
     <use xlink:href="#mab1a9f518f" x="75.456" y="295.480716" style="fill: #1f77b4; stroke: #1f77b4"/>
     <use xlink:href="#mab1a9f518f" x="77.079273" y="295.462731" style="fill: #1f77b4; stroke: #1f77b4"/>
     <use xlink:href="#mab1a9f518f" x="78.702545" y="295.433775" style="fill: #1f77b4; stroke: #1f77b4"/>
     <use xlink:href="#mab1a9f518f" x="80.325818" y="295.393785" style="fill: #1f77b4; stroke: #1f77b4"/>
     <use xlink:href="#mab1a9f518f" x="81.949091" y="295.342737" style="fill: #1f77b4; stroke: #1f77b4"/>
     <use xlink:href="#mab1a9f518f" x="83.572364" y="295.280618" style="fill: #1f77b4; stroke: #1f77b4"/>
     <use xlink:href="#mab1a9f518f" x="85.195636" y="295.207418" style="fill: #1f77b4; stroke: #1f77b4"/>
     <use xlink:href="#mab1a9f518f" x="86.818909" y="295.123132" style="fill: #1f77b4; stroke: #1f77b4"/>
     <use xlink:href="#mab1a9f518f" x="88.442182" y="295.027754" style="fill: #1f77b4; stroke: #1f77b4"/>
     <use xlink:href="#mab1a9f518f" x="90.065455" y="294.921277" style="fill: #1f77b4; stroke: #1f77b4"/>
     <use xlink:href="#mab1a9f518f" x="91.688727" y="294.803696" style="fill: #1f77b4; stroke: #1f77b4"/>
     <use xlink:href="#mab1a9f518f" x="93.312" y="294.675005" style="fill: #1f77b4; stroke: #1f77b4"/>
     <use xlink:href="#mab1a9f518f" x="94.935273" y="294.535197" style="fill: #1f77b4; stroke: #1f77b4"/>
     <use xlink:href="#mab1a9f518f" x="96.558545" y="294.384266" style="fill: #1f77b4; stroke: #1f77b4"/>
     <use xlink:href="#mab1a9f518f" x="98.181818" y="294.222204" style="fill: #1f77b4; stroke: #1f77b4"/>
     <use xlink:href="#mab1a9f518f" x="99.805091" y="294.049003" style="fill: #1f77b4; stroke: #1f77b4"/>
     <use xlink:href="#mab1a9f518f" x="101.428364" y="293.864657" style="fill: #1f77b4; stroke: #1f77b4"/>
     <use xlink:href="#mab1a9f518f" x="103.051636" y="293.669155" style="fill: #1f77b4; stroke: #1f77b4"/>
     <use xlink:href="#mab1a9f518f" x="104.674909" y="293.462489" style="fill: #1f77b4; stroke: #1f77b4"/>
     <use xlink:href="#mab1a9f518f" x="106.298182" y="293.24465" style="fill: #1f77b4; stroke: #1f77b4"/>
     <use xlink:href="#mab1a9f518f" x="107.921455" y="293.015627" style="fill: #1f77b4; stroke: #1f77b4"/>
     <use xlink:href="#mab1a9f518f" x="109.544727" y="292.77541" style="fill: #1f77b4; stroke: #1f77b4"/>
     <use xlink:href="#mab1a9f518f" x="111.168" y="292.523987" style="fill: #1f77b4; stroke: #1f77b4"/>
     <use xlink:href="#mab1a9f518f" x="112.791273" y="292.261348" style="fill: #1f77b4; stroke: #1f77b4"/>
     <use xlink:href="#mab1a9f518f" x="114.414545" y="291.987481" style="fill: #1f77b4; stroke: #1f77b4"/>
     <use xlink:href="#mab1a9f518f" x="116.037818" y="291.702373" style="fill: #1f77b4; stroke: #1f77b4"/>
     <use xlink:href="#mab1a9f518f" x="117.661091" y="291.406011" style="fill: #1f77b4; stroke: #1f77b4"/>
     <use xlink:href="#mab1a9f518f" x="119.284364" y="291.098382" style="fill: #1f77b4; stroke: #1f77b4"/>
     <use xlink:href="#mab1a9f518f" x="120.907636" y="290.779473" style="fill: #1f77b4; stroke: #1f77b4"/>
     <use xlink:href="#mab1a9f518f" x="122.530909" y="290.449269" style="fill: #1f77b4; stroke: #1f77b4"/>
     <use xlink:href="#mab1a9f518f" x="124.154182" y="290.107756" style="fill: #1f77b4; stroke: #1f77b4"/>
     <use xlink:href="#mab1a9f518f" x="125.777455" y="289.754919" style="fill: #1f77b4; stroke: #1f77b4"/>
     <use xlink:href="#mab1a9f518f" x="127.400727" y="289.390742" style="fill: #1f77b4; stroke: #1f77b4"/>
     <use xlink:href="#mab1a9f518f" x="129.024" y="289.01521" style="fill: #1f77b4; stroke: #1f77b4"/>
     <use xlink:href="#mab1a9f518f" x="130.647273" y="288.628307" style="fill: #1f77b4; stroke: #1f77b4"/>
     <use xlink:href="#mab1a9f518f" x="132.270545" y="288.230015" style="fill: #1f77b4; stroke: #1f77b4"/>
     <use xlink:href="#mab1a9f518f" x="133.893818" y="287.820319" style="fill: #1f77b4; stroke: #1f77b4"/>
     <use xlink:href="#mab1a9f518f" x="135.517091" y="287.399201" style="fill: #1f77b4; stroke: #1f77b4"/>
     <use xlink:href="#mab1a9f518f" x="137.140364" y="286.966643" style="fill: #1f77b4; stroke: #1f77b4"/>
     <use xlink:href="#mab1a9f518f" x="138.763636" y="286.522627" style="fill: #1f77b4; stroke: #1f77b4"/>
     <use xlink:href="#mab1a9f518f" x="140.386909" y="286.067135" style="fill: #1f77b4; stroke: #1f77b4"/>
     <use xlink:href="#mab1a9f518f" x="142.010182" y="285.600148" style="fill: #1f77b4; stroke: #1f77b4"/>
     <use xlink:href="#mab1a9f518f" x="143.633455" y="285.121648" style="fill: #1f77b4; stroke: #1f77b4"/>
     <use xlink:href="#mab1a9f518f" x="145.256727" y="284.631614" style="fill: #1f77b4; stroke: #1f77b4"/>
     <use xlink:href="#mab1a9f518f" x="146.88" y="284.130028" style="fill: #1f77b4; stroke: #1f77b4"/>
     <use xlink:href="#mab1a9f518f" x="148.503273" y="283.61687" style="fill: #1f77b4; stroke: #1f77b4"/>
     <use xlink:href="#mab1a9f518f" x="150.126545" y="283.092118" style="fill: #1f77b4; stroke: #1f77b4"/>
     <use xlink:href="#mab1a9f518f" x="151.749818" y="282.555754" style="fill: #1f77b4; stroke: #1f77b4"/>
     <use xlink:href="#mab1a9f518f" x="153.373091" y="282.007756" style="fill: #1f77b4; stroke: #1f77b4"/>
     <use xlink:href="#mab1a9f518f" x="154.996364" y="281.448104" style="fill: #1f77b4; stroke: #1f77b4"/>
     <use xlink:href="#mab1a9f518f" x="156.619636" y="280.876775" style="fill: #1f77b4; stroke: #1f77b4"/>
     <use xlink:href="#mab1a9f518f" x="158.242909" y="280.29375" style="fill: #1f77b4; stroke: #1f77b4"/>
     <use xlink:href="#mab1a9f518f" x="159.866182" y="279.699005" style="fill: #1f77b4; stroke: #1f77b4"/>
     <use xlink:href="#mab1a9f518f" x="161.489455" y="279.092519" style="fill: #1f77b4; stroke: #1f77b4"/>
     <use xlink:href="#mab1a9f518f" x="163.112727" y="278.474271" style="fill: #1f77b4; stroke: #1f77b4"/>
     <use xlink:href="#mab1a9f518f" x="164.736" y="277.844237" style="fill: #1f77b4; stroke: #1f77b4"/>
     <use xlink:href="#mab1a9f518f" x="166.359273" y="277.202396" style="fill: #1f77b4; stroke: #1f77b4"/>
     <use xlink:href="#mab1a9f518f" x="167.982545" y="276.548724" style="fill: #1f77b4; stroke: #1f77b4"/>
     <use xlink:href="#mab1a9f518f" x="169.605818" y="275.8832" style="fill: #1f77b4; stroke: #1f77b4"/>
     <use xlink:href="#mab1a9f518f" x="171.229091" y="275.205799" style="fill: #1f77b4; stroke: #1f77b4"/>
     <use xlink:href="#mab1a9f518f" x="172.852364" y="274.5165" style="fill: #1f77b4; stroke: #1f77b4"/>
     <use xlink:href="#mab1a9f518f" x="174.475636" y="273.815278" style="fill: #1f77b4; stroke: #1f77b4"/>
     <use xlink:href="#mab1a9f518f" x="176.098909" y="273.102111" style="fill: #1f77b4; stroke: #1f77b4"/>
     <use xlink:href="#mab1a9f518f" x="177.722182" y="272.376974" style="fill: #1f77b4; stroke: #1f77b4"/>
     <use xlink:href="#mab1a9f518f" x="179.345455" y="271.639845" style="fill: #1f77b4; stroke: #1f77b4"/>
     <use xlink:href="#mab1a9f518f" x="180.968727" y="270.8907" style="fill: #1f77b4; stroke: #1f77b4"/>
     <use xlink:href="#mab1a9f518f" x="182.592" y="270.129514" style="fill: #1f77b4; stroke: #1f77b4"/>
     <use xlink:href="#mab1a9f518f" x="184.215273" y="269.356265" style="fill: #1f77b4; stroke: #1f77b4"/>
     <use xlink:href="#mab1a9f518f" x="185.838545" y="268.570928" style="fill: #1f77b4; stroke: #1f77b4"/>
     <use xlink:href="#mab1a9f518f" x="187.461818" y="267.773479" style="fill: #1f77b4; stroke: #1f77b4"/>
     <use xlink:href="#mab1a9f518f" x="189.085091" y="266.963894" style="fill: #1f77b4; stroke: #1f77b4"/>
     <use xlink:href="#mab1a9f518f" x="190.708364" y="266.14215" style="fill: #1f77b4; stroke: #1f77b4"/>
     <use xlink:href="#mab1a9f518f" x="192.331636" y="265.308221" style="fill: #1f77b4; stroke: #1f77b4"/>
     <use xlink:href="#mab1a9f518f" x="193.954909" y="264.462084" style="fill: #1f77b4; stroke: #1f77b4"/>
     <use xlink:href="#mab1a9f518f" x="195.578182" y="263.603716" style="fill: #1f77b4; stroke: #1f77b4"/>
     <use xlink:href="#mab1a9f518f" x="197.201455" y="262.73309" style="fill: #1f77b4; stroke: #1f77b4"/>
     <use xlink:href="#mab1a9f518f" x="198.824727" y="261.850185" style="fill: #1f77b4; stroke: #1f77b4"/>
     <use xlink:href="#mab1a9f518f" x="200.448" y="260.954975" style="fill: #1f77b4; stroke: #1f77b4"/>
     <use xlink:href="#mab1a9f518f" x="202.071273" y="260.047436" style="fill: #1f77b4; stroke: #1f77b4"/>
     <use xlink:href="#mab1a9f518f" x="203.694545" y="259.127544" style="fill: #1f77b4; stroke: #1f77b4"/>
     <use xlink:href="#mab1a9f518f" x="205.317818" y="258.195276" style="fill: #1f77b4; stroke: #1f77b4"/>
     <use xlink:href="#mab1a9f518f" x="206.941091" y="257.250606" style="fill: #1f77b4; stroke: #1f77b4"/>
     <use xlink:href="#mab1a9f518f" x="208.564364" y="256.293512" style="fill: #1f77b4; stroke: #1f77b4"/>
     <use xlink:href="#mab1a9f518f" x="210.187636" y="255.32397" style="fill: #1f77b4; stroke: #1f77b4"/>
     <use xlink:href="#mab1a9f518f" x="211.810909" y="254.341955" style="fill: #1f77b4; stroke: #1f77b4"/>
     <use xlink:href="#mab1a9f518f" x="213.434182" y="253.347444" style="fill: #1f77b4; stroke: #1f77b4"/>
     <use xlink:href="#mab1a9f518f" x="215.057455" y="252.340413" style="fill: #1f77b4; stroke: #1f77b4"/>
     <use xlink:href="#mab1a9f518f" x="216.680727" y="251.320838" style="fill: #1f77b4; stroke: #1f77b4"/>
     <use xlink:href="#mab1a9f518f" x="218.304" y="250.288697" style="fill: #1f77b4; stroke: #1f77b4"/>
     <use xlink:href="#mab1a9f518f" x="219.927273" y="249.243966" style="fill: #1f77b4; stroke: #1f77b4"/>
     <use xlink:href="#mab1a9f518f" x="221.550545" y="248.186621" style="fill: #1f77b4; stroke: #1f77b4"/>
     <use xlink:href="#mab1a9f518f" x="223.173818" y="247.116639" style="fill: #1f77b4; stroke: #1f77b4"/>
     <use xlink:href="#mab1a9f518f" x="224.797091" y="246.033998" style="fill: #1f77b4; stroke: #1f77b4"/>
     <use xlink:href="#mab1a9f518f" x="226.420364" y="244.938675" style="fill: #1f77b4; stroke: #1f77b4"/>
     <use xlink:href="#mab1a9f518f" x="228.043636" y="243.830646" style="fill: #1f77b4; stroke: #1f77b4"/>
     <use xlink:href="#mab1a9f518f" x="229.666909" y="242.70989" style="fill: #1f77b4; stroke: #1f77b4"/>
     <use xlink:href="#mab1a9f518f" x="231.290182" y="241.576383" style="fill: #1f77b4; stroke: #1f77b4"/>
     <use xlink:href="#mab1a9f518f" x="232.913455" y="240.430104" style="fill: #1f77b4; stroke: #1f77b4"/>
     <use xlink:href="#mab1a9f518f" x="234.536727" y="239.271031" style="fill: #1f77b4; stroke: #1f77b4"/>
     <use xlink:href="#mab1a9f518f" x="236.16" y="238.099141" style="fill: #1f77b4; stroke: #1f77b4"/>
     <use xlink:href="#mab1a9f518f" x="237.783273" y="236.914413" style="fill: #1f77b4; stroke: #1f77b4"/>
     <use xlink:href="#mab1a9f518f" x="239.406545" y="235.716825" style="fill: #1f77b4; stroke: #1f77b4"/>
     <use xlink:href="#mab1a9f518f" x="241.029818" y="234.506356" style="fill: #1f77b4; stroke: #1f77b4"/>
     <use xlink:href="#mab1a9f518f" x="242.653091" y="233.282984" style="fill: #1f77b4; stroke: #1f77b4"/>
     <use xlink:href="#mab1a9f518f" x="244.276364" y="232.04669" style="fill: #1f77b4; stroke: #1f77b4"/>
     <use xlink:href="#mab1a9f518f" x="245.899636" y="230.797451" style="fill: #1f77b4; stroke: #1f77b4"/>
     <use xlink:href="#mab1a9f518f" x="247.522909" y="229.535248" style="fill: #1f77b4; stroke: #1f77b4"/>
     <use xlink:href="#mab1a9f518f" x="249.146182" y="228.26006" style="fill: #1f77b4; stroke: #1f77b4"/>
     <use xlink:href="#mab1a9f518f" x="250.769455" y="226.971867" style="fill: #1f77b4; stroke: #1f77b4"/>
     <use xlink:href="#mab1a9f518f" x="252.392727" y="225.670649" style="fill: #1f77b4; stroke: #1f77b4"/>
     <use xlink:href="#mab1a9f518f" x="254.016" y="224.356387" style="fill: #1f77b4; stroke: #1f77b4"/>
     <use xlink:href="#mab1a9f518f" x="255.639273" y="223.02906" style="fill: #1f77b4; stroke: #1f77b4"/>
     <use xlink:href="#mab1a9f518f" x="257.262545" y="221.688651" style="fill: #1f77b4; stroke: #1f77b4"/>
     <use xlink:href="#mab1a9f518f" x="258.885818" y="220.335139" style="fill: #1f77b4; stroke: #1f77b4"/>
     <use xlink:href="#mab1a9f518f" x="260.509091" y="218.968507" style="fill: #1f77b4; stroke: #1f77b4"/>
     <use xlink:href="#mab1a9f518f" x="262.132364" y="217.588736" style="fill: #1f77b4; stroke: #1f77b4"/>
     <use xlink:href="#mab1a9f518f" x="263.755636" y="216.195807" style="fill: #1f77b4; stroke: #1f77b4"/>
     <use xlink:href="#mab1a9f518f" x="265.378909" y="214.789703" style="fill: #1f77b4; stroke: #1f77b4"/>
     <use xlink:href="#mab1a9f518f" x="267.002182" y="213.370406" style="fill: #1f77b4; stroke: #1f77b4"/>
     <use xlink:href="#mab1a9f518f" x="268.625455" y="211.9379" style="fill: #1f77b4; stroke: #1f77b4"/>
     <use xlink:href="#mab1a9f518f" x="270.248727" y="210.492166" style="fill: #1f77b4; stroke: #1f77b4"/>
     <use xlink:href="#mab1a9f518f" x="271.872" y="209.033188" style="fill: #1f77b4; stroke: #1f77b4"/>
     <use xlink:href="#mab1a9f518f" x="273.495273" y="207.560949" style="fill: #1f77b4; stroke: #1f77b4"/>
     <use xlink:href="#mab1a9f518f" x="275.118545" y="206.075434" style="fill: #1f77b4; stroke: #1f77b4"/>
     <use xlink:href="#mab1a9f518f" x="276.741818" y="204.576626" style="fill: #1f77b4; stroke: #1f77b4"/>
     <use xlink:href="#mab1a9f518f" x="278.365091" y="203.06451" style="fill: #1f77b4; stroke: #1f77b4"/>
     <use xlink:href="#mab1a9f518f" x="279.988364" y="201.53907" style="fill: #1f77b4; stroke: #1f77b4"/>
     <use xlink:href="#mab1a9f518f" x="281.611636" y="200.000291" style="fill: #1f77b4; stroke: #1f77b4"/>
     <use xlink:href="#mab1a9f518f" x="283.234909" y="198.448159" style="fill: #1f77b4; stroke: #1f77b4"/>
     <use xlink:href="#mab1a9f518f" x="284.858182" y="196.882659" style="fill: #1f77b4; stroke: #1f77b4"/>
     <use xlink:href="#mab1a9f518f" x="286.481455" y="195.303777" style="fill: #1f77b4; stroke: #1f77b4"/>
     <use xlink:href="#mab1a9f518f" x="288.104727" y="193.711498" style="fill: #1f77b4; stroke: #1f77b4"/>
     <use xlink:href="#mab1a9f518f" x="289.728" y="192.105811" style="fill: #1f77b4; stroke: #1f77b4"/>
     <use xlink:href="#mab1a9f518f" x="291.351273" y="190.4867" style="fill: #1f77b4; stroke: #1f77b4"/>
     <use xlink:href="#mab1a9f518f" x="292.974545" y="188.854154" style="fill: #1f77b4; stroke: #1f77b4"/>
     <use xlink:href="#mab1a9f518f" x="294.597818" y="187.20816" style="fill: #1f77b4; stroke: #1f77b4"/>
     <use xlink:href="#mab1a9f518f" x="296.221091" y="185.548706" style="fill: #1f77b4; stroke: #1f77b4"/>
     <use xlink:href="#mab1a9f518f" x="297.844364" y="183.875779" style="fill: #1f77b4; stroke: #1f77b4"/>
     <use xlink:href="#mab1a9f518f" x="299.467636" y="182.189368" style="fill: #1f77b4; stroke: #1f77b4"/>
     <use xlink:href="#mab1a9f518f" x="301.090909" y="180.489462" style="fill: #1f77b4; stroke: #1f77b4"/>
     <use xlink:href="#mab1a9f518f" x="302.714182" y="178.776049" style="fill: #1f77b4; stroke: #1f77b4"/>
     <use xlink:href="#mab1a9f518f" x="304.337455" y="177.04912" style="fill: #1f77b4; stroke: #1f77b4"/>
     <use xlink:href="#mab1a9f518f" x="305.960727" y="175.308663" style="fill: #1f77b4; stroke: #1f77b4"/>
     <use xlink:href="#mab1a9f518f" x="307.584" y="173.55467" style="fill: #1f77b4; stroke: #1f77b4"/>
     <use xlink:href="#mab1a9f518f" x="309.207273" y="171.787129" style="fill: #1f77b4; stroke: #1f77b4"/>
     <use xlink:href="#mab1a9f518f" x="310.830545" y="170.006032" style="fill: #1f77b4; stroke: #1f77b4"/>
     <use xlink:href="#mab1a9f518f" x="312.453818" y="168.21137" style="fill: #1f77b4; stroke: #1f77b4"/>
     <use xlink:href="#mab1a9f518f" x="314.077091" y="166.403135" style="fill: #1f77b4; stroke: #1f77b4"/>
     <use xlink:href="#mab1a9f518f" x="315.700364" y="164.581317" style="fill: #1f77b4; stroke: #1f77b4"/>
     <use xlink:href="#mab1a9f518f" x="317.323636" y="162.745908" style="fill: #1f77b4; stroke: #1f77b4"/>
     <use xlink:href="#mab1a9f518f" x="318.946909" y="160.896902" style="fill: #1f77b4; stroke: #1f77b4"/>
     <use xlink:href="#mab1a9f518f" x="320.570182" y="159.034291" style="fill: #1f77b4; stroke: #1f77b4"/>
     <use xlink:href="#mab1a9f518f" x="322.193455" y="157.158068" style="fill: #1f77b4; stroke: #1f77b4"/>
     <use xlink:href="#mab1a9f518f" x="323.816727" y="155.268226" style="fill: #1f77b4; stroke: #1f77b4"/>
     <use xlink:href="#mab1a9f518f" x="325.44" y="153.364759" style="fill: #1f77b4; stroke: #1f77b4"/>
     <use xlink:href="#mab1a9f518f" x="327.063273" y="151.447661" style="fill: #1f77b4; stroke: #1f77b4"/>
     <use xlink:href="#mab1a9f518f" x="328.686545" y="149.516926" style="fill: #1f77b4; stroke: #1f77b4"/>
     <use xlink:href="#mab1a9f518f" x="330.309818" y="147.572549" style="fill: #1f77b4; stroke: #1f77b4"/>
     <use xlink:href="#mab1a9f518f" x="331.933091" y="145.614525" style="fill: #1f77b4; stroke: #1f77b4"/>
     <use xlink:href="#mab1a9f518f" x="333.556364" y="143.642849" style="fill: #1f77b4; stroke: #1f77b4"/>
     <use xlink:href="#mab1a9f518f" x="335.179636" y="141.657517" style="fill: #1f77b4; stroke: #1f77b4"/>
     <use xlink:href="#mab1a9f518f" x="336.802909" y="139.658525" style="fill: #1f77b4; stroke: #1f77b4"/>
     <use xlink:href="#mab1a9f518f" x="338.426182" y="137.64587" style="fill: #1f77b4; stroke: #1f77b4"/>
     <use xlink:href="#mab1a9f518f" x="340.049455" y="135.619547" style="fill: #1f77b4; stroke: #1f77b4"/>
     <use xlink:href="#mab1a9f518f" x="341.672727" y="133.579555" style="fill: #1f77b4; stroke: #1f77b4"/>
     <use xlink:href="#mab1a9f518f" x="343.296" y="131.52589" style="fill: #1f77b4; stroke: #1f77b4"/>
     <use xlink:href="#mab1a9f518f" x="344.919273" y="129.45855" style="fill: #1f77b4; stroke: #1f77b4"/>
     <use xlink:href="#mab1a9f518f" x="346.542545" y="127.377533" style="fill: #1f77b4; stroke: #1f77b4"/>
     <use xlink:href="#mab1a9f518f" x="348.165818" y="125.282837" style="fill: #1f77b4; stroke: #1f77b4"/>
     <use xlink:href="#mab1a9f518f" x="349.789091" y="123.174462" style="fill: #1f77b4; stroke: #1f77b4"/>
     <use xlink:href="#mab1a9f518f" x="351.412364" y="121.052405" style="fill: #1f77b4; stroke: #1f77b4"/>
     <use xlink:href="#mab1a9f518f" x="353.035636" y="118.916667" style="fill: #1f77b4; stroke: #1f77b4"/>
     <use xlink:href="#mab1a9f518f" x="354.658909" y="116.767246" style="fill: #1f77b4; stroke: #1f77b4"/>
     <use xlink:href="#mab1a9f518f" x="356.282182" y="114.604143" style="fill: #1f77b4; stroke: #1f77b4"/>
     <use xlink:href="#mab1a9f518f" x="357.905455" y="112.427358" style="fill: #1f77b4; stroke: #1f77b4"/>
     <use xlink:href="#mab1a9f518f" x="359.528727" y="110.236892" style="fill: #1f77b4; stroke: #1f77b4"/>
     <use xlink:href="#mab1a9f518f" x="361.152" y="108.032745" style="fill: #1f77b4; stroke: #1f77b4"/>
     <use xlink:href="#mab1a9f518f" x="362.775273" y="105.814919" style="fill: #1f77b4; stroke: #1f77b4"/>
     <use xlink:href="#mab1a9f518f" x="364.398545" y="103.583415" style="fill: #1f77b4; stroke: #1f77b4"/>
     <use xlink:href="#mab1a9f518f" x="366.021818" y="101.338235" style="fill: #1f77b4; stroke: #1f77b4"/>
     <use xlink:href="#mab1a9f518f" x="367.645091" y="99.07938" style="fill: #1f77b4; stroke: #1f77b4"/>
     <use xlink:href="#mab1a9f518f" x="369.268364" y="96.806854" style="fill: #1f77b4; stroke: #1f77b4"/>
     <use xlink:href="#mab1a9f518f" x="370.891636" y="94.520659" style="fill: #1f77b4; stroke: #1f77b4"/>
     <use xlink:href="#mab1a9f518f" x="372.514909" y="92.220798" style="fill: #1f77b4; stroke: #1f77b4"/>
     <use xlink:href="#mab1a9f518f" x="374.138182" y="89.907275" style="fill: #1f77b4; stroke: #1f77b4"/>
     <use xlink:href="#mab1a9f518f" x="375.761455" y="87.580092" style="fill: #1f77b4; stroke: #1f77b4"/>
     <use xlink:href="#mab1a9f518f" x="377.384727" y="85.239254" style="fill: #1f77b4; stroke: #1f77b4"/>
     <use xlink:href="#mab1a9f518f" x="379.008" y="82.884765" style="fill: #1f77b4; stroke: #1f77b4"/>
     <use xlink:href="#mab1a9f518f" x="380.631273" y="80.516629" style="fill: #1f77b4; stroke: #1f77b4"/>
     <use xlink:href="#mab1a9f518f" x="382.254545" y="78.134852" style="fill: #1f77b4; stroke: #1f77b4"/>
     <use xlink:href="#mab1a9f518f" x="383.877818" y="75.739437" style="fill: #1f77b4; stroke: #1f77b4"/>
     <use xlink:href="#mab1a9f518f" x="385.501091" y="73.330391" style="fill: #1f77b4; stroke: #1f77b4"/>
     <use xlink:href="#mab1a9f518f" x="387.124364" y="70.907719" style="fill: #1f77b4; stroke: #1f77b4"/>
     <use xlink:href="#mab1a9f518f" x="388.747636" y="68.471426" style="fill: #1f77b4; stroke: #1f77b4"/>
     <use xlink:href="#mab1a9f518f" x="390.370909" y="66.021519" style="fill: #1f77b4; stroke: #1f77b4"/>
     <use xlink:href="#mab1a9f518f" x="391.994182" y="63.558004" style="fill: #1f77b4; stroke: #1f77b4"/>
     <use xlink:href="#mab1a9f518f" x="393.617455" y="61.080887" style="fill: #1f77b4; stroke: #1f77b4"/>
     <use xlink:href="#mab1a9f518f" x="395.240727" y="58.590177" style="fill: #1f77b4; stroke: #1f77b4"/>
     <use xlink:href="#mab1a9f518f" x="396.864" y="56.085878" style="fill: #1f77b4; stroke: #1f77b4"/>
     <use xlink:href="#mab1a9f518f" x="398.487273" y="53.568" style="fill: #1f77b4; stroke: #1f77b4"/>
    </g>
   </g>
   <g id="patch_3">
    <path d="M 57.6 307.584 
L 57.6 41.472 
" style="fill: none; stroke: #000000; stroke-width: 0.8; stroke-linejoin: miter; stroke-linecap: square"/>
   </g>
   <g id="patch_4">
    <path d="M 414.72 307.584 
L 414.72 41.472 
" style="fill: none; stroke: #000000; stroke-width: 0.8; stroke-linejoin: miter; stroke-linecap: square"/>
   </g>
   <g id="patch_5">
    <path d="M 57.6 307.584 
L 414.72 307.584 
" style="fill: none; stroke: #000000; stroke-width: 0.8; stroke-linejoin: miter; stroke-linecap: square"/>
   </g>
   <g id="patch_6">
    <path d="M 57.6 41.472 
L 414.72 41.472 
" style="fill: none; stroke: #000000; stroke-width: 0.8; stroke-linejoin: miter; stroke-linecap: square"/>
   </g>
  </g>
 </g>
 <defs>
  <clipPath id="p0d86409dde">
   <rect x="57.6" y="41.472" width="357.12" height="266.112"/>
  </clipPath>
 </defs>
</svg>
