<?xml version="1.0" encoding="utf-8" standalone="no"?>
<!DOCTYPE svg PUBLIC "-//W3C//DTD SVG 1.1//EN"
  "http://www.w3.org/Graphics/SVG/1.1/DTD/svg11.dtd">
<svg xmlns:xlink="http://www.w3.org/1999/xlink" width="460.8pt" height="345.6pt" viewBox="0 0 460.8 345.6" xmlns="http://www.w3.org/2000/svg" version="1.1">
 <metadata>
  <rdf:RDF xmlns:dc="http://purl.org/dc/elements/1.1/" xmlns:cc="http://creativecommons.org/ns#" xmlns:rdf="http://www.w3.org/1999/02/22-rdf-syntax-ns#">
   <cc:Work>
    <dc:type rdf:resource="http://purl.org/dc/dcmitype/StillImage"/>
    <dc:date>2022-01-02T13:06:58.331052</dc:date>
    <dc:format>image/svg+xml</dc:format>
    <dc:creator>
     <cc:Agent>
      <dc:title>Matplotlib v3.5.0, https://matplotlib.org/</dc:title>
     </cc:Agent>
    </dc:creator>
   </cc:Work>
  </rdf:RDF>
 </metadata>
 <defs>
  <style type="text/css">*{stroke-linejoin: round; stroke-linecap: butt}</style>
 </defs>
 <g id="figure_1">
  <g id="patch_1">
   <path d="M 0 345.6 
L 460.8 345.6 
L 460.8 0 
L 0 0 
z
" style="fill: #ffffff"/>
  </g>
  <g id="axes_1">
   <g id="patch_2">
    <path d="M 57.6 307.584 
L 414.72 307.584 
L 414.72 41.472 
L 57.6 41.472 
z
" style="fill: #ffffff"/>
   </g>
   <g id="matplotlib.axis_1">
    <g id="xtick_1">
     <g id="line2d_1">
      <defs>
       <path id="mfffd30a9f4" d="M 0 0 
L 0 3.5 
" style="stroke: #000000; stroke-width: 0.8"/>
      </defs>
      <g>
       <use xlink:href="#mfffd30a9f4" x="73.832727" y="307.584" style="stroke: #000000; stroke-width: 0.8"/>
      </g>
     </g>
     <g id="text_1">
      <!-- 0.0 -->
      <g transform="translate(65.881165 322.182437)scale(0.1 -0.1)">
       <defs>
        <path id="DejaVuSans-30" d="M 2034 4250 
Q 1547 4250 1301 3770 
Q 1056 3291 1056 2328 
Q 1056 1369 1301 889 
Q 1547 409 2034 409 
Q 2525 409 2770 889 
Q 3016 1369 3016 2328 
Q 3016 3291 2770 3770 
Q 2525 4250 2034 4250 
z
M 2034 4750 
Q 2819 4750 3233 4129 
Q 3647 3509 3647 2328 
Q 3647 1150 3233 529 
Q 2819 -91 2034 -91 
Q 1250 -91 836 529 
Q 422 1150 422 2328 
Q 422 3509 836 4129 
Q 1250 4750 2034 4750 
z
" transform="scale(0.015625)"/>
        <path id="DejaVuSans-2e" d="M 684 794 
L 1344 794 
L 1344 0 
L 684 0 
L 684 794 
z
" transform="scale(0.015625)"/>
       </defs>
       <use xlink:href="#DejaVuSans-30"/>
       <use xlink:href="#DejaVuSans-2e" x="63.623047"/>
       <use xlink:href="#DejaVuSans-30" x="95.410156"/>
      </g>
     </g>
    </g>
    <g id="xtick_2">
     <g id="line2d_2">
      <g>
       <use xlink:href="#mfffd30a9f4" x="138.763636" y="307.584" style="stroke: #000000; stroke-width: 0.8"/>
      </g>
     </g>
     <g id="text_2">
      <!-- 0.2 -->
      <g transform="translate(130.812074 322.182437)scale(0.1 -0.1)">
       <defs>
        <path id="DejaVuSans-32" d="M 1228 531 
L 3431 531 
L 3431 0 
L 469 0 
L 469 531 
Q 828 903 1448 1529 
Q 2069 2156 2228 2338 
Q 2531 2678 2651 2914 
Q 2772 3150 2772 3378 
Q 2772 3750 2511 3984 
Q 2250 4219 1831 4219 
Q 1534 4219 1204 4116 
Q 875 4013 500 3803 
L 500 4441 
Q 881 4594 1212 4672 
Q 1544 4750 1819 4750 
Q 2544 4750 2975 4387 
Q 3406 4025 3406 3419 
Q 3406 3131 3298 2873 
Q 3191 2616 2906 2266 
Q 2828 2175 2409 1742 
Q 1991 1309 1228 531 
z
" transform="scale(0.015625)"/>
       </defs>
       <use xlink:href="#DejaVuSans-30"/>
       <use xlink:href="#DejaVuSans-2e" x="63.623047"/>
       <use xlink:href="#DejaVuSans-32" x="95.410156"/>
      </g>
     </g>
    </g>
    <g id="xtick_3">
     <g id="line2d_3">
      <g>
       <use xlink:href="#mfffd30a9f4" x="203.694545" y="307.584" style="stroke: #000000; stroke-width: 0.8"/>
      </g>
     </g>
     <g id="text_3">
      <!-- 0.4 -->
      <g transform="translate(195.742983 322.182437)scale(0.1 -0.1)">
       <defs>
        <path id="DejaVuSans-34" d="M 2419 4116 
L 825 1625 
L 2419 1625 
L 2419 4116 
z
M 2253 4666 
L 3047 4666 
L 3047 1625 
L 3713 1625 
L 3713 1100 
L 3047 1100 
L 3047 0 
L 2419 0 
L 2419 1100 
L 313 1100 
L 313 1709 
L 2253 4666 
z
" transform="scale(0.015625)"/>
       </defs>
       <use xlink:href="#DejaVuSans-30"/>
       <use xlink:href="#DejaVuSans-2e" x="63.623047"/>
       <use xlink:href="#DejaVuSans-34" x="95.410156"/>
      </g>
     </g>
    </g>
    <g id="xtick_4">
     <g id="line2d_4">
      <g>
       <use xlink:href="#mfffd30a9f4" x="268.625455" y="307.584" style="stroke: #000000; stroke-width: 0.8"/>
      </g>
     </g>
     <g id="text_4">
      <!-- 0.6 -->
      <g transform="translate(260.673892 322.182437)scale(0.1 -0.1)">
       <defs>
        <path id="DejaVuSans-36" d="M 2113 2584 
Q 1688 2584 1439 2293 
Q 1191 2003 1191 1497 
Q 1191 994 1439 701 
Q 1688 409 2113 409 
Q 2538 409 2786 701 
Q 3034 994 3034 1497 
Q 3034 2003 2786 2293 
Q 2538 2584 2113 2584 
z
M 3366 4563 
L 3366 3988 
Q 3128 4100 2886 4159 
Q 2644 4219 2406 4219 
Q 1781 4219 1451 3797 
Q 1122 3375 1075 2522 
Q 1259 2794 1537 2939 
Q 1816 3084 2150 3084 
Q 2853 3084 3261 2657 
Q 3669 2231 3669 1497 
Q 3669 778 3244 343 
Q 2819 -91 2113 -91 
Q 1303 -91 875 529 
Q 447 1150 447 2328 
Q 447 3434 972 4092 
Q 1497 4750 2381 4750 
Q 2619 4750 2861 4703 
Q 3103 4656 3366 4563 
z
" transform="scale(0.015625)"/>
       </defs>
       <use xlink:href="#DejaVuSans-30"/>
       <use xlink:href="#DejaVuSans-2e" x="63.623047"/>
       <use xlink:href="#DejaVuSans-36" x="95.410156"/>
      </g>
     </g>
    </g>
    <g id="xtick_5">
     <g id="line2d_5">
      <g>
       <use xlink:href="#mfffd30a9f4" x="333.556364" y="307.584" style="stroke: #000000; stroke-width: 0.8"/>
      </g>
     </g>
     <g id="text_5">
      <!-- 0.8 -->
      <g transform="translate(325.604801 322.182437)scale(0.1 -0.1)">
       <defs>
        <path id="DejaVuSans-38" d="M 2034 2216 
Q 1584 2216 1326 1975 
Q 1069 1734 1069 1313 
Q 1069 891 1326 650 
Q 1584 409 2034 409 
Q 2484 409 2743 651 
Q 3003 894 3003 1313 
Q 3003 1734 2745 1975 
Q 2488 2216 2034 2216 
z
M 1403 2484 
Q 997 2584 770 2862 
Q 544 3141 544 3541 
Q 544 4100 942 4425 
Q 1341 4750 2034 4750 
Q 2731 4750 3128 4425 
Q 3525 4100 3525 3541 
Q 3525 3141 3298 2862 
Q 3072 2584 2669 2484 
Q 3125 2378 3379 2068 
Q 3634 1759 3634 1313 
Q 3634 634 3220 271 
Q 2806 -91 2034 -91 
Q 1263 -91 848 271 
Q 434 634 434 1313 
Q 434 1759 690 2068 
Q 947 2378 1403 2484 
z
M 1172 3481 
Q 1172 3119 1398 2916 
Q 1625 2713 2034 2713 
Q 2441 2713 2670 2916 
Q 2900 3119 2900 3481 
Q 2900 3844 2670 4047 
Q 2441 4250 2034 4250 
Q 1625 4250 1398 4047 
Q 1172 3844 1172 3481 
z
" transform="scale(0.015625)"/>
       </defs>
       <use xlink:href="#DejaVuSans-30"/>
       <use xlink:href="#DejaVuSans-2e" x="63.623047"/>
       <use xlink:href="#DejaVuSans-38" x="95.410156"/>
      </g>
     </g>
    </g>
    <g id="xtick_6">
     <g id="line2d_6">
      <g>
       <use xlink:href="#mfffd30a9f4" x="398.487273" y="307.584" style="stroke: #000000; stroke-width: 0.8"/>
      </g>
     </g>
     <g id="text_6">
      <!-- 1.0 -->
      <g transform="translate(390.53571 322.182437)scale(0.1 -0.1)">
       <defs>
        <path id="DejaVuSans-31" d="M 794 531 
L 1825 531 
L 1825 4091 
L 703 3866 
L 703 4441 
L 1819 4666 
L 2450 4666 
L 2450 531 
L 3481 531 
L 3481 0 
L 794 0 
L 794 531 
z
" transform="scale(0.015625)"/>
       </defs>
       <use xlink:href="#DejaVuSans-31"/>
       <use xlink:href="#DejaVuSans-2e" x="63.623047"/>
       <use xlink:href="#DejaVuSans-30" x="95.410156"/>
      </g>
     </g>
    </g>
   </g>
   <g id="matplotlib.axis_2">
    <g id="ytick_1">
     <g id="line2d_7">
      <defs>
       <path id="m755f041b17" d="M 0 0 
L -3.5 0 
" style="stroke: #000000; stroke-width: 0.8"/>
      </defs>
      <g>
       <use xlink:href="#m755f041b17" x="57.6" y="295.488" style="stroke: #000000; stroke-width: 0.8"/>
      </g>
     </g>
     <g id="text_7">
      <!-- 0.0 -->
      <g transform="translate(34.696875 299.287219)scale(0.1 -0.1)">
       <use xlink:href="#DejaVuSans-30"/>
       <use xlink:href="#DejaVuSans-2e" x="63.623047"/>
       <use xlink:href="#DejaVuSans-30" x="95.410156"/>
      </g>
     </g>
    </g>
    <g id="ytick_2">
     <g id="line2d_8">
      <g>
       <use xlink:href="#m755f041b17" x="57.6" y="265.139535" style="stroke: #000000; stroke-width: 0.8"/>
      </g>
     </g>
     <g id="text_8">
      <!-- 0.2 -->
      <g transform="translate(34.696875 268.938754)scale(0.1 -0.1)">
       <use xlink:href="#DejaVuSans-30"/>
       <use xlink:href="#DejaVuSans-2e" x="63.623047"/>
       <use xlink:href="#DejaVuSans-32" x="95.410156"/>
      </g>
     </g>
    </g>
    <g id="ytick_3">
     <g id="line2d_9">
      <g>
       <use xlink:href="#m755f041b17" x="57.6" y="234.79107" style="stroke: #000000; stroke-width: 0.8"/>
      </g>
     </g>
     <g id="text_9">
      <!-- 0.4 -->
      <g transform="translate(34.696875 238.590289)scale(0.1 -0.1)">
       <use xlink:href="#DejaVuSans-30"/>
       <use xlink:href="#DejaVuSans-2e" x="63.623047"/>
       <use xlink:href="#DejaVuSans-34" x="95.410156"/>
      </g>
     </g>
    </g>
    <g id="ytick_4">
     <g id="line2d_10">
      <g>
       <use xlink:href="#m755f041b17" x="57.6" y="204.442605" style="stroke: #000000; stroke-width: 0.8"/>
      </g>
     </g>
     <g id="text_10">
      <!-- 0.6 -->
      <g transform="translate(34.696875 208.241823)scale(0.1 -0.1)">
       <use xlink:href="#DejaVuSans-30"/>
       <use xlink:href="#DejaVuSans-2e" x="63.623047"/>
       <use xlink:href="#DejaVuSans-36" x="95.410156"/>
      </g>
     </g>
    </g>
    <g id="ytick_5">
     <g id="line2d_11">
      <g>
       <use xlink:href="#m755f041b17" x="57.6" y="174.09414" style="stroke: #000000; stroke-width: 0.8"/>
      </g>
     </g>
     <g id="text_11">
      <!-- 0.8 -->
      <g transform="translate(34.696875 177.893358)scale(0.1 -0.1)">
       <use xlink:href="#DejaVuSans-30"/>
       <use xlink:href="#DejaVuSans-2e" x="63.623047"/>
       <use xlink:href="#DejaVuSans-38" x="95.410156"/>
      </g>
     </g>
    </g>
    <g id="ytick_6">
     <g id="line2d_12">
      <g>
       <use xlink:href="#m755f041b17" x="57.6" y="143.745675" style="stroke: #000000; stroke-width: 0.8"/>
      </g>
     </g>
     <g id="text_12">
      <!-- 1.0 -->
      <g transform="translate(34.696875 147.544893)scale(0.1 -0.1)">
       <use xlink:href="#DejaVuSans-31"/>
       <use xlink:href="#DejaVuSans-2e" x="63.623047"/>
       <use xlink:href="#DejaVuSans-30" x="95.410156"/>
      </g>
     </g>
    </g>
    <g id="ytick_7">
     <g id="line2d_13">
      <g>
       <use xlink:href="#m755f041b17" x="57.6" y="113.397209" style="stroke: #000000; stroke-width: 0.8"/>
      </g>
     </g>
     <g id="text_13">
      <!-- 1.2 -->
      <g transform="translate(34.696875 117.196428)scale(0.1 -0.1)">
       <use xlink:href="#DejaVuSans-31"/>
       <use xlink:href="#DejaVuSans-2e" x="63.623047"/>
       <use xlink:href="#DejaVuSans-32" x="95.410156"/>
      </g>
     </g>
    </g>
    <g id="ytick_8">
     <g id="line2d_14">
      <g>
       <use xlink:href="#m755f041b17" x="57.6" y="83.048744" style="stroke: #000000; stroke-width: 0.8"/>
      </g>
     </g>
     <g id="text_14">
      <!-- 1.4 -->
      <g transform="translate(34.696875 86.847963)scale(0.1 -0.1)">
       <use xlink:href="#DejaVuSans-31"/>
       <use xlink:href="#DejaVuSans-2e" x="63.623047"/>
       <use xlink:href="#DejaVuSans-34" x="95.410156"/>
      </g>
     </g>
    </g>
    <g id="ytick_9">
     <g id="line2d_15">
      <g>
       <use xlink:href="#m755f041b17" x="57.6" y="52.700279" style="stroke: #000000; stroke-width: 0.8"/>
      </g>
     </g>
     <g id="text_15">
      <!-- 1.6 -->
      <g transform="translate(34.696875 56.499498)scale(0.1 -0.1)">
       <use xlink:href="#DejaVuSans-31"/>
       <use xlink:href="#DejaVuSans-2e" x="63.623047"/>
       <use xlink:href="#DejaVuSans-36" x="95.410156"/>
      </g>
     </g>
    </g>
   </g>
   <g id="line2d_16">
    <defs>
     <path id="m874f8de5e8" d="M 0 3 
C 0.795609 3 1.55874 2.683901 2.12132 2.12132 
C 2.683901 1.55874 3 0.795609 3 0 
C 3 -0.795609 2.683901 -1.55874 2.12132 -2.12132 
C 1.55874 -2.683901 0.795609 -3 0 -3 
C -0.795609 -3 -1.55874 -2.683901 -2.12132 -2.12132 
C -2.683901 -1.55874 -3 -0.795609 -3 0 
C -3 0.795609 -2.683901 1.55874 -2.12132 2.12132 
C -1.55874 2.683901 -0.795609 3 0 3 
z
" style="stroke: #1f77b4"/>
    </defs>
    <g clip-path="url(#pc405b6c6fc)">
     <use xlink:href="#m874f8de5e8" x="73.832727" y="295.488" style="fill: #1f77b4; stroke: #1f77b4"/>
     <use xlink:href="#m874f8de5e8" x="75.456" y="295.488" style="fill: #1f77b4; stroke: #1f77b4"/>
     <use xlink:href="#m874f8de5e8" x="77.079273" y="295.488" style="fill: #1f77b4; stroke: #1f77b4"/>
     <use xlink:href="#m874f8de5e8" x="78.702545" y="295.488" style="fill: #1f77b4; stroke: #1f77b4"/>
     <use xlink:href="#m874f8de5e8" x="80.325818" y="295.488" style="fill: #1f77b4; stroke: #1f77b4"/>
     <use xlink:href="#m874f8de5e8" x="81.949091" y="295.488" style="fill: #1f77b4; stroke: #1f77b4"/>
     <use xlink:href="#m874f8de5e8" x="83.572364" y="295.488" style="fill: #1f77b4; stroke: #1f77b4"/>
     <use xlink:href="#m874f8de5e8" x="85.195636" y="295.488" style="fill: #1f77b4; stroke: #1f77b4"/>
     <use xlink:href="#m874f8de5e8" x="86.818909" y="295.488" style="fill: #1f77b4; stroke: #1f77b4"/>
     <use xlink:href="#m874f8de5e8" x="88.442182" y="295.488" style="fill: #1f77b4; stroke: #1f77b4"/>
     <use xlink:href="#m874f8de5e8" x="90.065455" y="295.488" style="fill: #1f77b4; stroke: #1f77b4"/>
     <use xlink:href="#m874f8de5e8" x="91.688727" y="295.488" style="fill: #1f77b4; stroke: #1f77b4"/>
     <use xlink:href="#m874f8de5e8" x="93.312" y="295.488" style="fill: #1f77b4; stroke: #1f77b4"/>
     <use xlink:href="#m874f8de5e8" x="94.935273" y="295.488" style="fill: #1f77b4; stroke: #1f77b4"/>
     <use xlink:href="#m874f8de5e8" x="96.558545" y="295.488" style="fill: #1f77b4; stroke: #1f77b4"/>
     <use xlink:href="#m874f8de5e8" x="98.181818" y="295.488" style="fill: #1f77b4; stroke: #1f77b4"/>
     <use xlink:href="#m874f8de5e8" x="99.805091" y="295.488" style="fill: #1f77b4; stroke: #1f77b4"/>
     <use xlink:href="#m874f8de5e8" x="101.428364" y="295.488" style="fill: #1f77b4; stroke: #1f77b4"/>
     <use xlink:href="#m874f8de5e8" x="103.051636" y="295.488" style="fill: #1f77b4; stroke: #1f77b4"/>
     <use xlink:href="#m874f8de5e8" x="104.674909" y="295.488" style="fill: #1f77b4; stroke: #1f77b4"/>
     <use xlink:href="#m874f8de5e8" x="106.298182" y="220.26966" style="fill: #1f77b4; stroke: #1f77b4"/>
     <use xlink:href="#m874f8de5e8" x="107.921455" y="220.26904" style="fill: #1f77b4; stroke: #1f77b4"/>
     <use xlink:href="#m874f8de5e8" x="109.544727" y="220.266672" style="fill: #1f77b4; stroke: #1f77b4"/>
     <use xlink:href="#m874f8de5e8" x="111.168" y="220.261576" style="fill: #1f77b4; stroke: #1f77b4"/>
     <use xlink:href="#m874f8de5e8" x="112.791273" y="220.252894" style="fill: #1f77b4; stroke: #1f77b4"/>
     <use xlink:href="#m874f8de5e8" x="114.414545" y="220.23987" style="fill: #1f77b4; stroke: #1f77b4"/>
     <use xlink:href="#m874f8de5e8" x="116.037818" y="220.221837" style="fill: #1f77b4; stroke: #1f77b4"/>
     <use xlink:href="#m874f8de5e8" x="117.661091" y="220.198203" style="fill: #1f77b4; stroke: #1f77b4"/>
     <use xlink:href="#m874f8de5e8" x="119.284364" y="220.168438" style="fill: #1f77b4; stroke: #1f77b4"/>
     <use xlink:href="#m874f8de5e8" x="120.907636" y="220.132067" style="fill: #1f77b4; stroke: #1f77b4"/>
     <use xlink:href="#m874f8de5e8" x="122.530909" y="220.088667" style="fill: #1f77b4; stroke: #1f77b4"/>
     <use xlink:href="#m874f8de5e8" x="124.154182" y="220.037853" style="fill: #1f77b4; stroke: #1f77b4"/>
     <use xlink:href="#m874f8de5e8" x="125.777455" y="219.979278" style="fill: #1f77b4; stroke: #1f77b4"/>
     <use xlink:href="#m874f8de5e8" x="127.400727" y="219.912628" style="fill: #1f77b4; stroke: #1f77b4"/>
     <use xlink:href="#m874f8de5e8" x="129.024" y="219.837618" style="fill: #1f77b4; stroke: #1f77b4"/>
     <use xlink:href="#m874f8de5e8" x="130.647273" y="219.753987" style="fill: #1f77b4; stroke: #1f77b4"/>
     <use xlink:href="#m874f8de5e8" x="132.270545" y="219.661499" style="fill: #1f77b4; stroke: #1f77b4"/>
     <use xlink:href="#m874f8de5e8" x="133.893818" y="219.559936" style="fill: #1f77b4; stroke: #1f77b4"/>
     <use xlink:href="#m874f8de5e8" x="135.517091" y="219.4491" style="fill: #1f77b4; stroke: #1f77b4"/>
     <use xlink:href="#m874f8de5e8" x="137.140364" y="219.32881" style="fill: #1f77b4; stroke: #1f77b4"/>
     <use xlink:href="#m874f8de5e8" x="138.763636" y="219.198898" style="fill: #1f77b4; stroke: #1f77b4"/>
     <use xlink:href="#m874f8de5e8" x="140.386909" y="219.05921" style="fill: #1f77b4; stroke: #1f77b4"/>
     <use xlink:href="#m874f8de5e8" x="142.010182" y="218.909606" style="fill: #1f77b4; stroke: #1f77b4"/>
     <use xlink:href="#m874f8de5e8" x="143.633455" y="218.749955" style="fill: #1f77b4; stroke: #1f77b4"/>
     <use xlink:href="#m874f8de5e8" x="145.256727" y="218.580137" style="fill: #1f77b4; stroke: #1f77b4"/>
     <use xlink:href="#m874f8de5e8" x="146.88" y="218.400041" style="fill: #1f77b4; stroke: #1f77b4"/>
     <use xlink:href="#m874f8de5e8" x="148.503273" y="218.209565" style="fill: #1f77b4; stroke: #1f77b4"/>
     <use xlink:href="#m874f8de5e8" x="150.126545" y="218.008615" style="fill: #1f77b4; stroke: #1f77b4"/>
     <use xlink:href="#m874f8de5e8" x="151.749818" y="217.797104" style="fill: #1f77b4; stroke: #1f77b4"/>
     <use xlink:href="#m874f8de5e8" x="153.373091" y="217.574949" style="fill: #1f77b4; stroke: #1f77b4"/>
     <use xlink:href="#m874f8de5e8" x="154.996364" y="217.342078" style="fill: #1f77b4; stroke: #1f77b4"/>
     <use xlink:href="#m874f8de5e8" x="156.619636" y="217.098421" style="fill: #1f77b4; stroke: #1f77b4"/>
     <use xlink:href="#m874f8de5e8" x="158.242909" y="216.843914" style="fill: #1f77b4; stroke: #1f77b4"/>
     <use xlink:href="#m874f8de5e8" x="159.866182" y="216.578498" style="fill: #1f77b4; stroke: #1f77b4"/>
     <use xlink:href="#m874f8de5e8" x="161.489455" y="216.302117" style="fill: #1f77b4; stroke: #1f77b4"/>
     <use xlink:href="#m874f8de5e8" x="163.112727" y="216.014723" style="fill: #1f77b4; stroke: #1f77b4"/>
     <use xlink:href="#m874f8de5e8" x="164.736" y="215.716267" style="fill: #1f77b4; stroke: #1f77b4"/>
     <use xlink:href="#m874f8de5e8" x="166.359273" y="215.406707" style="fill: #1f77b4; stroke: #1f77b4"/>
     <use xlink:href="#m874f8de5e8" x="167.982545" y="215.086002" style="fill: #1f77b4; stroke: #1f77b4"/>
     <use xlink:href="#m874f8de5e8" x="169.605818" y="214.754116" style="fill: #1f77b4; stroke: #1f77b4"/>
     <use xlink:href="#m874f8de5e8" x="171.229091" y="214.411015" style="fill: #1f77b4; stroke: #1f77b4"/>
     <use xlink:href="#m874f8de5e8" x="172.852364" y="214.056666" style="fill: #1f77b4; stroke: #1f77b4"/>
     <use xlink:href="#m874f8de5e8" x="174.475636" y="213.691042" style="fill: #1f77b4; stroke: #1f77b4"/>
     <use xlink:href="#m874f8de5e8" x="176.098909" y="213.314115" style="fill: #1f77b4; stroke: #1f77b4"/>
     <use xlink:href="#m874f8de5e8" x="177.722182" y="212.92586" style="fill: #1f77b4; stroke: #1f77b4"/>
     <use xlink:href="#m874f8de5e8" x="179.345455" y="212.526255" style="fill: #1f77b4; stroke: #1f77b4"/>
     <use xlink:href="#m874f8de5e8" x="180.968727" y="212.11528" style="fill: #1f77b4; stroke: #1f77b4"/>
     <use xlink:href="#m874f8de5e8" x="182.592" y="211.692915" style="fill: #1f77b4; stroke: #1f77b4"/>
     <use xlink:href="#m874f8de5e8" x="184.215273" y="211.259143" style="fill: #1f77b4; stroke: #1f77b4"/>
     <use xlink:href="#m874f8de5e8" x="185.838545" y="210.813948" style="fill: #1f77b4; stroke: #1f77b4"/>
     <use xlink:href="#m874f8de5e8" x="187.461818" y="210.357315" style="fill: #1f77b4; stroke: #1f77b4"/>
     <use xlink:href="#m874f8de5e8" x="189.085091" y="209.889231" style="fill: #1f77b4; stroke: #1f77b4"/>
     <use xlink:href="#m874f8de5e8" x="190.708364" y="209.409684" style="fill: #1f77b4; stroke: #1f77b4"/>
     <use xlink:href="#m874f8de5e8" x="192.331636" y="208.918664" style="fill: #1f77b4; stroke: #1f77b4"/>
     <use xlink:href="#m874f8de5e8" x="193.954909" y="208.41616" style="fill: #1f77b4; stroke: #1f77b4"/>
     <use xlink:href="#m874f8de5e8" x="195.578182" y="207.902164" style="fill: #1f77b4; stroke: #1f77b4"/>
     <use xlink:href="#m874f8de5e8" x="197.201455" y="207.376667" style="fill: #1f77b4; stroke: #1f77b4"/>
     <use xlink:href="#m874f8de5e8" x="198.824727" y="206.839664" style="fill: #1f77b4; stroke: #1f77b4"/>
     <use xlink:href="#m874f8de5e8" x="200.448" y="206.291146" style="fill: #1f77b4; stroke: #1f77b4"/>
     <use xlink:href="#m874f8de5e8" x="202.071273" y="205.73111" style="fill: #1f77b4; stroke: #1f77b4"/>
     <use xlink:href="#m874f8de5e8" x="203.694545" y="205.159551" style="fill: #1f77b4; stroke: #1f77b4"/>
     <use xlink:href="#m874f8de5e8" x="205.317818" y="204.576463" style="fill: #1f77b4; stroke: #1f77b4"/>
     <use xlink:href="#m874f8de5e8" x="206.941091" y="203.981844" style="fill: #1f77b4; stroke: #1f77b4"/>
     <use xlink:href="#m874f8de5e8" x="208.564364" y="203.375691" style="fill: #1f77b4; stroke: #1f77b4"/>
     <use xlink:href="#m874f8de5e8" x="210.187636" y="202.758001" style="fill: #1f77b4; stroke: #1f77b4"/>
     <use xlink:href="#m874f8de5e8" x="211.810909" y="202.128772" style="fill: #1f77b4; stroke: #1f77b4"/>
     <use xlink:href="#m874f8de5e8" x="213.434182" y="201.488003" style="fill: #1f77b4; stroke: #1f77b4"/>
     <use xlink:href="#m874f8de5e8" x="215.057455" y="200.835693" style="fill: #1f77b4; stroke: #1f77b4"/>
     <use xlink:href="#m874f8de5e8" x="216.680727" y="200.171841" style="fill: #1f77b4; stroke: #1f77b4"/>
     <use xlink:href="#m874f8de5e8" x="218.304" y="199.496446" style="fill: #1f77b4; stroke: #1f77b4"/>
     <use xlink:href="#m874f8de5e8" x="219.927273" y="198.809509" style="fill: #1f77b4; stroke: #1f77b4"/>
     <use xlink:href="#m874f8de5e8" x="221.550545" y="198.111031" style="fill: #1f77b4; stroke: #1f77b4"/>
     <use xlink:href="#m874f8de5e8" x="223.173818" y="197.401011" style="fill: #1f77b4; stroke: #1f77b4"/>
     <use xlink:href="#m874f8de5e8" x="224.797091" y="196.67945" style="fill: #1f77b4; stroke: #1f77b4"/>
     <use xlink:href="#m874f8de5e8" x="226.420364" y="195.94635" style="fill: #1f77b4; stroke: #1f77b4"/>
     <use xlink:href="#m874f8de5e8" x="228.043636" y="195.201712" style="fill: #1f77b4; stroke: #1f77b4"/>
     <use xlink:href="#m874f8de5e8" x="229.666909" y="194.445537" style="fill: #1f77b4; stroke: #1f77b4"/>
     <use xlink:href="#m874f8de5e8" x="231.290182" y="193.677828" style="fill: #1f77b4; stroke: #1f77b4"/>
     <use xlink:href="#m874f8de5e8" x="232.913455" y="192.898586" style="fill: #1f77b4; stroke: #1f77b4"/>
     <use xlink:href="#m874f8de5e8" x="234.536727" y="192.107814" style="fill: #1f77b4; stroke: #1f77b4"/>
     <use xlink:href="#m874f8de5e8" x="236.16" y="191.305513" style="fill: #1f77b4; stroke: #1f77b4"/>
     <use xlink:href="#m874f8de5e8" x="237.783273" y="190.491686" style="fill: #1f77b4; stroke: #1f77b4"/>
     <use xlink:href="#m874f8de5e8" x="239.406545" y="189.666336" style="fill: #1f77b4; stroke: #1f77b4"/>
     <use xlink:href="#m874f8de5e8" x="241.029818" y="188.829465" style="fill: #1f77b4; stroke: #1f77b4"/>
     <use xlink:href="#m874f8de5e8" x="242.653091" y="187.981076" style="fill: #1f77b4; stroke: #1f77b4"/>
     <use xlink:href="#m874f8de5e8" x="244.276364" y="187.121172" style="fill: #1f77b4; stroke: #1f77b4"/>
     <use xlink:href="#m874f8de5e8" x="245.899636" y="186.249756" style="fill: #1f77b4; stroke: #1f77b4"/>
     <use xlink:href="#m874f8de5e8" x="247.522909" y="185.366831" style="fill: #1f77b4; stroke: #1f77b4"/>
     <use xlink:href="#m874f8de5e8" x="249.146182" y="184.472401" style="fill: #1f77b4; stroke: #1f77b4"/>
     <use xlink:href="#m874f8de5e8" x="250.769455" y="183.566468" style="fill: #1f77b4; stroke: #1f77b4"/>
     <use xlink:href="#m874f8de5e8" x="252.392727" y="182.649035" style="fill: #1f77b4; stroke: #1f77b4"/>
     <use xlink:href="#m874f8de5e8" x="254.016" y="181.720107" style="fill: #1f77b4; stroke: #1f77b4"/>
     <use xlink:href="#m874f8de5e8" x="255.639273" y="180.779686" style="fill: #1f77b4; stroke: #1f77b4"/>
     <use xlink:href="#m874f8de5e8" x="257.262545" y="179.827777" style="fill: #1f77b4; stroke: #1f77b4"/>
     <use xlink:href="#m874f8de5e8" x="258.885818" y="178.864382" style="fill: #1f77b4; stroke: #1f77b4"/>
     <use xlink:href="#m874f8de5e8" x="260.509091" y="177.889506" style="fill: #1f77b4; stroke: #1f77b4"/>
     <use xlink:href="#m874f8de5e8" x="262.132364" y="176.903151" style="fill: #1f77b4; stroke: #1f77b4"/>
     <use xlink:href="#m874f8de5e8" x="263.755636" y="175.905323" style="fill: #1f77b4; stroke: #1f77b4"/>
     <use xlink:href="#m874f8de5e8" x="265.378909" y="174.896024" style="fill: #1f77b4; stroke: #1f77b4"/>
     <use xlink:href="#m874f8de5e8" x="267.002182" y="173.875258" style="fill: #1f77b4; stroke: #1f77b4"/>
     <use xlink:href="#m874f8de5e8" x="268.625455" y="172.84303" style="fill: #1f77b4; stroke: #1f77b4"/>
     <use xlink:href="#m874f8de5e8" x="270.248727" y="171.799342" style="fill: #1f77b4; stroke: #1f77b4"/>
     <use xlink:href="#m874f8de5e8" x="271.872" y="170.7442" style="fill: #1f77b4; stroke: #1f77b4"/>
     <use xlink:href="#m874f8de5e8" x="273.495273" y="169.677607" style="fill: #1f77b4; stroke: #1f77b4"/>
     <use xlink:href="#m874f8de5e8" x="275.118545" y="168.599567" style="fill: #1f77b4; stroke: #1f77b4"/>
     <use xlink:href="#m874f8de5e8" x="276.741818" y="167.510084" style="fill: #1f77b4; stroke: #1f77b4"/>
     <use xlink:href="#m874f8de5e8" x="278.365091" y="166.409163" style="fill: #1f77b4; stroke: #1f77b4"/>
     <use xlink:href="#m874f8de5e8" x="279.988364" y="165.296807" style="fill: #1f77b4; stroke: #1f77b4"/>
     <use xlink:href="#m874f8de5e8" x="281.611636" y="164.173022" style="fill: #1f77b4; stroke: #1f77b4"/>
     <use xlink:href="#m874f8de5e8" x="283.234909" y="163.03781" style="fill: #1f77b4; stroke: #1f77b4"/>
     <use xlink:href="#m874f8de5e8" x="284.858182" y="161.891176" style="fill: #1f77b4; stroke: #1f77b4"/>
     <use xlink:href="#m874f8de5e8" x="286.481455" y="160.733125" style="fill: #1f77b4; stroke: #1f77b4"/>
     <use xlink:href="#m874f8de5e8" x="288.104727" y="159.563662" style="fill: #1f77b4; stroke: #1f77b4"/>
     <use xlink:href="#m874f8de5e8" x="289.728" y="158.382789" style="fill: #1f77b4; stroke: #1f77b4"/>
     <use xlink:href="#m874f8de5e8" x="291.351273" y="157.190513" style="fill: #1f77b4; stroke: #1f77b4"/>
     <use xlink:href="#m874f8de5e8" x="292.974545" y="155.986838" style="fill: #1f77b4; stroke: #1f77b4"/>
     <use xlink:href="#m874f8de5e8" x="294.597818" y="154.771767" style="fill: #1f77b4; stroke: #1f77b4"/>
     <use xlink:href="#m874f8de5e8" x="296.221091" y="153.545307" style="fill: #1f77b4; stroke: #1f77b4"/>
     <use xlink:href="#m874f8de5e8" x="297.844364" y="152.307461" style="fill: #1f77b4; stroke: #1f77b4"/>
     <use xlink:href="#m874f8de5e8" x="299.467636" y="151.058234" style="fill: #1f77b4; stroke: #1f77b4"/>
     <use xlink:href="#m874f8de5e8" x="301.090909" y="149.797631" style="fill: #1f77b4; stroke: #1f77b4"/>
     <use xlink:href="#m874f8de5e8" x="302.714182" y="148.525657" style="fill: #1f77b4; stroke: #1f77b4"/>
     <use xlink:href="#m874f8de5e8" x="304.337455" y="147.242317" style="fill: #1f77b4; stroke: #1f77b4"/>
     <use xlink:href="#m874f8de5e8" x="305.960727" y="145.947616" style="fill: #1f77b4; stroke: #1f77b4"/>
     <use xlink:href="#m874f8de5e8" x="307.584" y="144.641559" style="fill: #1f77b4; stroke: #1f77b4"/>
     <use xlink:href="#m874f8de5e8" x="309.207273" y="143.32415" style="fill: #1f77b4; stroke: #1f77b4"/>
     <use xlink:href="#m874f8de5e8" x="310.830545" y="141.995396" style="fill: #1f77b4; stroke: #1f77b4"/>
     <use xlink:href="#m874f8de5e8" x="312.453818" y="140.655301" style="fill: #1f77b4; stroke: #1f77b4"/>
     <use xlink:href="#m874f8de5e8" x="314.077091" y="139.303871" style="fill: #1f77b4; stroke: #1f77b4"/>
     <use xlink:href="#m874f8de5e8" x="315.700364" y="137.941111" style="fill: #1f77b4; stroke: #1f77b4"/>
     <use xlink:href="#m874f8de5e8" x="317.323636" y="136.567026" style="fill: #1f77b4; stroke: #1f77b4"/>
     <use xlink:href="#m874f8de5e8" x="318.946909" y="135.181623" style="fill: #1f77b4; stroke: #1f77b4"/>
     <use xlink:href="#m874f8de5e8" x="320.570182" y="133.784905" style="fill: #1f77b4; stroke: #1f77b4"/>
     <use xlink:href="#m874f8de5e8" x="322.193455" y="132.376881" style="fill: #1f77b4; stroke: #1f77b4"/>
     <use xlink:href="#m874f8de5e8" x="323.816727" y="130.957554" style="fill: #1f77b4; stroke: #1f77b4"/>
     <use xlink:href="#m874f8de5e8" x="325.44" y="129.526931" style="fill: #1f77b4; stroke: #1f77b4"/>
     <use xlink:href="#m874f8de5e8" x="327.063273" y="128.085017" style="fill: #1f77b4; stroke: #1f77b4"/>
     <use xlink:href="#m874f8de5e8" x="328.686545" y="126.631819" style="fill: #1f77b4; stroke: #1f77b4"/>
     <use xlink:href="#m874f8de5e8" x="330.309818" y="125.167343" style="fill: #1f77b4; stroke: #1f77b4"/>
     <use xlink:href="#m874f8de5e8" x="331.933091" y="123.691594" style="fill: #1f77b4; stroke: #1f77b4"/>
     <use xlink:href="#m874f8de5e8" x="333.556364" y="122.20458" style="fill: #1f77b4; stroke: #1f77b4"/>
     <use xlink:href="#m874f8de5e8" x="335.179636" y="120.706306" style="fill: #1f77b4; stroke: #1f77b4"/>
     <use xlink:href="#m874f8de5e8" x="336.802909" y="119.196778" style="fill: #1f77b4; stroke: #1f77b4"/>
     <use xlink:href="#m874f8de5e8" x="338.426182" y="117.676004" style="fill: #1f77b4; stroke: #1f77b4"/>
     <use xlink:href="#m874f8de5e8" x="340.049455" y="116.143989" style="fill: #1f77b4; stroke: #1f77b4"/>
     <use xlink:href="#m874f8de5e8" x="341.672727" y="114.60074" style="fill: #1f77b4; stroke: #1f77b4"/>
     <use xlink:href="#m874f8de5e8" x="343.296" y="113.046265" style="fill: #1f77b4; stroke: #1f77b4"/>
     <use xlink:href="#m874f8de5e8" x="344.919273" y="111.480569" style="fill: #1f77b4; stroke: #1f77b4"/>
     <use xlink:href="#m874f8de5e8" x="346.542545" y="109.90366" style="fill: #1f77b4; stroke: #1f77b4"/>
     <use xlink:href="#m874f8de5e8" x="348.165818" y="108.315545" style="fill: #1f77b4; stroke: #1f77b4"/>
     <use xlink:href="#m874f8de5e8" x="349.789091" y="106.71623" style="fill: #1f77b4; stroke: #1f77b4"/>
     <use xlink:href="#m874f8de5e8" x="351.412364" y="105.105723" style="fill: #1f77b4; stroke: #1f77b4"/>
     <use xlink:href="#m874f8de5e8" x="353.035636" y="103.484032" style="fill: #1f77b4; stroke: #1f77b4"/>
     <use xlink:href="#m874f8de5e8" x="354.658909" y="101.851163" style="fill: #1f77b4; stroke: #1f77b4"/>
     <use xlink:href="#m874f8de5e8" x="356.282182" y="100.207124" style="fill: #1f77b4; stroke: #1f77b4"/>
     <use xlink:href="#m874f8de5e8" x="357.905455" y="98.551923" style="fill: #1f77b4; stroke: #1f77b4"/>
     <use xlink:href="#m874f8de5e8" x="359.528727" y="96.885567" style="fill: #1f77b4; stroke: #1f77b4"/>
     <use xlink:href="#m874f8de5e8" x="361.152" y="95.208063" style="fill: #1f77b4; stroke: #1f77b4"/>
     <use xlink:href="#m874f8de5e8" x="362.775273" y="93.51942" style="fill: #1f77b4; stroke: #1f77b4"/>
     <use xlink:href="#m874f8de5e8" x="364.398545" y="91.819646" style="fill: #1f77b4; stroke: #1f77b4"/>
     <use xlink:href="#m874f8de5e8" x="366.021818" y="90.108749" style="fill: #1f77b4; stroke: #1f77b4"/>
     <use xlink:href="#m874f8de5e8" x="367.645091" y="88.386736" style="fill: #1f77b4; stroke: #1f77b4"/>
     <use xlink:href="#m874f8de5e8" x="369.268364" y="86.653616" style="fill: #1f77b4; stroke: #1f77b4"/>
     <use xlink:href="#m874f8de5e8" x="370.891636" y="84.909397" style="fill: #1f77b4; stroke: #1f77b4"/>
     <use xlink:href="#m874f8de5e8" x="372.514909" y="83.154087" style="fill: #1f77b4; stroke: #1f77b4"/>
     <use xlink:href="#m874f8de5e8" x="374.138182" y="81.387696" style="fill: #1f77b4; stroke: #1f77b4"/>
     <use xlink:href="#m874f8de5e8" x="375.761455" y="79.610231" style="fill: #1f77b4; stroke: #1f77b4"/>
     <use xlink:href="#m874f8de5e8" x="377.384727" y="77.821701" style="fill: #1f77b4; stroke: #1f77b4"/>
     <use xlink:href="#m874f8de5e8" x="379.008" y="76.022114" style="fill: #1f77b4; stroke: #1f77b4"/>
     <use xlink:href="#m874f8de5e8" x="380.631273" y="74.211481" style="fill: #1f77b4; stroke: #1f77b4"/>
     <use xlink:href="#m874f8de5e8" x="382.254545" y="72.389809" style="fill: #1f77b4; stroke: #1f77b4"/>
     <use xlink:href="#m874f8de5e8" x="383.877818" y="70.557108" style="fill: #1f77b4; stroke: #1f77b4"/>
     <use xlink:href="#m874f8de5e8" x="385.501091" y="68.713386" style="fill: #1f77b4; stroke: #1f77b4"/>
     <use xlink:href="#m874f8de5e8" x="387.124364" y="66.858653" style="fill: #1f77b4; stroke: #1f77b4"/>
     <use xlink:href="#m874f8de5e8" x="388.747636" y="64.992919" style="fill: #1f77b4; stroke: #1f77b4"/>
     <use xlink:href="#m874f8de5e8" x="390.370909" y="63.116192" style="fill: #1f77b4; stroke: #1f77b4"/>
     <use xlink:href="#m874f8de5e8" x="391.994182" y="61.228481" style="fill: #1f77b4; stroke: #1f77b4"/>
     <use xlink:href="#m874f8de5e8" x="393.617455" y="59.329797" style="fill: #1f77b4; stroke: #1f77b4"/>
     <use xlink:href="#m874f8de5e8" x="395.240727" y="57.420149" style="fill: #1f77b4; stroke: #1f77b4"/>
     <use xlink:href="#m874f8de5e8" x="396.864" y="55.499547" style="fill: #1f77b4; stroke: #1f77b4"/>
     <use xlink:href="#m874f8de5e8" x="398.487273" y="53.568" style="fill: #1f77b4; stroke: #1f77b4"/>
    </g>
   </g>
   <g id="patch_3">
    <path d="M 57.6 307.584 
L 57.6 41.472 
" style="fill: none; stroke: #000000; stroke-width: 0.8; stroke-linejoin: miter; stroke-linecap: square"/>
   </g>
   <g id="patch_4">
    <path d="M 414.72 307.584 
L 414.72 41.472 
" style="fill: none; stroke: #000000; stroke-width: 0.8; stroke-linejoin: miter; stroke-linecap: square"/>
   </g>
   <g id="patch_5">
    <path d="M 57.6 307.584 
L 414.72 307.584 
" style="fill: none; stroke: #000000; stroke-width: 0.8; stroke-linejoin: miter; stroke-linecap: square"/>
   </g>
   <g id="patch_6">
    <path d="M 57.6 41.472 
L 414.72 41.472 
" style="fill: none; stroke: #000000; stroke-width: 0.8; stroke-linejoin: miter; stroke-linecap: square"/>
   </g>
  </g>
 </g>
 <defs>
  <clipPath id="pc405b6c6fc">
   <rect x="57.6" y="41.472" width="357.12" height="266.112"/>
  </clipPath>
 </defs>
</svg>
