<?xml version="1.0" encoding="utf-8" standalone="no"?>
<!DOCTYPE svg PUBLIC "-//W3C//DTD SVG 1.1//EN"
  "http://www.w3.org/Graphics/SVG/1.1/DTD/svg11.dtd">
<svg xmlns:xlink="http://www.w3.org/1999/xlink" width="460.8pt" height="345.6pt" viewBox="0 0 460.8 345.6" xmlns="http://www.w3.org/2000/svg" version="1.1">
 <metadata>
  <rdf:RDF xmlns:dc="http://purl.org/dc/elements/1.1/" xmlns:cc="http://creativecommons.org/ns#" xmlns:rdf="http://www.w3.org/1999/02/22-rdf-syntax-ns#">
   <cc:Work>
    <dc:type rdf:resource="http://purl.org/dc/dcmitype/StillImage"/>
    <dc:date>2022-01-02T13:08:05.802986</dc:date>
    <dc:format>image/svg+xml</dc:format>
    <dc:creator>
     <cc:Agent>
      <dc:title>Matplotlib v3.5.0, https://matplotlib.org/</dc:title>
     </cc:Agent>
    </dc:creator>
   </cc:Work>
  </rdf:RDF>
 </metadata>
 <defs>
  <style type="text/css">*{stroke-linejoin: round; stroke-linecap: butt}</style>
 </defs>
 <g id="figure_1">
  <g id="patch_1">
   <path d="M 0 345.6 
L 460.8 345.6 
L 460.8 0 
L 0 0 
z
" style="fill: #ffffff"/>
  </g>
  <g id="axes_1">
   <g id="patch_2">
    <path d="M 57.6 307.584 
L 414.72 307.584 
L 414.72 41.472 
L 57.6 41.472 
z
" style="fill: #ffffff"/>
   </g>
   <g id="matplotlib.axis_1">
    <g id="xtick_1">
     <g id="line2d_1">
      <defs>
       <path id="mc917f8ab74" d="M 0 0 
L 0 3.5 
" style="stroke: #000000; stroke-width: 0.8"/>
      </defs>
      <g>
       <use xlink:href="#mc917f8ab74" x="73.832727" y="307.584" style="stroke: #000000; stroke-width: 0.8"/>
      </g>
     </g>
     <g id="text_1">
      <!-- 0.0 -->
      <g transform="translate(65.881165 322.182437)scale(0.1 -0.1)">
       <defs>
        <path id="DejaVuSans-30" d="M 2034 4250 
Q 1547 4250 1301 3770 
Q 1056 3291 1056 2328 
Q 1056 1369 1301 889 
Q 1547 409 2034 409 
Q 2525 409 2770 889 
Q 3016 1369 3016 2328 
Q 3016 3291 2770 3770 
Q 2525 4250 2034 4250 
z
M 2034 4750 
Q 2819 4750 3233 4129 
Q 3647 3509 3647 2328 
Q 3647 1150 3233 529 
Q 2819 -91 2034 -91 
Q 1250 -91 836 529 
Q 422 1150 422 2328 
Q 422 3509 836 4129 
Q 1250 4750 2034 4750 
z
" transform="scale(0.015625)"/>
        <path id="DejaVuSans-2e" d="M 684 794 
L 1344 794 
L 1344 0 
L 684 0 
L 684 794 
z
" transform="scale(0.015625)"/>
       </defs>
       <use xlink:href="#DejaVuSans-30"/>
       <use xlink:href="#DejaVuSans-2e" x="63.623047"/>
       <use xlink:href="#DejaVuSans-30" x="95.410156"/>
      </g>
     </g>
    </g>
    <g id="xtick_2">
     <g id="line2d_2">
      <g>
       <use xlink:href="#mc917f8ab74" x="138.763636" y="307.584" style="stroke: #000000; stroke-width: 0.8"/>
      </g>
     </g>
     <g id="text_2">
      <!-- 0.2 -->
      <g transform="translate(130.812074 322.182437)scale(0.1 -0.1)">
       <defs>
        <path id="DejaVuSans-32" d="M 1228 531 
L 3431 531 
L 3431 0 
L 469 0 
L 469 531 
Q 828 903 1448 1529 
Q 2069 2156 2228 2338 
Q 2531 2678 2651 2914 
Q 2772 3150 2772 3378 
Q 2772 3750 2511 3984 
Q 2250 4219 1831 4219 
Q 1534 4219 1204 4116 
Q 875 4013 500 3803 
L 500 4441 
Q 881 4594 1212 4672 
Q 1544 4750 1819 4750 
Q 2544 4750 2975 4387 
Q 3406 4025 3406 3419 
Q 3406 3131 3298 2873 
Q 3191 2616 2906 2266 
Q 2828 2175 2409 1742 
Q 1991 1309 1228 531 
z
" transform="scale(0.015625)"/>
       </defs>
       <use xlink:href="#DejaVuSans-30"/>
       <use xlink:href="#DejaVuSans-2e" x="63.623047"/>
       <use xlink:href="#DejaVuSans-32" x="95.410156"/>
      </g>
     </g>
    </g>
    <g id="xtick_3">
     <g id="line2d_3">
      <g>
       <use xlink:href="#mc917f8ab74" x="203.694545" y="307.584" style="stroke: #000000; stroke-width: 0.8"/>
      </g>
     </g>
     <g id="text_3">
      <!-- 0.4 -->
      <g transform="translate(195.742983 322.182437)scale(0.1 -0.1)">
       <defs>
        <path id="DejaVuSans-34" d="M 2419 4116 
L 825 1625 
L 2419 1625 
L 2419 4116 
z
M 2253 4666 
L 3047 4666 
L 3047 1625 
L 3713 1625 
L 3713 1100 
L 3047 1100 
L 3047 0 
L 2419 0 
L 2419 1100 
L 313 1100 
L 313 1709 
L 2253 4666 
z
" transform="scale(0.015625)"/>
       </defs>
       <use xlink:href="#DejaVuSans-30"/>
       <use xlink:href="#DejaVuSans-2e" x="63.623047"/>
       <use xlink:href="#DejaVuSans-34" x="95.410156"/>
      </g>
     </g>
    </g>
    <g id="xtick_4">
     <g id="line2d_4">
      <g>
       <use xlink:href="#mc917f8ab74" x="268.625455" y="307.584" style="stroke: #000000; stroke-width: 0.8"/>
      </g>
     </g>
     <g id="text_4">
      <!-- 0.6 -->
      <g transform="translate(260.673892 322.182437)scale(0.1 -0.1)">
       <defs>
        <path id="DejaVuSans-36" d="M 2113 2584 
Q 1688 2584 1439 2293 
Q 1191 2003 1191 1497 
Q 1191 994 1439 701 
Q 1688 409 2113 409 
Q 2538 409 2786 701 
Q 3034 994 3034 1497 
Q 3034 2003 2786 2293 
Q 2538 2584 2113 2584 
z
M 3366 4563 
L 3366 3988 
Q 3128 4100 2886 4159 
Q 2644 4219 2406 4219 
Q 1781 4219 1451 3797 
Q 1122 3375 1075 2522 
Q 1259 2794 1537 2939 
Q 1816 3084 2150 3084 
Q 2853 3084 3261 2657 
Q 3669 2231 3669 1497 
Q 3669 778 3244 343 
Q 2819 -91 2113 -91 
Q 1303 -91 875 529 
Q 447 1150 447 2328 
Q 447 3434 972 4092 
Q 1497 4750 2381 4750 
Q 2619 4750 2861 4703 
Q 3103 4656 3366 4563 
z
" transform="scale(0.015625)"/>
       </defs>
       <use xlink:href="#DejaVuSans-30"/>
       <use xlink:href="#DejaVuSans-2e" x="63.623047"/>
       <use xlink:href="#DejaVuSans-36" x="95.410156"/>
      </g>
     </g>
    </g>
    <g id="xtick_5">
     <g id="line2d_5">
      <g>
       <use xlink:href="#mc917f8ab74" x="333.556364" y="307.584" style="stroke: #000000; stroke-width: 0.8"/>
      </g>
     </g>
     <g id="text_5">
      <!-- 0.8 -->
      <g transform="translate(325.604801 322.182437)scale(0.1 -0.1)">
       <defs>
        <path id="DejaVuSans-38" d="M 2034 2216 
Q 1584 2216 1326 1975 
Q 1069 1734 1069 1313 
Q 1069 891 1326 650 
Q 1584 409 2034 409 
Q 2484 409 2743 651 
Q 3003 894 3003 1313 
Q 3003 1734 2745 1975 
Q 2488 2216 2034 2216 
z
M 1403 2484 
Q 997 2584 770 2862 
Q 544 3141 544 3541 
Q 544 4100 942 4425 
Q 1341 4750 2034 4750 
Q 2731 4750 3128 4425 
Q 3525 4100 3525 3541 
Q 3525 3141 3298 2862 
Q 3072 2584 2669 2484 
Q 3125 2378 3379 2068 
Q 3634 1759 3634 1313 
Q 3634 634 3220 271 
Q 2806 -91 2034 -91 
Q 1263 -91 848 271 
Q 434 634 434 1313 
Q 434 1759 690 2068 
Q 947 2378 1403 2484 
z
M 1172 3481 
Q 1172 3119 1398 2916 
Q 1625 2713 2034 2713 
Q 2441 2713 2670 2916 
Q 2900 3119 2900 3481 
Q 2900 3844 2670 4047 
Q 2441 4250 2034 4250 
Q 1625 4250 1398 4047 
Q 1172 3844 1172 3481 
z
" transform="scale(0.015625)"/>
       </defs>
       <use xlink:href="#DejaVuSans-30"/>
       <use xlink:href="#DejaVuSans-2e" x="63.623047"/>
       <use xlink:href="#DejaVuSans-38" x="95.410156"/>
      </g>
     </g>
    </g>
    <g id="xtick_6">
     <g id="line2d_6">
      <g>
       <use xlink:href="#mc917f8ab74" x="398.487273" y="307.584" style="stroke: #000000; stroke-width: 0.8"/>
      </g>
     </g>
     <g id="text_6">
      <!-- 1.0 -->
      <g transform="translate(390.53571 322.182437)scale(0.1 -0.1)">
       <defs>
        <path id="DejaVuSans-31" d="M 794 531 
L 1825 531 
L 1825 4091 
L 703 3866 
L 703 4441 
L 1819 4666 
L 2450 4666 
L 2450 531 
L 3481 531 
L 3481 0 
L 794 0 
L 794 531 
z
" transform="scale(0.015625)"/>
       </defs>
       <use xlink:href="#DejaVuSans-31"/>
       <use xlink:href="#DejaVuSans-2e" x="63.623047"/>
       <use xlink:href="#DejaVuSans-30" x="95.410156"/>
      </g>
     </g>
    </g>
   </g>
   <g id="matplotlib.axis_2">
    <g id="ytick_1">
     <g id="line2d_7">
      <defs>
       <path id="ma6fee42e66" d="M 0 0 
L -3.5 0 
" style="stroke: #000000; stroke-width: 0.8"/>
      </defs>
      <g>
       <use xlink:href="#ma6fee42e66" x="57.6" y="295.488" style="stroke: #000000; stroke-width: 0.8"/>
      </g>
     </g>
     <g id="text_7">
      <!-- 0.0 -->
      <g transform="translate(34.696875 299.287219)scale(0.1 -0.1)">
       <use xlink:href="#DejaVuSans-30"/>
       <use xlink:href="#DejaVuSans-2e" x="63.623047"/>
       <use xlink:href="#DejaVuSans-30" x="95.410156"/>
      </g>
     </g>
    </g>
    <g id="ytick_2">
     <g id="line2d_8">
      <g>
       <use xlink:href="#ma6fee42e66" x="57.6" y="264.771847" style="stroke: #000000; stroke-width: 0.8"/>
      </g>
     </g>
     <g id="text_8">
      <!-- 0.2 -->
      <g transform="translate(34.696875 268.571066)scale(0.1 -0.1)">
       <use xlink:href="#DejaVuSans-30"/>
       <use xlink:href="#DejaVuSans-2e" x="63.623047"/>
       <use xlink:href="#DejaVuSans-32" x="95.410156"/>
      </g>
     </g>
    </g>
    <g id="ytick_3">
     <g id="line2d_9">
      <g>
       <use xlink:href="#ma6fee42e66" x="57.6" y="234.055695" style="stroke: #000000; stroke-width: 0.8"/>
      </g>
     </g>
     <g id="text_9">
      <!-- 0.4 -->
      <g transform="translate(34.696875 237.854914)scale(0.1 -0.1)">
       <use xlink:href="#DejaVuSans-30"/>
       <use xlink:href="#DejaVuSans-2e" x="63.623047"/>
       <use xlink:href="#DejaVuSans-34" x="95.410156"/>
      </g>
     </g>
    </g>
    <g id="ytick_4">
     <g id="line2d_10">
      <g>
       <use xlink:href="#ma6fee42e66" x="57.6" y="203.339542" style="stroke: #000000; stroke-width: 0.8"/>
      </g>
     </g>
     <g id="text_10">
      <!-- 0.6 -->
      <g transform="translate(34.696875 207.138761)scale(0.1 -0.1)">
       <use xlink:href="#DejaVuSans-30"/>
       <use xlink:href="#DejaVuSans-2e" x="63.623047"/>
       <use xlink:href="#DejaVuSans-36" x="95.410156"/>
      </g>
     </g>
    </g>
    <g id="ytick_5">
     <g id="line2d_11">
      <g>
       <use xlink:href="#ma6fee42e66" x="57.6" y="172.62339" style="stroke: #000000; stroke-width: 0.8"/>
      </g>
     </g>
     <g id="text_11">
      <!-- 0.8 -->
      <g transform="translate(34.696875 176.422608)scale(0.1 -0.1)">
       <use xlink:href="#DejaVuSans-30"/>
       <use xlink:href="#DejaVuSans-2e" x="63.623047"/>
       <use xlink:href="#DejaVuSans-38" x="95.410156"/>
      </g>
     </g>
    </g>
    <g id="ytick_6">
     <g id="line2d_12">
      <g>
       <use xlink:href="#ma6fee42e66" x="57.6" y="141.907237" style="stroke: #000000; stroke-width: 0.8"/>
      </g>
     </g>
     <g id="text_12">
      <!-- 1.0 -->
      <g transform="translate(34.696875 145.706456)scale(0.1 -0.1)">
       <use xlink:href="#DejaVuSans-31"/>
       <use xlink:href="#DejaVuSans-2e" x="63.623047"/>
       <use xlink:href="#DejaVuSans-30" x="95.410156"/>
      </g>
     </g>
    </g>
    <g id="ytick_7">
     <g id="line2d_13">
      <g>
       <use xlink:href="#ma6fee42e66" x="57.6" y="111.191084" style="stroke: #000000; stroke-width: 0.8"/>
      </g>
     </g>
     <g id="text_13">
      <!-- 1.2 -->
      <g transform="translate(34.696875 114.990303)scale(0.1 -0.1)">
       <use xlink:href="#DejaVuSans-31"/>
       <use xlink:href="#DejaVuSans-2e" x="63.623047"/>
       <use xlink:href="#DejaVuSans-32" x="95.410156"/>
      </g>
     </g>
    </g>
    <g id="ytick_8">
     <g id="line2d_14">
      <g>
       <use xlink:href="#ma6fee42e66" x="57.6" y="80.474932" style="stroke: #000000; stroke-width: 0.8"/>
      </g>
     </g>
     <g id="text_14">
      <!-- 1.4 -->
      <g transform="translate(34.696875 84.274151)scale(0.1 -0.1)">
       <use xlink:href="#DejaVuSans-31"/>
       <use xlink:href="#DejaVuSans-2e" x="63.623047"/>
       <use xlink:href="#DejaVuSans-34" x="95.410156"/>
      </g>
     </g>
    </g>
    <g id="ytick_9">
     <g id="line2d_15">
      <g>
       <use xlink:href="#ma6fee42e66" x="57.6" y="49.758779" style="stroke: #000000; stroke-width: 0.8"/>
      </g>
     </g>
     <g id="text_15">
      <!-- 1.6 -->
      <g transform="translate(34.696875 53.557998)scale(0.1 -0.1)">
       <use xlink:href="#DejaVuSans-31"/>
       <use xlink:href="#DejaVuSans-2e" x="63.623047"/>
       <use xlink:href="#DejaVuSans-36" x="95.410156"/>
      </g>
     </g>
    </g>
   </g>
   <g id="line2d_16">
    <defs>
     <path id="m3c12d973d5" d="M 0 3 
C 0.795609 3 1.55874 2.683901 2.12132 2.12132 
C 2.683901 1.55874 3 0.795609 3 0 
C 3 -0.795609 2.683901 -1.55874 2.12132 -2.12132 
C 1.55874 -2.683901 0.795609 -3 0 -3 
C -0.795609 -3 -1.55874 -2.683901 -2.12132 -2.12132 
C -2.683901 -1.55874 -3 -0.795609 -3 0 
C -3 0.795609 -2.683901 1.55874 -2.12132 2.12132 
C -1.55874 2.683901 -0.795609 3 0 3 
z
" style="stroke: #1f77b4"/>
    </defs>
    <g clip-path="url(#pe7f129f070)">
     <use xlink:href="#m3c12d973d5" x="73.832727" y="295.488" style="fill: #1f77b4; stroke: #1f77b4"/>
     <use xlink:href="#m3c12d973d5" x="75.456" y="295.488" style="fill: #1f77b4; stroke: #1f77b4"/>
     <use xlink:href="#m3c12d973d5" x="77.079273" y="295.488" style="fill: #1f77b4; stroke: #1f77b4"/>
     <use xlink:href="#m3c12d973d5" x="78.702545" y="295.488" style="fill: #1f77b4; stroke: #1f77b4"/>
     <use xlink:href="#m3c12d973d5" x="80.325818" y="295.488" style="fill: #1f77b4; stroke: #1f77b4"/>
     <use xlink:href="#m3c12d973d5" x="81.949091" y="295.488" style="fill: #1f77b4; stroke: #1f77b4"/>
     <use xlink:href="#m3c12d973d5" x="83.572364" y="295.488" style="fill: #1f77b4; stroke: #1f77b4"/>
     <use xlink:href="#m3c12d973d5" x="85.195636" y="295.488" style="fill: #1f77b4; stroke: #1f77b4"/>
     <use xlink:href="#m3c12d973d5" x="86.818909" y="295.488" style="fill: #1f77b4; stroke: #1f77b4"/>
     <use xlink:href="#m3c12d973d5" x="88.442182" y="295.488" style="fill: #1f77b4; stroke: #1f77b4"/>
     <use xlink:href="#m3c12d973d5" x="90.065455" y="295.488" style="fill: #1f77b4; stroke: #1f77b4"/>
     <use xlink:href="#m3c12d973d5" x="91.688727" y="295.488" style="fill: #1f77b4; stroke: #1f77b4"/>
     <use xlink:href="#m3c12d973d5" x="93.312" y="295.488" style="fill: #1f77b4; stroke: #1f77b4"/>
     <use xlink:href="#m3c12d973d5" x="94.935273" y="295.488" style="fill: #1f77b4; stroke: #1f77b4"/>
     <use xlink:href="#m3c12d973d5" x="96.558545" y="295.488" style="fill: #1f77b4; stroke: #1f77b4"/>
     <use xlink:href="#m3c12d973d5" x="98.181818" y="295.488" style="fill: #1f77b4; stroke: #1f77b4"/>
     <use xlink:href="#m3c12d973d5" x="99.805091" y="295.488" style="fill: #1f77b4; stroke: #1f77b4"/>
     <use xlink:href="#m3c12d973d5" x="101.428364" y="295.488" style="fill: #1f77b4; stroke: #1f77b4"/>
     <use xlink:href="#m3c12d973d5" x="103.051636" y="295.488" style="fill: #1f77b4; stroke: #1f77b4"/>
     <use xlink:href="#m3c12d973d5" x="104.674909" y="295.488" style="fill: #1f77b4; stroke: #1f77b4"/>
     <use xlink:href="#m3c12d973d5" x="106.298182" y="295.488" style="fill: #1f77b4; stroke: #1f77b4"/>
     <use xlink:href="#m3c12d973d5" x="107.921455" y="295.488" style="fill: #1f77b4; stroke: #1f77b4"/>
     <use xlink:href="#m3c12d973d5" x="109.544727" y="295.488" style="fill: #1f77b4; stroke: #1f77b4"/>
     <use xlink:href="#m3c12d973d5" x="111.168" y="295.488" style="fill: #1f77b4; stroke: #1f77b4"/>
     <use xlink:href="#m3c12d973d5" x="112.791273" y="295.488" style="fill: #1f77b4; stroke: #1f77b4"/>
     <use xlink:href="#m3c12d973d5" x="114.414545" y="295.488" style="fill: #1f77b4; stroke: #1f77b4"/>
     <use xlink:href="#m3c12d973d5" x="116.037818" y="295.488" style="fill: #1f77b4; stroke: #1f77b4"/>
     <use xlink:href="#m3c12d973d5" x="117.661091" y="295.488" style="fill: #1f77b4; stroke: #1f77b4"/>
     <use xlink:href="#m3c12d973d5" x="119.284364" y="295.488" style="fill: #1f77b4; stroke: #1f77b4"/>
     <use xlink:href="#m3c12d973d5" x="120.907636" y="295.488" style="fill: #1f77b4; stroke: #1f77b4"/>
     <use xlink:href="#m3c12d973d5" x="122.530909" y="212.089287" style="fill: #1f77b4; stroke: #1f77b4"/>
     <use xlink:href="#m3c12d973d5" x="124.154182" y="212.08878" style="fill: #1f77b4; stroke: #1f77b4"/>
     <use xlink:href="#m3c12d973d5" x="125.777455" y="212.086817" style="fill: #1f77b4; stroke: #1f77b4"/>
     <use xlink:href="#m3c12d973d5" x="127.400727" y="212.082533" style="fill: #1f77b4; stroke: #1f77b4"/>
     <use xlink:href="#m3c12d973d5" x="129.024" y="212.075142" style="fill: #1f77b4; stroke: #1f77b4"/>
     <use xlink:href="#m3c12d973d5" x="130.647273" y="212.063922" style="fill: #1f77b4; stroke: #1f77b4"/>
     <use xlink:href="#m3c12d973d5" x="132.270545" y="212.048216" style="fill: #1f77b4; stroke: #1f77b4"/>
     <use xlink:href="#m3c12d973d5" x="133.893818" y="212.027416" style="fill: #1f77b4; stroke: #1f77b4"/>
     <use xlink:href="#m3c12d973d5" x="135.517091" y="212.000966" style="fill: #1f77b4; stroke: #1f77b4"/>
     <use xlink:href="#m3c12d973d5" x="137.140364" y="211.968351" style="fill: #1f77b4; stroke: #1f77b4"/>
     <use xlink:href="#m3c12d973d5" x="138.763636" y="211.929097" style="fill: #1f77b4; stroke: #1f77b4"/>
     <use xlink:href="#m3c12d973d5" x="140.386909" y="211.882765" style="fill: #1f77b4; stroke: #1f77b4"/>
     <use xlink:href="#m3c12d973d5" x="142.010182" y="211.828946" style="fill: #1f77b4; stroke: #1f77b4"/>
     <use xlink:href="#m3c12d973d5" x="143.633455" y="211.767265" style="fill: #1f77b4; stroke: #1f77b4"/>
     <use xlink:href="#m3c12d973d5" x="145.256727" y="211.697371" style="fill: #1f77b4; stroke: #1f77b4"/>
     <use xlink:href="#m3c12d973d5" x="146.88" y="211.618936" style="fill: #1f77b4; stroke: #1f77b4"/>
     <use xlink:href="#m3c12d973d5" x="148.503273" y="211.531658" style="fill: #1f77b4; stroke: #1f77b4"/>
     <use xlink:href="#m3c12d973d5" x="150.126545" y="211.435254" style="fill: #1f77b4; stroke: #1f77b4"/>
     <use xlink:href="#m3c12d973d5" x="151.749818" y="211.329461" style="fill: #1f77b4; stroke: #1f77b4"/>
     <use xlink:href="#m3c12d973d5" x="153.373091" y="211.214032" style="fill: #1f77b4; stroke: #1f77b4"/>
     <use xlink:href="#m3c12d973d5" x="154.996364" y="211.088737" style="fill: #1f77b4; stroke: #1f77b4"/>
     <use xlink:href="#m3c12d973d5" x="156.619636" y="210.953363" style="fill: #1f77b4; stroke: #1f77b4"/>
     <use xlink:href="#m3c12d973d5" x="158.242909" y="210.807709" style="fill: #1f77b4; stroke: #1f77b4"/>
     <use xlink:href="#m3c12d973d5" x="159.866182" y="210.651588" style="fill: #1f77b4; stroke: #1f77b4"/>
     <use xlink:href="#m3c12d973d5" x="161.489455" y="210.484824" style="fill: #1f77b4; stroke: #1f77b4"/>
     <use xlink:href="#m3c12d973d5" x="163.112727" y="210.307253" style="fill: #1f77b4; stroke: #1f77b4"/>
     <use xlink:href="#m3c12d973d5" x="164.736" y="210.118722" style="fill: #1f77b4; stroke: #1f77b4"/>
     <use xlink:href="#m3c12d973d5" x="166.359273" y="209.919089" style="fill: #1f77b4; stroke: #1f77b4"/>
     <use xlink:href="#m3c12d973d5" x="167.982545" y="209.708219" style="fill: #1f77b4; stroke: #1f77b4"/>
     <use xlink:href="#m3c12d973d5" x="169.605818" y="209.485986" style="fill: #1f77b4; stroke: #1f77b4"/>
     <use xlink:href="#m3c12d973d5" x="171.229091" y="209.252273" style="fill: #1f77b4; stroke: #1f77b4"/>
     <use xlink:href="#m3c12d973d5" x="172.852364" y="209.006972" style="fill: #1f77b4; stroke: #1f77b4"/>
     <use xlink:href="#m3c12d973d5" x="174.475636" y="208.749978" style="fill: #1f77b4; stroke: #1f77b4"/>
     <use xlink:href="#m3c12d973d5" x="176.098909" y="208.481198" style="fill: #1f77b4; stroke: #1f77b4"/>
     <use xlink:href="#m3c12d973d5" x="177.722182" y="208.200541" style="fill: #1f77b4; stroke: #1f77b4"/>
     <use xlink:href="#m3c12d973d5" x="179.345455" y="207.907924" style="fill: #1f77b4; stroke: #1f77b4"/>
     <use xlink:href="#m3c12d973d5" x="180.968727" y="207.60327" style="fill: #1f77b4; stroke: #1f77b4"/>
     <use xlink:href="#m3c12d973d5" x="182.592" y="207.286506" style="fill: #1f77b4; stroke: #1f77b4"/>
     <use xlink:href="#m3c12d973d5" x="184.215273" y="206.957565" style="fill: #1f77b4; stroke: #1f77b4"/>
     <use xlink:href="#m3c12d973d5" x="185.838545" y="206.616384" style="fill: #1f77b4; stroke: #1f77b4"/>
     <use xlink:href="#m3c12d973d5" x="187.461818" y="206.262906" style="fill: #1f77b4; stroke: #1f77b4"/>
     <use xlink:href="#m3c12d973d5" x="189.085091" y="205.897076" style="fill: #1f77b4; stroke: #1f77b4"/>
     <use xlink:href="#m3c12d973d5" x="190.708364" y="205.518845" style="fill: #1f77b4; stroke: #1f77b4"/>
     <use xlink:href="#m3c12d973d5" x="192.331636" y="205.128166" style="fill: #1f77b4; stroke: #1f77b4"/>
     <use xlink:href="#m3c12d973d5" x="193.954909" y="204.724997" style="fill: #1f77b4; stroke: #1f77b4"/>
     <use xlink:href="#m3c12d973d5" x="195.578182" y="204.309299" style="fill: #1f77b4; stroke: #1f77b4"/>
     <use xlink:href="#m3c12d973d5" x="197.201455" y="203.881035" style="fill: #1f77b4; stroke: #1f77b4"/>
     <use xlink:href="#m3c12d973d5" x="198.824727" y="203.440172" style="fill: #1f77b4; stroke: #1f77b4"/>
     <use xlink:href="#m3c12d973d5" x="200.448" y="202.986681" style="fill: #1f77b4; stroke: #1f77b4"/>
     <use xlink:href="#m3c12d973d5" x="202.071273" y="202.520534" style="fill: #1f77b4; stroke: #1f77b4"/>
     <use xlink:href="#m3c12d973d5" x="203.694545" y="202.041706" style="fill: #1f77b4; stroke: #1f77b4"/>
     <use xlink:href="#m3c12d973d5" x="205.317818" y="201.550174" style="fill: #1f77b4; stroke: #1f77b4"/>
     <use xlink:href="#m3c12d973d5" x="206.941091" y="201.045918" style="fill: #1f77b4; stroke: #1f77b4"/>
     <use xlink:href="#m3c12d973d5" x="208.564364" y="200.52892" style="fill: #1f77b4; stroke: #1f77b4"/>
     <use xlink:href="#m3c12d973d5" x="210.187636" y="199.999164" style="fill: #1f77b4; stroke: #1f77b4"/>
     <use xlink:href="#m3c12d973d5" x="211.810909" y="199.456635" style="fill: #1f77b4; stroke: #1f77b4"/>
     <use xlink:href="#m3c12d973d5" x="213.434182" y="198.901322" style="fill: #1f77b4; stroke: #1f77b4"/>
     <use xlink:href="#m3c12d973d5" x="215.057455" y="198.333214" style="fill: #1f77b4; stroke: #1f77b4"/>
     <use xlink:href="#m3c12d973d5" x="216.680727" y="197.752301" style="fill: #1f77b4; stroke: #1f77b4"/>
     <use xlink:href="#m3c12d973d5" x="218.304" y="197.158576" style="fill: #1f77b4; stroke: #1f77b4"/>
     <use xlink:href="#m3c12d973d5" x="219.927273" y="196.552032" style="fill: #1f77b4; stroke: #1f77b4"/>
     <use xlink:href="#m3c12d973d5" x="221.550545" y="195.932667" style="fill: #1f77b4; stroke: #1f77b4"/>
     <use xlink:href="#m3c12d973d5" x="223.173818" y="195.300474" style="fill: #1f77b4; stroke: #1f77b4"/>
     <use xlink:href="#m3c12d973d5" x="224.797091" y="194.655454" style="fill: #1f77b4; stroke: #1f77b4"/>
     <use xlink:href="#m3c12d973d5" x="226.420364" y="193.997603" style="fill: #1f77b4; stroke: #1f77b4"/>
     <use xlink:href="#m3c12d973d5" x="228.043636" y="193.326923" style="fill: #1f77b4; stroke: #1f77b4"/>
     <use xlink:href="#m3c12d973d5" x="229.666909" y="192.643414" style="fill: #1f77b4; stroke: #1f77b4"/>
     <use xlink:href="#m3c12d973d5" x="231.290182" y="191.947078" style="fill: #1f77b4; stroke: #1f77b4"/>
     <use xlink:href="#m3c12d973d5" x="232.913455" y="191.237919" style="fill: #1f77b4; stroke: #1f77b4"/>
     <use xlink:href="#m3c12d973d5" x="234.536727" y="190.515938" style="fill: #1f77b4; stroke: #1f77b4"/>
     <use xlink:href="#m3c12d973d5" x="236.16" y="189.781142" style="fill: #1f77b4; stroke: #1f77b4"/>
     <use xlink:href="#m3c12d973d5" x="237.783273" y="189.033535" style="fill: #1f77b4; stroke: #1f77b4"/>
     <use xlink:href="#m3c12d973d5" x="239.406545" y="188.273122" style="fill: #1f77b4; stroke: #1f77b4"/>
     <use xlink:href="#m3c12d973d5" x="241.029818" y="187.499911" style="fill: #1f77b4; stroke: #1f77b4"/>
     <use xlink:href="#m3c12d973d5" x="242.653091" y="186.713908" style="fill: #1f77b4; stroke: #1f77b4"/>
     <use xlink:href="#m3c12d973d5" x="244.276364" y="185.915122" style="fill: #1f77b4; stroke: #1f77b4"/>
     <use xlink:href="#m3c12d973d5" x="245.899636" y="185.10356" style="fill: #1f77b4; stroke: #1f77b4"/>
     <use xlink:href="#m3c12d973d5" x="247.522909" y="184.27923" style="fill: #1f77b4; stroke: #1f77b4"/>
     <use xlink:href="#m3c12d973d5" x="249.146182" y="183.442143" style="fill: #1f77b4; stroke: #1f77b4"/>
     <use xlink:href="#m3c12d973d5" x="250.769455" y="182.592307" style="fill: #1f77b4; stroke: #1f77b4"/>
     <use xlink:href="#m3c12d973d5" x="252.392727" y="181.729733" style="fill: #1f77b4; stroke: #1f77b4"/>
     <use xlink:href="#m3c12d973d5" x="254.016" y="180.854431" style="fill: #1f77b4; stroke: #1f77b4"/>
     <use xlink:href="#m3c12d973d5" x="255.639273" y="179.966411" style="fill: #1f77b4; stroke: #1f77b4"/>
     <use xlink:href="#m3c12d973d5" x="257.262545" y="179.065684" style="fill: #1f77b4; stroke: #1f77b4"/>
     <use xlink:href="#m3c12d973d5" x="258.885818" y="178.152263" style="fill: #1f77b4; stroke: #1f77b4"/>
     <use xlink:href="#m3c12d973d5" x="260.509091" y="177.226157" style="fill: #1f77b4; stroke: #1f77b4"/>
     <use xlink:href="#m3c12d973d5" x="262.132364" y="176.28738" style="fill: #1f77b4; stroke: #1f77b4"/>
     <use xlink:href="#m3c12d973d5" x="263.755636" y="175.335942" style="fill: #1f77b4; stroke: #1f77b4"/>
     <use xlink:href="#m3c12d973d5" x="265.378909" y="174.371857" style="fill: #1f77b4; stroke: #1f77b4"/>
     <use xlink:href="#m3c12d973d5" x="267.002182" y="173.395137" style="fill: #1f77b4; stroke: #1f77b4"/>
     <use xlink:href="#m3c12d973d5" x="268.625455" y="172.405794" style="fill: #1f77b4; stroke: #1f77b4"/>
     <use xlink:href="#m3c12d973d5" x="270.248727" y="171.403841" style="fill: #1f77b4; stroke: #1f77b4"/>
     <use xlink:href="#m3c12d973d5" x="271.872" y="170.389291" style="fill: #1f77b4; stroke: #1f77b4"/>
     <use xlink:href="#m3c12d973d5" x="273.495273" y="169.362157" style="fill: #1f77b4; stroke: #1f77b4"/>
     <use xlink:href="#m3c12d973d5" x="275.118545" y="168.322452" style="fill: #1f77b4; stroke: #1f77b4"/>
     <use xlink:href="#m3c12d973d5" x="276.741818" y="167.27019" style="fill: #1f77b4; stroke: #1f77b4"/>
     <use xlink:href="#m3c12d973d5" x="278.365091" y="166.205384" style="fill: #1f77b4; stroke: #1f77b4"/>
     <use xlink:href="#m3c12d973d5" x="279.988364" y="165.128047" style="fill: #1f77b4; stroke: #1f77b4"/>
     <use xlink:href="#m3c12d973d5" x="281.611636" y="164.038193" style="fill: #1f77b4; stroke: #1f77b4"/>
     <use xlink:href="#m3c12d973d5" x="283.234909" y="162.935835" style="fill: #1f77b4; stroke: #1f77b4"/>
     <use xlink:href="#m3c12d973d5" x="284.858182" y="161.820988" style="fill: #1f77b4; stroke: #1f77b4"/>
     <use xlink:href="#m3c12d973d5" x="286.481455" y="160.693664" style="fill: #1f77b4; stroke: #1f77b4"/>
     <use xlink:href="#m3c12d973d5" x="288.104727" y="159.553878" style="fill: #1f77b4; stroke: #1f77b4"/>
     <use xlink:href="#m3c12d973d5" x="289.728" y="158.401644" style="fill: #1f77b4; stroke: #1f77b4"/>
     <use xlink:href="#m3c12d973d5" x="291.351273" y="157.236975" style="fill: #1f77b4; stroke: #1f77b4"/>
     <use xlink:href="#m3c12d973d5" x="292.974545" y="156.059885" style="fill: #1f77b4; stroke: #1f77b4"/>
     <use xlink:href="#m3c12d973d5" x="294.597818" y="154.870388" style="fill: #1f77b4; stroke: #1f77b4"/>
     <use xlink:href="#m3c12d973d5" x="296.221091" y="153.668498" style="fill: #1f77b4; stroke: #1f77b4"/>
     <use xlink:href="#m3c12d973d5" x="297.844364" y="152.454229" style="fill: #1f77b4; stroke: #1f77b4"/>
     <use xlink:href="#m3c12d973d5" x="299.467636" y="151.227595" style="fill: #1f77b4; stroke: #1f77b4"/>
     <use xlink:href="#m3c12d973d5" x="301.090909" y="149.98861" style="fill: #1f77b4; stroke: #1f77b4"/>
     <use xlink:href="#m3c12d973d5" x="302.714182" y="148.737288" style="fill: #1f77b4; stroke: #1f77b4"/>
     <use xlink:href="#m3c12d973d5" x="304.337455" y="147.473642" style="fill: #1f77b4; stroke: #1f77b4"/>
     <use xlink:href="#m3c12d973d5" x="305.960727" y="146.197688" style="fill: #1f77b4; stroke: #1f77b4"/>
     <use xlink:href="#m3c12d973d5" x="307.584" y="144.909437" style="fill: #1f77b4; stroke: #1f77b4"/>
     <use xlink:href="#m3c12d973d5" x="309.207273" y="143.608906" style="fill: #1f77b4; stroke: #1f77b4"/>
     <use xlink:href="#m3c12d973d5" x="310.830545" y="142.296106" style="fill: #1f77b4; stroke: #1f77b4"/>
     <use xlink:href="#m3c12d973d5" x="312.453818" y="140.971053" style="fill: #1f77b4; stroke: #1f77b4"/>
     <use xlink:href="#m3c12d973d5" x="314.077091" y="139.633761" style="fill: #1f77b4; stroke: #1f77b4"/>
     <use xlink:href="#m3c12d973d5" x="315.700364" y="138.284243" style="fill: #1f77b4; stroke: #1f77b4"/>
     <use xlink:href="#m3c12d973d5" x="317.323636" y="136.922512" style="fill: #1f77b4; stroke: #1f77b4"/>
     <use xlink:href="#m3c12d973d5" x="318.946909" y="135.548584" style="fill: #1f77b4; stroke: #1f77b4"/>
     <use xlink:href="#m3c12d973d5" x="320.570182" y="134.162471" style="fill: #1f77b4; stroke: #1f77b4"/>
     <use xlink:href="#m3c12d973d5" x="322.193455" y="132.764188" style="fill: #1f77b4; stroke: #1f77b4"/>
     <use xlink:href="#m3c12d973d5" x="323.816727" y="131.353748" style="fill: #1f77b4; stroke: #1f77b4"/>
     <use xlink:href="#m3c12d973d5" x="325.44" y="129.931166" style="fill: #1f77b4; stroke: #1f77b4"/>
     <use xlink:href="#m3c12d973d5" x="327.063273" y="128.496454" style="fill: #1f77b4; stroke: #1f77b4"/>
     <use xlink:href="#m3c12d973d5" x="328.686545" y="127.049628" style="fill: #1f77b4; stroke: #1f77b4"/>
     <use xlink:href="#m3c12d973d5" x="330.309818" y="125.590699" style="fill: #1f77b4; stroke: #1f77b4"/>
     <use xlink:href="#m3c12d973d5" x="331.933091" y="124.119683" style="fill: #1f77b4; stroke: #1f77b4"/>
     <use xlink:href="#m3c12d973d5" x="333.556364" y="122.636593" style="fill: #1f77b4; stroke: #1f77b4"/>
     <use xlink:href="#m3c12d973d5" x="335.179636" y="121.141442" style="fill: #1f77b4; stroke: #1f77b4"/>
     <use xlink:href="#m3c12d973d5" x="336.802909" y="119.634245" style="fill: #1f77b4; stroke: #1f77b4"/>
     <use xlink:href="#m3c12d973d5" x="338.426182" y="118.115014" style="fill: #1f77b4; stroke: #1f77b4"/>
     <use xlink:href="#m3c12d973d5" x="340.049455" y="116.583764" style="fill: #1f77b4; stroke: #1f77b4"/>
     <use xlink:href="#m3c12d973d5" x="341.672727" y="115.040508" style="fill: #1f77b4; stroke: #1f77b4"/>
     <use xlink:href="#m3c12d973d5" x="343.296" y="113.48526" style="fill: #1f77b4; stroke: #1f77b4"/>
     <use xlink:href="#m3c12d973d5" x="344.919273" y="111.918033" style="fill: #1f77b4; stroke: #1f77b4"/>
     <use xlink:href="#m3c12d973d5" x="346.542545" y="110.338842" style="fill: #1f77b4; stroke: #1f77b4"/>
     <use xlink:href="#m3c12d973d5" x="348.165818" y="108.747699" style="fill: #1f77b4; stroke: #1f77b4"/>
     <use xlink:href="#m3c12d973d5" x="349.789091" y="107.144618" style="fill: #1f77b4; stroke: #1f77b4"/>
     <use xlink:href="#m3c12d973d5" x="351.412364" y="105.529612" style="fill: #1f77b4; stroke: #1f77b4"/>
     <use xlink:href="#m3c12d973d5" x="353.035636" y="103.902696" style="fill: #1f77b4; stroke: #1f77b4"/>
     <use xlink:href="#m3c12d973d5" x="354.658909" y="102.263883" style="fill: #1f77b4; stroke: #1f77b4"/>
     <use xlink:href="#m3c12d973d5" x="356.282182" y="100.613186" style="fill: #1f77b4; stroke: #1f77b4"/>
     <use xlink:href="#m3c12d973d5" x="357.905455" y="98.950618" style="fill: #1f77b4; stroke: #1f77b4"/>
     <use xlink:href="#m3c12d973d5" x="359.528727" y="97.276194" style="fill: #1f77b4; stroke: #1f77b4"/>
     <use xlink:href="#m3c12d973d5" x="361.152" y="95.589927" style="fill: #1f77b4; stroke: #1f77b4"/>
     <use xlink:href="#m3c12d973d5" x="362.775273" y="93.89183" style="fill: #1f77b4; stroke: #1f77b4"/>
     <use xlink:href="#m3c12d973d5" x="364.398545" y="92.181916" style="fill: #1f77b4; stroke: #1f77b4"/>
     <use xlink:href="#m3c12d973d5" x="366.021818" y="90.4602" style="fill: #1f77b4; stroke: #1f77b4"/>
     <use xlink:href="#m3c12d973d5" x="367.645091" y="88.726694" style="fill: #1f77b4; stroke: #1f77b4"/>
     <use xlink:href="#m3c12d973d5" x="369.268364" y="86.981413" style="fill: #1f77b4; stroke: #1f77b4"/>
     <use xlink:href="#m3c12d973d5" x="370.891636" y="85.224369" style="fill: #1f77b4; stroke: #1f77b4"/>
     <use xlink:href="#m3c12d973d5" x="372.514909" y="83.455576" style="fill: #1f77b4; stroke: #1f77b4"/>
     <use xlink:href="#m3c12d973d5" x="374.138182" y="81.675048" style="fill: #1f77b4; stroke: #1f77b4"/>
     <use xlink:href="#m3c12d973d5" x="375.761455" y="79.882798" style="fill: #1f77b4; stroke: #1f77b4"/>
     <use xlink:href="#m3c12d973d5" x="377.384727" y="78.078839" style="fill: #1f77b4; stroke: #1f77b4"/>
     <use xlink:href="#m3c12d973d5" x="379.008" y="76.263184" style="fill: #1f77b4; stroke: #1f77b4"/>
     <use xlink:href="#m3c12d973d5" x="380.631273" y="74.435848" style="fill: #1f77b4; stroke: #1f77b4"/>
     <use xlink:href="#m3c12d973d5" x="382.254545" y="72.596844" style="fill: #1f77b4; stroke: #1f77b4"/>
     <use xlink:href="#m3c12d973d5" x="383.877818" y="70.746185" style="fill: #1f77b4; stroke: #1f77b4"/>
     <use xlink:href="#m3c12d973d5" x="385.501091" y="68.883885" style="fill: #1f77b4; stroke: #1f77b4"/>
     <use xlink:href="#m3c12d973d5" x="387.124364" y="67.009956" style="fill: #1f77b4; stroke: #1f77b4"/>
     <use xlink:href="#m3c12d973d5" x="388.747636" y="65.124413" style="fill: #1f77b4; stroke: #1f77b4"/>
     <use xlink:href="#m3c12d973d5" x="390.370909" y="63.227269" style="fill: #1f77b4; stroke: #1f77b4"/>
     <use xlink:href="#m3c12d973d5" x="391.994182" y="61.318537" style="fill: #1f77b4; stroke: #1f77b4"/>
     <use xlink:href="#m3c12d973d5" x="393.617455" y="59.39823" style="fill: #1f77b4; stroke: #1f77b4"/>
     <use xlink:href="#m3c12d973d5" x="395.240727" y="57.466363" style="fill: #1f77b4; stroke: #1f77b4"/>
     <use xlink:href="#m3c12d973d5" x="396.864" y="55.522949" style="fill: #1f77b4; stroke: #1f77b4"/>
     <use xlink:href="#m3c12d973d5" x="398.487273" y="53.568" style="fill: #1f77b4; stroke: #1f77b4"/>
    </g>
   </g>
   <g id="patch_3">
    <path d="M 57.6 307.584 
L 57.6 41.472 
" style="fill: none; stroke: #000000; stroke-width: 0.8; stroke-linejoin: miter; stroke-linecap: square"/>
   </g>
   <g id="patch_4">
    <path d="M 414.72 307.584 
L 414.72 41.472 
" style="fill: none; stroke: #000000; stroke-width: 0.8; stroke-linejoin: miter; stroke-linecap: square"/>
   </g>
   <g id="patch_5">
    <path d="M 57.6 307.584 
L 414.72 307.584 
" style="fill: none; stroke: #000000; stroke-width: 0.8; stroke-linejoin: miter; stroke-linecap: square"/>
   </g>
   <g id="patch_6">
    <path d="M 57.6 41.472 
L 414.72 41.472 
" style="fill: none; stroke: #000000; stroke-width: 0.8; stroke-linejoin: miter; stroke-linecap: square"/>
   </g>
  </g>
 </g>
 <defs>
  <clipPath id="pe7f129f070">
   <rect x="57.6" y="41.472" width="357.12" height="266.112"/>
  </clipPath>
 </defs>
</svg>
