<?xml version="1.0" encoding="utf-8" standalone="no"?>
<!DOCTYPE svg PUBLIC "-//W3C//DTD SVG 1.1//EN"
  "http://www.w3.org/Graphics/SVG/1.1/DTD/svg11.dtd">
<svg xmlns:xlink="http://www.w3.org/1999/xlink" width="460.8pt" height="345.6pt" viewBox="0 0 460.8 345.6" xmlns="http://www.w3.org/2000/svg" version="1.1">
 <metadata>
  <rdf:RDF xmlns:dc="http://purl.org/dc/elements/1.1/" xmlns:cc="http://creativecommons.org/ns#" xmlns:rdf="http://www.w3.org/1999/02/22-rdf-syntax-ns#">
   <cc:Work>
    <dc:type rdf:resource="http://purl.org/dc/dcmitype/StillImage"/>
    <dc:date>2022-01-02T13:09:13.824072</dc:date>
    <dc:format>image/svg+xml</dc:format>
    <dc:creator>
     <cc:Agent>
      <dc:title>Matplotlib v3.5.0, https://matplotlib.org/</dc:title>
     </cc:Agent>
    </dc:creator>
   </cc:Work>
  </rdf:RDF>
 </metadata>
 <defs>
  <style type="text/css">*{stroke-linejoin: round; stroke-linecap: butt}</style>
 </defs>
 <g id="figure_1">
  <g id="patch_1">
   <path d="M 0 345.6 
L 460.8 345.6 
L 460.8 0 
L 0 0 
z
" style="fill: #ffffff"/>
  </g>
  <g id="axes_1">
   <g id="patch_2">
    <path d="M 57.6 307.584 
L 414.72 307.584 
L 414.72 41.472 
L 57.6 41.472 
z
" style="fill: #ffffff"/>
   </g>
   <g id="matplotlib.axis_1">
    <g id="xtick_1">
     <g id="line2d_1">
      <defs>
       <path id="ma6183ec08d" d="M 0 0 
L 0 3.5 
" style="stroke: #000000; stroke-width: 0.8"/>
      </defs>
      <g>
       <use xlink:href="#ma6183ec08d" x="73.832727" y="307.584" style="stroke: #000000; stroke-width: 0.8"/>
      </g>
     </g>
     <g id="text_1">
      <!-- 0.0 -->
      <g transform="translate(65.881165 322.182437)scale(0.1 -0.1)">
       <defs>
        <path id="DejaVuSans-30" d="M 2034 4250 
Q 1547 4250 1301 3770 
Q 1056 3291 1056 2328 
Q 1056 1369 1301 889 
Q 1547 409 2034 409 
Q 2525 409 2770 889 
Q 3016 1369 3016 2328 
Q 3016 3291 2770 3770 
Q 2525 4250 2034 4250 
z
M 2034 4750 
Q 2819 4750 3233 4129 
Q 3647 3509 3647 2328 
Q 3647 1150 3233 529 
Q 2819 -91 2034 -91 
Q 1250 -91 836 529 
Q 422 1150 422 2328 
Q 422 3509 836 4129 
Q 1250 4750 2034 4750 
z
" transform="scale(0.015625)"/>
        <path id="DejaVuSans-2e" d="M 684 794 
L 1344 794 
L 1344 0 
L 684 0 
L 684 794 
z
" transform="scale(0.015625)"/>
       </defs>
       <use xlink:href="#DejaVuSans-30"/>
       <use xlink:href="#DejaVuSans-2e" x="63.623047"/>
       <use xlink:href="#DejaVuSans-30" x="95.410156"/>
      </g>
     </g>
    </g>
    <g id="xtick_2">
     <g id="line2d_2">
      <g>
       <use xlink:href="#ma6183ec08d" x="138.763636" y="307.584" style="stroke: #000000; stroke-width: 0.8"/>
      </g>
     </g>
     <g id="text_2">
      <!-- 0.2 -->
      <g transform="translate(130.812074 322.182437)scale(0.1 -0.1)">
       <defs>
        <path id="DejaVuSans-32" d="M 1228 531 
L 3431 531 
L 3431 0 
L 469 0 
L 469 531 
Q 828 903 1448 1529 
Q 2069 2156 2228 2338 
Q 2531 2678 2651 2914 
Q 2772 3150 2772 3378 
Q 2772 3750 2511 3984 
Q 2250 4219 1831 4219 
Q 1534 4219 1204 4116 
Q 875 4013 500 3803 
L 500 4441 
Q 881 4594 1212 4672 
Q 1544 4750 1819 4750 
Q 2544 4750 2975 4387 
Q 3406 4025 3406 3419 
Q 3406 3131 3298 2873 
Q 3191 2616 2906 2266 
Q 2828 2175 2409 1742 
Q 1991 1309 1228 531 
z
" transform="scale(0.015625)"/>
       </defs>
       <use xlink:href="#DejaVuSans-30"/>
       <use xlink:href="#DejaVuSans-2e" x="63.623047"/>
       <use xlink:href="#DejaVuSans-32" x="95.410156"/>
      </g>
     </g>
    </g>
    <g id="xtick_3">
     <g id="line2d_3">
      <g>
       <use xlink:href="#ma6183ec08d" x="203.694545" y="307.584" style="stroke: #000000; stroke-width: 0.8"/>
      </g>
     </g>
     <g id="text_3">
      <!-- 0.4 -->
      <g transform="translate(195.742983 322.182437)scale(0.1 -0.1)">
       <defs>
        <path id="DejaVuSans-34" d="M 2419 4116 
L 825 1625 
L 2419 1625 
L 2419 4116 
z
M 2253 4666 
L 3047 4666 
L 3047 1625 
L 3713 1625 
L 3713 1100 
L 3047 1100 
L 3047 0 
L 2419 0 
L 2419 1100 
L 313 1100 
L 313 1709 
L 2253 4666 
z
" transform="scale(0.015625)"/>
       </defs>
       <use xlink:href="#DejaVuSans-30"/>
       <use xlink:href="#DejaVuSans-2e" x="63.623047"/>
       <use xlink:href="#DejaVuSans-34" x="95.410156"/>
      </g>
     </g>
    </g>
    <g id="xtick_4">
     <g id="line2d_4">
      <g>
       <use xlink:href="#ma6183ec08d" x="268.625455" y="307.584" style="stroke: #000000; stroke-width: 0.8"/>
      </g>
     </g>
     <g id="text_4">
      <!-- 0.6 -->
      <g transform="translate(260.673892 322.182437)scale(0.1 -0.1)">
       <defs>
        <path id="DejaVuSans-36" d="M 2113 2584 
Q 1688 2584 1439 2293 
Q 1191 2003 1191 1497 
Q 1191 994 1439 701 
Q 1688 409 2113 409 
Q 2538 409 2786 701 
Q 3034 994 3034 1497 
Q 3034 2003 2786 2293 
Q 2538 2584 2113 2584 
z
M 3366 4563 
L 3366 3988 
Q 3128 4100 2886 4159 
Q 2644 4219 2406 4219 
Q 1781 4219 1451 3797 
Q 1122 3375 1075 2522 
Q 1259 2794 1537 2939 
Q 1816 3084 2150 3084 
Q 2853 3084 3261 2657 
Q 3669 2231 3669 1497 
Q 3669 778 3244 343 
Q 2819 -91 2113 -91 
Q 1303 -91 875 529 
Q 447 1150 447 2328 
Q 447 3434 972 4092 
Q 1497 4750 2381 4750 
Q 2619 4750 2861 4703 
Q 3103 4656 3366 4563 
z
" transform="scale(0.015625)"/>
       </defs>
       <use xlink:href="#DejaVuSans-30"/>
       <use xlink:href="#DejaVuSans-2e" x="63.623047"/>
       <use xlink:href="#DejaVuSans-36" x="95.410156"/>
      </g>
     </g>
    </g>
    <g id="xtick_5">
     <g id="line2d_5">
      <g>
       <use xlink:href="#ma6183ec08d" x="333.556364" y="307.584" style="stroke: #000000; stroke-width: 0.8"/>
      </g>
     </g>
     <g id="text_5">
      <!-- 0.8 -->
      <g transform="translate(325.604801 322.182437)scale(0.1 -0.1)">
       <defs>
        <path id="DejaVuSans-38" d="M 2034 2216 
Q 1584 2216 1326 1975 
Q 1069 1734 1069 1313 
Q 1069 891 1326 650 
Q 1584 409 2034 409 
Q 2484 409 2743 651 
Q 3003 894 3003 1313 
Q 3003 1734 2745 1975 
Q 2488 2216 2034 2216 
z
M 1403 2484 
Q 997 2584 770 2862 
Q 544 3141 544 3541 
Q 544 4100 942 4425 
Q 1341 4750 2034 4750 
Q 2731 4750 3128 4425 
Q 3525 4100 3525 3541 
Q 3525 3141 3298 2862 
Q 3072 2584 2669 2484 
Q 3125 2378 3379 2068 
Q 3634 1759 3634 1313 
Q 3634 634 3220 271 
Q 2806 -91 2034 -91 
Q 1263 -91 848 271 
Q 434 634 434 1313 
Q 434 1759 690 2068 
Q 947 2378 1403 2484 
z
M 1172 3481 
Q 1172 3119 1398 2916 
Q 1625 2713 2034 2713 
Q 2441 2713 2670 2916 
Q 2900 3119 2900 3481 
Q 2900 3844 2670 4047 
Q 2441 4250 2034 4250 
Q 1625 4250 1398 4047 
Q 1172 3844 1172 3481 
z
" transform="scale(0.015625)"/>
       </defs>
       <use xlink:href="#DejaVuSans-30"/>
       <use xlink:href="#DejaVuSans-2e" x="63.623047"/>
       <use xlink:href="#DejaVuSans-38" x="95.410156"/>
      </g>
     </g>
    </g>
    <g id="xtick_6">
     <g id="line2d_6">
      <g>
       <use xlink:href="#ma6183ec08d" x="398.487273" y="307.584" style="stroke: #000000; stroke-width: 0.8"/>
      </g>
     </g>
     <g id="text_6">
      <!-- 1.0 -->
      <g transform="translate(390.53571 322.182437)scale(0.1 -0.1)">
       <defs>
        <path id="DejaVuSans-31" d="M 794 531 
L 1825 531 
L 1825 4091 
L 703 3866 
L 703 4441 
L 1819 4666 
L 2450 4666 
L 2450 531 
L 3481 531 
L 3481 0 
L 794 0 
L 794 531 
z
" transform="scale(0.015625)"/>
       </defs>
       <use xlink:href="#DejaVuSans-31"/>
       <use xlink:href="#DejaVuSans-2e" x="63.623047"/>
       <use xlink:href="#DejaVuSans-30" x="95.410156"/>
      </g>
     </g>
    </g>
   </g>
   <g id="matplotlib.axis_2">
    <g id="ytick_1">
     <g id="line2d_7">
      <defs>
       <path id="m8be22e348e" d="M 0 0 
L -3.5 0 
" style="stroke: #000000; stroke-width: 0.8"/>
      </defs>
      <g>
       <use xlink:href="#m8be22e348e" x="57.6" y="295.488" style="stroke: #000000; stroke-width: 0.8"/>
      </g>
     </g>
     <g id="text_7">
      <!-- 0.0 -->
      <g transform="translate(34.696875 299.287219)scale(0.1 -0.1)">
       <use xlink:href="#DejaVuSans-30"/>
       <use xlink:href="#DejaVuSans-2e" x="63.623047"/>
       <use xlink:href="#DejaVuSans-30" x="95.410156"/>
      </g>
     </g>
    </g>
    <g id="ytick_2">
     <g id="line2d_8">
      <g>
       <use xlink:href="#m8be22e348e" x="57.6" y="264.307536" style="stroke: #000000; stroke-width: 0.8"/>
      </g>
     </g>
     <g id="text_8">
      <!-- 0.2 -->
      <g transform="translate(34.696875 268.106755)scale(0.1 -0.1)">
       <use xlink:href="#DejaVuSans-30"/>
       <use xlink:href="#DejaVuSans-2e" x="63.623047"/>
       <use xlink:href="#DejaVuSans-32" x="95.410156"/>
      </g>
     </g>
    </g>
    <g id="ytick_3">
     <g id="line2d_9">
      <g>
       <use xlink:href="#m8be22e348e" x="57.6" y="233.127072" style="stroke: #000000; stroke-width: 0.8"/>
      </g>
     </g>
     <g id="text_9">
      <!-- 0.4 -->
      <g transform="translate(34.696875 236.926291)scale(0.1 -0.1)">
       <use xlink:href="#DejaVuSans-30"/>
       <use xlink:href="#DejaVuSans-2e" x="63.623047"/>
       <use xlink:href="#DejaVuSans-34" x="95.410156"/>
      </g>
     </g>
    </g>
    <g id="ytick_4">
     <g id="line2d_10">
      <g>
       <use xlink:href="#m8be22e348e" x="57.6" y="201.946609" style="stroke: #000000; stroke-width: 0.8"/>
      </g>
     </g>
     <g id="text_10">
      <!-- 0.6 -->
      <g transform="translate(34.696875 205.745827)scale(0.1 -0.1)">
       <use xlink:href="#DejaVuSans-30"/>
       <use xlink:href="#DejaVuSans-2e" x="63.623047"/>
       <use xlink:href="#DejaVuSans-36" x="95.410156"/>
      </g>
     </g>
    </g>
    <g id="ytick_5">
     <g id="line2d_11">
      <g>
       <use xlink:href="#m8be22e348e" x="57.6" y="170.766145" style="stroke: #000000; stroke-width: 0.8"/>
      </g>
     </g>
     <g id="text_11">
      <!-- 0.8 -->
      <g transform="translate(34.696875 174.565364)scale(0.1 -0.1)">
       <use xlink:href="#DejaVuSans-30"/>
       <use xlink:href="#DejaVuSans-2e" x="63.623047"/>
       <use xlink:href="#DejaVuSans-38" x="95.410156"/>
      </g>
     </g>
    </g>
    <g id="ytick_6">
     <g id="line2d_12">
      <g>
       <use xlink:href="#m8be22e348e" x="57.6" y="139.585681" style="stroke: #000000; stroke-width: 0.8"/>
      </g>
     </g>
     <g id="text_12">
      <!-- 1.0 -->
      <g transform="translate(34.696875 143.3849)scale(0.1 -0.1)">
       <use xlink:href="#DejaVuSans-31"/>
       <use xlink:href="#DejaVuSans-2e" x="63.623047"/>
       <use xlink:href="#DejaVuSans-30" x="95.410156"/>
      </g>
     </g>
    </g>
    <g id="ytick_7">
     <g id="line2d_13">
      <g>
       <use xlink:href="#m8be22e348e" x="57.6" y="108.405217" style="stroke: #000000; stroke-width: 0.8"/>
      </g>
     </g>
     <g id="text_13">
      <!-- 1.2 -->
      <g transform="translate(34.696875 112.204436)scale(0.1 -0.1)">
       <use xlink:href="#DejaVuSans-31"/>
       <use xlink:href="#DejaVuSans-2e" x="63.623047"/>
       <use xlink:href="#DejaVuSans-32" x="95.410156"/>
      </g>
     </g>
    </g>
    <g id="ytick_8">
     <g id="line2d_14">
      <g>
       <use xlink:href="#m8be22e348e" x="57.6" y="77.224754" style="stroke: #000000; stroke-width: 0.8"/>
      </g>
     </g>
     <g id="text_14">
      <!-- 1.4 -->
      <g transform="translate(34.696875 81.023972)scale(0.1 -0.1)">
       <use xlink:href="#DejaVuSans-31"/>
       <use xlink:href="#DejaVuSans-2e" x="63.623047"/>
       <use xlink:href="#DejaVuSans-34" x="95.410156"/>
      </g>
     </g>
    </g>
    <g id="ytick_9">
     <g id="line2d_15">
      <g>
       <use xlink:href="#m8be22e348e" x="57.6" y="46.04429" style="stroke: #000000; stroke-width: 0.8"/>
      </g>
     </g>
     <g id="text_15">
      <!-- 1.6 -->
      <g transform="translate(34.696875 49.843509)scale(0.1 -0.1)">
       <use xlink:href="#DejaVuSans-31"/>
       <use xlink:href="#DejaVuSans-2e" x="63.623047"/>
       <use xlink:href="#DejaVuSans-36" x="95.410156"/>
      </g>
     </g>
    </g>
   </g>
   <g id="line2d_16">
    <defs>
     <path id="mb9e1cae91c" d="M 0 3 
C 0.795609 3 1.55874 2.683901 2.12132 2.12132 
C 2.683901 1.55874 3 0.795609 3 0 
C 3 -0.795609 2.683901 -1.55874 2.12132 -2.12132 
C 1.55874 -2.683901 0.795609 -3 0 -3 
C -0.795609 -3 -1.55874 -2.683901 -2.12132 -2.12132 
C -2.683901 -1.55874 -3 -0.795609 -3 0 
C -3 0.795609 -2.683901 1.55874 -2.12132 2.12132 
C -1.55874 2.683901 -0.795609 3 0 3 
z
" style="stroke: #1f77b4"/>
    </defs>
    <g clip-path="url(#p63219dd6aa)">
     <use xlink:href="#mb9e1cae91c" x="73.832727" y="295.488" style="fill: #1f77b4; stroke: #1f77b4"/>
     <use xlink:href="#mb9e1cae91c" x="75.456" y="295.488" style="fill: #1f77b4; stroke: #1f77b4"/>
     <use xlink:href="#mb9e1cae91c" x="77.079273" y="295.488" style="fill: #1f77b4; stroke: #1f77b4"/>
     <use xlink:href="#mb9e1cae91c" x="78.702545" y="295.488" style="fill: #1f77b4; stroke: #1f77b4"/>
     <use xlink:href="#mb9e1cae91c" x="80.325818" y="295.488" style="fill: #1f77b4; stroke: #1f77b4"/>
     <use xlink:href="#mb9e1cae91c" x="81.949091" y="295.488" style="fill: #1f77b4; stroke: #1f77b4"/>
     <use xlink:href="#mb9e1cae91c" x="83.572364" y="295.488" style="fill: #1f77b4; stroke: #1f77b4"/>
     <use xlink:href="#mb9e1cae91c" x="85.195636" y="295.488" style="fill: #1f77b4; stroke: #1f77b4"/>
     <use xlink:href="#mb9e1cae91c" x="86.818909" y="295.488" style="fill: #1f77b4; stroke: #1f77b4"/>
     <use xlink:href="#mb9e1cae91c" x="88.442182" y="295.488" style="fill: #1f77b4; stroke: #1f77b4"/>
     <use xlink:href="#mb9e1cae91c" x="90.065455" y="295.488" style="fill: #1f77b4; stroke: #1f77b4"/>
     <use xlink:href="#mb9e1cae91c" x="91.688727" y="295.488" style="fill: #1f77b4; stroke: #1f77b4"/>
     <use xlink:href="#mb9e1cae91c" x="93.312" y="295.488" style="fill: #1f77b4; stroke: #1f77b4"/>
     <use xlink:href="#mb9e1cae91c" x="94.935273" y="295.488" style="fill: #1f77b4; stroke: #1f77b4"/>
     <use xlink:href="#mb9e1cae91c" x="96.558545" y="295.488" style="fill: #1f77b4; stroke: #1f77b4"/>
     <use xlink:href="#mb9e1cae91c" x="98.181818" y="295.488" style="fill: #1f77b4; stroke: #1f77b4"/>
     <use xlink:href="#mb9e1cae91c" x="99.805091" y="295.488" style="fill: #1f77b4; stroke: #1f77b4"/>
     <use xlink:href="#mb9e1cae91c" x="101.428364" y="295.488" style="fill: #1f77b4; stroke: #1f77b4"/>
     <use xlink:href="#mb9e1cae91c" x="103.051636" y="295.488" style="fill: #1f77b4; stroke: #1f77b4"/>
     <use xlink:href="#mb9e1cae91c" x="104.674909" y="295.488" style="fill: #1f77b4; stroke: #1f77b4"/>
     <use xlink:href="#mb9e1cae91c" x="106.298182" y="295.488" style="fill: #1f77b4; stroke: #1f77b4"/>
     <use xlink:href="#mb9e1cae91c" x="107.921455" y="295.488" style="fill: #1f77b4; stroke: #1f77b4"/>
     <use xlink:href="#mb9e1cae91c" x="109.544727" y="295.488" style="fill: #1f77b4; stroke: #1f77b4"/>
     <use xlink:href="#mb9e1cae91c" x="111.168" y="295.488" style="fill: #1f77b4; stroke: #1f77b4"/>
     <use xlink:href="#mb9e1cae91c" x="112.791273" y="295.488" style="fill: #1f77b4; stroke: #1f77b4"/>
     <use xlink:href="#mb9e1cae91c" x="114.414545" y="295.488" style="fill: #1f77b4; stroke: #1f77b4"/>
     <use xlink:href="#mb9e1cae91c" x="116.037818" y="295.488" style="fill: #1f77b4; stroke: #1f77b4"/>
     <use xlink:href="#mb9e1cae91c" x="117.661091" y="295.488" style="fill: #1f77b4; stroke: #1f77b4"/>
     <use xlink:href="#mb9e1cae91c" x="119.284364" y="295.488" style="fill: #1f77b4; stroke: #1f77b4"/>
     <use xlink:href="#mb9e1cae91c" x="120.907636" y="295.488" style="fill: #1f77b4; stroke: #1f77b4"/>
     <use xlink:href="#mb9e1cae91c" x="122.530909" y="295.488" style="fill: #1f77b4; stroke: #1f77b4"/>
     <use xlink:href="#mb9e1cae91c" x="124.154182" y="295.488" style="fill: #1f77b4; stroke: #1f77b4"/>
     <use xlink:href="#mb9e1cae91c" x="125.777455" y="295.488" style="fill: #1f77b4; stroke: #1f77b4"/>
     <use xlink:href="#mb9e1cae91c" x="127.400727" y="295.488" style="fill: #1f77b4; stroke: #1f77b4"/>
     <use xlink:href="#mb9e1cae91c" x="129.024" y="295.488" style="fill: #1f77b4; stroke: #1f77b4"/>
     <use xlink:href="#mb9e1cae91c" x="130.647273" y="295.488" style="fill: #1f77b4; stroke: #1f77b4"/>
     <use xlink:href="#mb9e1cae91c" x="132.270545" y="295.488" style="fill: #1f77b4; stroke: #1f77b4"/>
     <use xlink:href="#mb9e1cae91c" x="133.893818" y="295.488" style="fill: #1f77b4; stroke: #1f77b4"/>
     <use xlink:href="#mb9e1cae91c" x="135.517091" y="295.488" style="fill: #1f77b4; stroke: #1f77b4"/>
     <use xlink:href="#mb9e1cae91c" x="137.140364" y="295.488" style="fill: #1f77b4; stroke: #1f77b4"/>
     <use xlink:href="#mb9e1cae91c" x="138.763636" y="203.733487" style="fill: #1f77b4; stroke: #1f77b4"/>
     <use xlink:href="#mb9e1cae91c" x="140.386909" y="203.73303" style="fill: #1f77b4; stroke: #1f77b4"/>
     <use xlink:href="#mb9e1cae91c" x="142.010182" y="203.731243" style="fill: #1f77b4; stroke: #1f77b4"/>
     <use xlink:href="#mb9e1cae91c" x="143.633455" y="203.727317" style="fill: #1f77b4; stroke: #1f77b4"/>
     <use xlink:href="#mb9e1cae91c" x="145.256727" y="203.720497" style="fill: #1f77b4; stroke: #1f77b4"/>
     <use xlink:href="#mb9e1cae91c" x="146.88" y="203.710076" style="fill: #1f77b4; stroke: #1f77b4"/>
     <use xlink:href="#mb9e1cae91c" x="148.503273" y="203.695397" style="fill: #1f77b4; stroke: #1f77b4"/>
     <use xlink:href="#mb9e1cae91c" x="150.126545" y="203.675844" style="fill: #1f77b4; stroke: #1f77b4"/>
     <use xlink:href="#mb9e1cae91c" x="151.749818" y="203.650839" style="fill: #1f77b4; stroke: #1f77b4"/>
     <use xlink:href="#mb9e1cae91c" x="153.373091" y="203.619841" style="fill: #1f77b4; stroke: #1f77b4"/>
     <use xlink:href="#mb9e1cae91c" x="154.996364" y="203.582341" style="fill: #1f77b4; stroke: #1f77b4"/>
     <use xlink:href="#mb9e1cae91c" x="156.619636" y="203.537864" style="fill: #1f77b4; stroke: #1f77b4"/>
     <use xlink:href="#mb9e1cae91c" x="158.242909" y="203.485958" style="fill: #1f77b4; stroke: #1f77b4"/>
     <use xlink:href="#mb9e1cae91c" x="159.866182" y="203.426203" style="fill: #1f77b4; stroke: #1f77b4"/>
     <use xlink:href="#mb9e1cae91c" x="161.489455" y="203.358201" style="fill: #1f77b4; stroke: #1f77b4"/>
     <use xlink:href="#mb9e1cae91c" x="163.112727" y="203.281576" style="fill: #1f77b4; stroke: #1f77b4"/>
     <use xlink:href="#mb9e1cae91c" x="164.736" y="203.195975" style="fill: #1f77b4; stroke: #1f77b4"/>
     <use xlink:href="#mb9e1cae91c" x="166.359273" y="203.101066" style="fill: #1f77b4; stroke: #1f77b4"/>
     <use xlink:href="#mb9e1cae91c" x="167.982545" y="202.996534" style="fill: #1f77b4; stroke: #1f77b4"/>
     <use xlink:href="#mb9e1cae91c" x="169.605818" y="202.882082" style="fill: #1f77b4; stroke: #1f77b4"/>
     <use xlink:href="#mb9e1cae91c" x="171.229091" y="202.757431" style="fill: #1f77b4; stroke: #1f77b4"/>
     <use xlink:href="#mb9e1cae91c" x="172.852364" y="202.622317" style="fill: #1f77b4; stroke: #1f77b4"/>
     <use xlink:href="#mb9e1cae91c" x="174.475636" y="202.47649" style="fill: #1f77b4; stroke: #1f77b4"/>
     <use xlink:href="#mb9e1cae91c" x="176.098909" y="202.319714" style="fill: #1f77b4; stroke: #1f77b4"/>
     <use xlink:href="#mb9e1cae91c" x="177.722182" y="202.151768" style="fill: #1f77b4; stroke: #1f77b4"/>
     <use xlink:href="#mb9e1cae91c" x="179.345455" y="201.972441" style="fill: #1f77b4; stroke: #1f77b4"/>
     <use xlink:href="#mb9e1cae91c" x="180.968727" y="201.781535" style="fill: #1f77b4; stroke: #1f77b4"/>
     <use xlink:href="#mb9e1cae91c" x="182.592" y="201.578864" style="fill: #1f77b4; stroke: #1f77b4"/>
     <use xlink:href="#mb9e1cae91c" x="184.215273" y="201.36425" style="fill: #1f77b4; stroke: #1f77b4"/>
     <use xlink:href="#mb9e1cae91c" x="185.838545" y="201.137529" style="fill: #1f77b4; stroke: #1f77b4"/>
     <use xlink:href="#mb9e1cae91c" x="187.461818" y="200.898542" style="fill: #1f77b4; stroke: #1f77b4"/>
     <use xlink:href="#mb9e1cae91c" x="189.085091" y="200.647143" style="fill: #1f77b4; stroke: #1f77b4"/>
     <use xlink:href="#mb9e1cae91c" x="190.708364" y="200.383192" style="fill: #1f77b4; stroke: #1f77b4"/>
     <use xlink:href="#mb9e1cae91c" x="192.331636" y="200.106559" style="fill: #1f77b4; stroke: #1f77b4"/>
     <use xlink:href="#mb9e1cae91c" x="193.954909" y="199.817119" style="fill: #1f77b4; stroke: #1f77b4"/>
     <use xlink:href="#mb9e1cae91c" x="195.578182" y="199.514759" style="fill: #1f77b4; stroke: #1f77b4"/>
     <use xlink:href="#mb9e1cae91c" x="197.201455" y="199.199368" style="fill: #1f77b4; stroke: #1f77b4"/>
     <use xlink:href="#mb9e1cae91c" x="198.824727" y="198.870845" style="fill: #1f77b4; stroke: #1f77b4"/>
     <use xlink:href="#mb9e1cae91c" x="200.448" y="198.529095" style="fill: #1f77b4; stroke: #1f77b4"/>
     <use xlink:href="#mb9e1cae91c" x="202.071273" y="198.174029" style="fill: #1f77b4; stroke: #1f77b4"/>
     <use xlink:href="#mb9e1cae91c" x="203.694545" y="197.805562" style="fill: #1f77b4; stroke: #1f77b4"/>
     <use xlink:href="#mb9e1cae91c" x="205.317818" y="197.423618" style="fill: #1f77b4; stroke: #1f77b4"/>
     <use xlink:href="#mb9e1cae91c" x="206.941091" y="197.028122" style="fill: #1f77b4; stroke: #1f77b4"/>
     <use xlink:href="#mb9e1cae91c" x="208.564364" y="196.619009" style="fill: #1f77b4; stroke: #1f77b4"/>
     <use xlink:href="#mb9e1cae91c" x="210.187636" y="196.196215" style="fill: #1f77b4; stroke: #1f77b4"/>
     <use xlink:href="#mb9e1cae91c" x="211.810909" y="195.759683" style="fill: #1f77b4; stroke: #1f77b4"/>
     <use xlink:href="#mb9e1cae91c" x="213.434182" y="195.309358" style="fill: #1f77b4; stroke: #1f77b4"/>
     <use xlink:href="#mb9e1cae91c" x="215.057455" y="194.845191" style="fill: #1f77b4; stroke: #1f77b4"/>
     <use xlink:href="#mb9e1cae91c" x="216.680727" y="194.367136" style="fill: #1f77b4; stroke: #1f77b4"/>
     <use xlink:href="#mb9e1cae91c" x="218.304" y="193.875152" style="fill: #1f77b4; stroke: #1f77b4"/>
     <use xlink:href="#mb9e1cae91c" x="219.927273" y="193.369201" style="fill: #1f77b4; stroke: #1f77b4"/>
     <use xlink:href="#mb9e1cae91c" x="221.550545" y="192.849249" style="fill: #1f77b4; stroke: #1f77b4"/>
     <use xlink:href="#mb9e1cae91c" x="223.173818" y="192.315263" style="fill: #1f77b4; stroke: #1f77b4"/>
     <use xlink:href="#mb9e1cae91c" x="224.797091" y="191.767217" style="fill: #1f77b4; stroke: #1f77b4"/>
     <use xlink:href="#mb9e1cae91c" x="226.420364" y="191.205084" style="fill: #1f77b4; stroke: #1f77b4"/>
     <use xlink:href="#mb9e1cae91c" x="228.043636" y="190.628842" style="fill: #1f77b4; stroke: #1f77b4"/>
     <use xlink:href="#mb9e1cae91c" x="229.666909" y="190.038473" style="fill: #1f77b4; stroke: #1f77b4"/>
     <use xlink:href="#mb9e1cae91c" x="231.290182" y="189.433959" style="fill: #1f77b4; stroke: #1f77b4"/>
     <use xlink:href="#mb9e1cae91c" x="232.913455" y="188.815285" style="fill: #1f77b4; stroke: #1f77b4"/>
     <use xlink:href="#mb9e1cae91c" x="234.536727" y="188.18244" style="fill: #1f77b4; stroke: #1f77b4"/>
     <use xlink:href="#mb9e1cae91c" x="236.16" y="187.535413" style="fill: #1f77b4; stroke: #1f77b4"/>
     <use xlink:href="#mb9e1cae91c" x="237.783273" y="186.874197" style="fill: #1f77b4; stroke: #1f77b4"/>
     <use xlink:href="#mb9e1cae91c" x="239.406545" y="186.198786" style="fill: #1f77b4; stroke: #1f77b4"/>
     <use xlink:href="#mb9e1cae91c" x="241.029818" y="185.509176" style="fill: #1f77b4; stroke: #1f77b4"/>
     <use xlink:href="#mb9e1cae91c" x="242.653091" y="184.805365" style="fill: #1f77b4; stroke: #1f77b4"/>
     <use xlink:href="#mb9e1cae91c" x="244.276364" y="184.087352" style="fill: #1f77b4; stroke: #1f77b4"/>
     <use xlink:href="#mb9e1cae91c" x="245.899636" y="183.355139" style="fill: #1f77b4; stroke: #1f77b4"/>
     <use xlink:href="#mb9e1cae91c" x="247.522909" y="182.608729" style="fill: #1f77b4; stroke: #1f77b4"/>
     <use xlink:href="#mb9e1cae91c" x="249.146182" y="181.848126" style="fill: #1f77b4; stroke: #1f77b4"/>
     <use xlink:href="#mb9e1cae91c" x="250.769455" y="181.073335" style="fill: #1f77b4; stroke: #1f77b4"/>
     <use xlink:href="#mb9e1cae91c" x="252.392727" y="180.284363" style="fill: #1f77b4; stroke: #1f77b4"/>
     <use xlink:href="#mb9e1cae91c" x="254.016" y="179.481219" style="fill: #1f77b4; stroke: #1f77b4"/>
     <use xlink:href="#mb9e1cae91c" x="255.639273" y="178.663912" style="fill: #1f77b4; stroke: #1f77b4"/>
     <use xlink:href="#mb9e1cae91c" x="257.262545" y="177.832451" style="fill: #1f77b4; stroke: #1f77b4"/>
     <use xlink:href="#mb9e1cae91c" x="258.885818" y="176.98685" style="fill: #1f77b4; stroke: #1f77b4"/>
     <use xlink:href="#mb9e1cae91c" x="260.509091" y="176.127119" style="fill: #1f77b4; stroke: #1f77b4"/>
     <use xlink:href="#mb9e1cae91c" x="262.132364" y="175.253272" style="fill: #1f77b4; stroke: #1f77b4"/>
     <use xlink:href="#mb9e1cae91c" x="263.755636" y="174.365323" style="fill: #1f77b4; stroke: #1f77b4"/>
     <use xlink:href="#mb9e1cae91c" x="265.378909" y="173.463288" style="fill: #1f77b4; stroke: #1f77b4"/>
     <use xlink:href="#mb9e1cae91c" x="267.002182" y="172.547182" style="fill: #1f77b4; stroke: #1f77b4"/>
     <use xlink:href="#mb9e1cae91c" x="268.625455" y="171.61702" style="fill: #1f77b4; stroke: #1f77b4"/>
     <use xlink:href="#mb9e1cae91c" x="270.248727" y="170.672821" style="fill: #1f77b4; stroke: #1f77b4"/>
     <use xlink:href="#mb9e1cae91c" x="271.872" y="169.714602" style="fill: #1f77b4; stroke: #1f77b4"/>
     <use xlink:href="#mb9e1cae91c" x="273.495273" y="168.742381" style="fill: #1f77b4; stroke: #1f77b4"/>
     <use xlink:href="#mb9e1cae91c" x="275.118545" y="167.756177" style="fill: #1f77b4; stroke: #1f77b4"/>
     <use xlink:href="#mb9e1cae91c" x="276.741818" y="166.756008" style="fill: #1f77b4; stroke: #1f77b4"/>
     <use xlink:href="#mb9e1cae91c" x="278.365091" y="165.741895" style="fill: #1f77b4; stroke: #1f77b4"/>
     <use xlink:href="#mb9e1cae91c" x="279.988364" y="164.713858" style="fill: #1f77b4; stroke: #1f77b4"/>
     <use xlink:href="#mb9e1cae91c" x="281.611636" y="163.671917" style="fill: #1f77b4; stroke: #1f77b4"/>
     <use xlink:href="#mb9e1cae91c" x="283.234909" y="162.616093" style="fill: #1f77b4; stroke: #1f77b4"/>
     <use xlink:href="#mb9e1cae91c" x="284.858182" y="161.546407" style="fill: #1f77b4; stroke: #1f77b4"/>
     <use xlink:href="#mb9e1cae91c" x="286.481455" y="160.46288" style="fill: #1f77b4; stroke: #1f77b4"/>
     <use xlink:href="#mb9e1cae91c" x="288.104727" y="159.365535" style="fill: #1f77b4; stroke: #1f77b4"/>
     <use xlink:href="#mb9e1cae91c" x="289.728" y="158.254392" style="fill: #1f77b4; stroke: #1f77b4"/>
     <use xlink:href="#mb9e1cae91c" x="291.351273" y="157.129475" style="fill: #1f77b4; stroke: #1f77b4"/>
     <use xlink:href="#mb9e1cae91c" x="292.974545" y="155.990806" style="fill: #1f77b4; stroke: #1f77b4"/>
     <use xlink:href="#mb9e1cae91c" x="294.597818" y="154.838406" style="fill: #1f77b4; stroke: #1f77b4"/>
     <use xlink:href="#mb9e1cae91c" x="296.221091" y="153.6723" style="fill: #1f77b4; stroke: #1f77b4"/>
     <use xlink:href="#mb9e1cae91c" x="297.844364" y="152.492509" style="fill: #1f77b4; stroke: #1f77b4"/>
     <use xlink:href="#mb9e1cae91c" x="299.467636" y="151.299056" style="fill: #1f77b4; stroke: #1f77b4"/>
     <use xlink:href="#mb9e1cae91c" x="301.090909" y="150.091965" style="fill: #1f77b4; stroke: #1f77b4"/>
     <use xlink:href="#mb9e1cae91c" x="302.714182" y="148.871259" style="fill: #1f77b4; stroke: #1f77b4"/>
     <use xlink:href="#mb9e1cae91c" x="304.337455" y="147.636961" style="fill: #1f77b4; stroke: #1f77b4"/>
     <use xlink:href="#mb9e1cae91c" x="305.960727" y="146.389094" style="fill: #1f77b4; stroke: #1f77b4"/>
     <use xlink:href="#mb9e1cae91c" x="307.584" y="145.127682" style="fill: #1f77b4; stroke: #1f77b4"/>
     <use xlink:href="#mb9e1cae91c" x="309.207273" y="143.852747" style="fill: #1f77b4; stroke: #1f77b4"/>
     <use xlink:href="#mb9e1cae91c" x="310.830545" y="142.564314" style="fill: #1f77b4; stroke: #1f77b4"/>
     <use xlink:href="#mb9e1cae91c" x="312.453818" y="141.262405" style="fill: #1f77b4; stroke: #1f77b4"/>
     <use xlink:href="#mb9e1cae91c" x="314.077091" y="139.947044" style="fill: #1f77b4; stroke: #1f77b4"/>
     <use xlink:href="#mb9e1cae91c" x="315.700364" y="138.618254" style="fill: #1f77b4; stroke: #1f77b4"/>
     <use xlink:href="#mb9e1cae91c" x="317.323636" y="137.276059" style="fill: #1f77b4; stroke: #1f77b4"/>
     <use xlink:href="#mb9e1cae91c" x="318.946909" y="135.920481" style="fill: #1f77b4; stroke: #1f77b4"/>
     <use xlink:href="#mb9e1cae91c" x="320.570182" y="134.551545" style="fill: #1f77b4; stroke: #1f77b4"/>
     <use xlink:href="#mb9e1cae91c" x="322.193455" y="133.169272" style="fill: #1f77b4; stroke: #1f77b4"/>
     <use xlink:href="#mb9e1cae91c" x="323.816727" y="131.773688" style="fill: #1f77b4; stroke: #1f77b4"/>
     <use xlink:href="#mb9e1cae91c" x="325.44" y="130.364813" style="fill: #1f77b4; stroke: #1f77b4"/>
     <use xlink:href="#mb9e1cae91c" x="327.063273" y="128.942673" style="fill: #1f77b4; stroke: #1f77b4"/>
     <use xlink:href="#mb9e1cae91c" x="328.686545" y="127.507289" style="fill: #1f77b4; stroke: #1f77b4"/>
     <use xlink:href="#mb9e1cae91c" x="330.309818" y="126.058684" style="fill: #1f77b4; stroke: #1f77b4"/>
     <use xlink:href="#mb9e1cae91c" x="331.933091" y="124.596881" style="fill: #1f77b4; stroke: #1f77b4"/>
     <use xlink:href="#mb9e1cae91c" x="333.556364" y="123.121904" style="fill: #1f77b4; stroke: #1f77b4"/>
     <use xlink:href="#mb9e1cae91c" x="335.179636" y="121.633774" style="fill: #1f77b4; stroke: #1f77b4"/>
     <use xlink:href="#mb9e1cae91c" x="336.802909" y="120.132515" style="fill: #1f77b4; stroke: #1f77b4"/>
     <use xlink:href="#mb9e1cae91c" x="338.426182" y="118.618148" style="fill: #1f77b4; stroke: #1f77b4"/>
     <use xlink:href="#mb9e1cae91c" x="340.049455" y="117.090696" style="fill: #1f77b4; stroke: #1f77b4"/>
     <use xlink:href="#mb9e1cae91c" x="341.672727" y="115.550182" style="fill: #1f77b4; stroke: #1f77b4"/>
     <use xlink:href="#mb9e1cae91c" x="343.296" y="113.996627" style="fill: #1f77b4; stroke: #1f77b4"/>
     <use xlink:href="#mb9e1cae91c" x="344.919273" y="112.430054" style="fill: #1f77b4; stroke: #1f77b4"/>
     <use xlink:href="#mb9e1cae91c" x="346.542545" y="110.850484" style="fill: #1f77b4; stroke: #1f77b4"/>
     <use xlink:href="#mb9e1cae91c" x="348.165818" y="109.25794" style="fill: #1f77b4; stroke: #1f77b4"/>
     <use xlink:href="#mb9e1cae91c" x="349.789091" y="107.652443" style="fill: #1f77b4; stroke: #1f77b4"/>
     <use xlink:href="#mb9e1cae91c" x="351.412364" y="106.034015" style="fill: #1f77b4; stroke: #1f77b4"/>
     <use xlink:href="#mb9e1cae91c" x="353.035636" y="104.402677" style="fill: #1f77b4; stroke: #1f77b4"/>
     <use xlink:href="#mb9e1cae91c" x="354.658909" y="102.758452" style="fill: #1f77b4; stroke: #1f77b4"/>
     <use xlink:href="#mb9e1cae91c" x="356.282182" y="101.101359" style="fill: #1f77b4; stroke: #1f77b4"/>
     <use xlink:href="#mb9e1cae91c" x="357.905455" y="99.431421" style="fill: #1f77b4; stroke: #1f77b4"/>
     <use xlink:href="#mb9e1cae91c" x="359.528727" y="97.748659" style="fill: #1f77b4; stroke: #1f77b4"/>
     <use xlink:href="#mb9e1cae91c" x="361.152" y="96.053093" style="fill: #1f77b4; stroke: #1f77b4"/>
     <use xlink:href="#mb9e1cae91c" x="362.775273" y="94.344745" style="fill: #1f77b4; stroke: #1f77b4"/>
     <use xlink:href="#mb9e1cae91c" x="364.398545" y="92.623635" style="fill: #1f77b4; stroke: #1f77b4"/>
     <use xlink:href="#mb9e1cae91c" x="366.021818" y="90.889784" style="fill: #1f77b4; stroke: #1f77b4"/>
     <use xlink:href="#mb9e1cae91c" x="367.645091" y="89.143212" style="fill: #1f77b4; stroke: #1f77b4"/>
     <use xlink:href="#mb9e1cae91c" x="369.268364" y="87.383941" style="fill: #1f77b4; stroke: #1f77b4"/>
     <use xlink:href="#mb9e1cae91c" x="370.891636" y="85.611989" style="fill: #1f77b4; stroke: #1f77b4"/>
     <use xlink:href="#mb9e1cae91c" x="372.514909" y="83.827379" style="fill: #1f77b4; stroke: #1f77b4"/>
     <use xlink:href="#mb9e1cae91c" x="374.138182" y="82.030128" style="fill: #1f77b4; stroke: #1f77b4"/>
     <use xlink:href="#mb9e1cae91c" x="375.761455" y="80.220259" style="fill: #1f77b4; stroke: #1f77b4"/>
     <use xlink:href="#mb9e1cae91c" x="377.384727" y="78.39779" style="fill: #1f77b4; stroke: #1f77b4"/>
     <use xlink:href="#mb9e1cae91c" x="379.008" y="76.562741" style="fill: #1f77b4; stroke: #1f77b4"/>
     <use xlink:href="#mb9e1cae91c" x="380.631273" y="74.715133" style="fill: #1f77b4; stroke: #1f77b4"/>
     <use xlink:href="#mb9e1cae91c" x="382.254545" y="72.854983" style="fill: #1f77b4; stroke: #1f77b4"/>
     <use xlink:href="#mb9e1cae91c" x="383.877818" y="70.982313" style="fill: #1f77b4; stroke: #1f77b4"/>
     <use xlink:href="#mb9e1cae91c" x="385.501091" y="69.097142" style="fill: #1f77b4; stroke: #1f77b4"/>
     <use xlink:href="#mb9e1cae91c" x="387.124364" y="67.199488" style="fill: #1f77b4; stroke: #1f77b4"/>
     <use xlink:href="#mb9e1cae91c" x="388.747636" y="65.289371" style="fill: #1f77b4; stroke: #1f77b4"/>
     <use xlink:href="#mb9e1cae91c" x="390.370909" y="63.366809" style="fill: #1f77b4; stroke: #1f77b4"/>
     <use xlink:href="#mb9e1cae91c" x="391.994182" y="61.431823" style="fill: #1f77b4; stroke: #1f77b4"/>
     <use xlink:href="#mb9e1cae91c" x="393.617455" y="59.48443" style="fill: #1f77b4; stroke: #1f77b4"/>
     <use xlink:href="#mb9e1cae91c" x="395.240727" y="57.524649" style="fill: #1f77b4; stroke: #1f77b4"/>
     <use xlink:href="#mb9e1cae91c" x="396.864" y="55.5525" style="fill: #1f77b4; stroke: #1f77b4"/>
     <use xlink:href="#mb9e1cae91c" x="398.487273" y="53.568" style="fill: #1f77b4; stroke: #1f77b4"/>
    </g>
   </g>
   <g id="patch_3">
    <path d="M 57.6 307.584 
L 57.6 41.472 
" style="fill: none; stroke: #000000; stroke-width: 0.8; stroke-linejoin: miter; stroke-linecap: square"/>
   </g>
   <g id="patch_4">
    <path d="M 414.72 307.584 
L 414.72 41.472 
" style="fill: none; stroke: #000000; stroke-width: 0.8; stroke-linejoin: miter; stroke-linecap: square"/>
   </g>
   <g id="patch_5">
    <path d="M 57.6 307.584 
L 414.72 307.584 
" style="fill: none; stroke: #000000; stroke-width: 0.8; stroke-linejoin: miter; stroke-linecap: square"/>
   </g>
   <g id="patch_6">
    <path d="M 57.6 41.472 
L 414.72 41.472 
" style="fill: none; stroke: #000000; stroke-width: 0.8; stroke-linejoin: miter; stroke-linecap: square"/>
   </g>
  </g>
 </g>
 <defs>
  <clipPath id="p63219dd6aa">
   <rect x="57.6" y="41.472" width="357.12" height="266.112"/>
  </clipPath>
 </defs>
</svg>
