<?xml version="1.0" encoding="utf-8" standalone="no"?>
<!DOCTYPE svg PUBLIC "-//W3C//DTD SVG 1.1//EN"
  "http://www.w3.org/Graphics/SVG/1.1/DTD/svg11.dtd">
<svg xmlns:xlink="http://www.w3.org/1999/xlink" width="460.8pt" height="345.6pt" viewBox="0 0 460.8 345.6" xmlns="http://www.w3.org/2000/svg" version="1.1">
 <metadata>
  <rdf:RDF xmlns:dc="http://purl.org/dc/elements/1.1/" xmlns:cc="http://creativecommons.org/ns#" xmlns:rdf="http://www.w3.org/1999/02/22-rdf-syntax-ns#">
   <cc:Work>
    <dc:type rdf:resource="http://purl.org/dc/dcmitype/StillImage"/>
    <dc:date>2022-01-02T13:10:21.894059</dc:date>
    <dc:format>image/svg+xml</dc:format>
    <dc:creator>
     <cc:Agent>
      <dc:title>Matplotlib v3.5.0, https://matplotlib.org/</dc:title>
     </cc:Agent>
    </dc:creator>
   </cc:Work>
  </rdf:RDF>
 </metadata>
 <defs>
  <style type="text/css">*{stroke-linejoin: round; stroke-linecap: butt}</style>
 </defs>
 <g id="figure_1">
  <g id="patch_1">
   <path d="M 0 345.6 
L 460.8 345.6 
L 460.8 0 
L 0 0 
z
" style="fill: #ffffff"/>
  </g>
  <g id="axes_1">
   <g id="patch_2">
    <path d="M 57.6 307.584 
L 414.72 307.584 
L 414.72 41.472 
L 57.6 41.472 
z
" style="fill: #ffffff"/>
   </g>
   <g id="matplotlib.axis_1">
    <g id="xtick_1">
     <g id="line2d_1">
      <defs>
       <path id="m4b7e6d64e8" d="M 0 0 
L 0 3.5 
" style="stroke: #000000; stroke-width: 0.8"/>
      </defs>
      <g>
       <use xlink:href="#m4b7e6d64e8" x="73.832727" y="307.584" style="stroke: #000000; stroke-width: 0.8"/>
      </g>
     </g>
     <g id="text_1">
      <!-- 0.0 -->
      <g transform="translate(65.881165 322.182437)scale(0.1 -0.1)">
       <defs>
        <path id="DejaVuSans-30" d="M 2034 4250 
Q 1547 4250 1301 3770 
Q 1056 3291 1056 2328 
Q 1056 1369 1301 889 
Q 1547 409 2034 409 
Q 2525 409 2770 889 
Q 3016 1369 3016 2328 
Q 3016 3291 2770 3770 
Q 2525 4250 2034 4250 
z
M 2034 4750 
Q 2819 4750 3233 4129 
Q 3647 3509 3647 2328 
Q 3647 1150 3233 529 
Q 2819 -91 2034 -91 
Q 1250 -91 836 529 
Q 422 1150 422 2328 
Q 422 3509 836 4129 
Q 1250 4750 2034 4750 
z
" transform="scale(0.015625)"/>
        <path id="DejaVuSans-2e" d="M 684 794 
L 1344 794 
L 1344 0 
L 684 0 
L 684 794 
z
" transform="scale(0.015625)"/>
       </defs>
       <use xlink:href="#DejaVuSans-30"/>
       <use xlink:href="#DejaVuSans-2e" x="63.623047"/>
       <use xlink:href="#DejaVuSans-30" x="95.410156"/>
      </g>
     </g>
    </g>
    <g id="xtick_2">
     <g id="line2d_2">
      <g>
       <use xlink:href="#m4b7e6d64e8" x="138.763636" y="307.584" style="stroke: #000000; stroke-width: 0.8"/>
      </g>
     </g>
     <g id="text_2">
      <!-- 0.2 -->
      <g transform="translate(130.812074 322.182437)scale(0.1 -0.1)">
       <defs>
        <path id="DejaVuSans-32" d="M 1228 531 
L 3431 531 
L 3431 0 
L 469 0 
L 469 531 
Q 828 903 1448 1529 
Q 2069 2156 2228 2338 
Q 2531 2678 2651 2914 
Q 2772 3150 2772 3378 
Q 2772 3750 2511 3984 
Q 2250 4219 1831 4219 
Q 1534 4219 1204 4116 
Q 875 4013 500 3803 
L 500 4441 
Q 881 4594 1212 4672 
Q 1544 4750 1819 4750 
Q 2544 4750 2975 4387 
Q 3406 4025 3406 3419 
Q 3406 3131 3298 2873 
Q 3191 2616 2906 2266 
Q 2828 2175 2409 1742 
Q 1991 1309 1228 531 
z
" transform="scale(0.015625)"/>
       </defs>
       <use xlink:href="#DejaVuSans-30"/>
       <use xlink:href="#DejaVuSans-2e" x="63.623047"/>
       <use xlink:href="#DejaVuSans-32" x="95.410156"/>
      </g>
     </g>
    </g>
    <g id="xtick_3">
     <g id="line2d_3">
      <g>
       <use xlink:href="#m4b7e6d64e8" x="203.694545" y="307.584" style="stroke: #000000; stroke-width: 0.8"/>
      </g>
     </g>
     <g id="text_3">
      <!-- 0.4 -->
      <g transform="translate(195.742983 322.182437)scale(0.1 -0.1)">
       <defs>
        <path id="DejaVuSans-34" d="M 2419 4116 
L 825 1625 
L 2419 1625 
L 2419 4116 
z
M 2253 4666 
L 3047 4666 
L 3047 1625 
L 3713 1625 
L 3713 1100 
L 3047 1100 
L 3047 0 
L 2419 0 
L 2419 1100 
L 313 1100 
L 313 1709 
L 2253 4666 
z
" transform="scale(0.015625)"/>
       </defs>
       <use xlink:href="#DejaVuSans-30"/>
       <use xlink:href="#DejaVuSans-2e" x="63.623047"/>
       <use xlink:href="#DejaVuSans-34" x="95.410156"/>
      </g>
     </g>
    </g>
    <g id="xtick_4">
     <g id="line2d_4">
      <g>
       <use xlink:href="#m4b7e6d64e8" x="268.625455" y="307.584" style="stroke: #000000; stroke-width: 0.8"/>
      </g>
     </g>
     <g id="text_4">
      <!-- 0.6 -->
      <g transform="translate(260.673892 322.182437)scale(0.1 -0.1)">
       <defs>
        <path id="DejaVuSans-36" d="M 2113 2584 
Q 1688 2584 1439 2293 
Q 1191 2003 1191 1497 
Q 1191 994 1439 701 
Q 1688 409 2113 409 
Q 2538 409 2786 701 
Q 3034 994 3034 1497 
Q 3034 2003 2786 2293 
Q 2538 2584 2113 2584 
z
M 3366 4563 
L 3366 3988 
Q 3128 4100 2886 4159 
Q 2644 4219 2406 4219 
Q 1781 4219 1451 3797 
Q 1122 3375 1075 2522 
Q 1259 2794 1537 2939 
Q 1816 3084 2150 3084 
Q 2853 3084 3261 2657 
Q 3669 2231 3669 1497 
Q 3669 778 3244 343 
Q 2819 -91 2113 -91 
Q 1303 -91 875 529 
Q 447 1150 447 2328 
Q 447 3434 972 4092 
Q 1497 4750 2381 4750 
Q 2619 4750 2861 4703 
Q 3103 4656 3366 4563 
z
" transform="scale(0.015625)"/>
       </defs>
       <use xlink:href="#DejaVuSans-30"/>
       <use xlink:href="#DejaVuSans-2e" x="63.623047"/>
       <use xlink:href="#DejaVuSans-36" x="95.410156"/>
      </g>
     </g>
    </g>
    <g id="xtick_5">
     <g id="line2d_5">
      <g>
       <use xlink:href="#m4b7e6d64e8" x="333.556364" y="307.584" style="stroke: #000000; stroke-width: 0.8"/>
      </g>
     </g>
     <g id="text_5">
      <!-- 0.8 -->
      <g transform="translate(325.604801 322.182437)scale(0.1 -0.1)">
       <defs>
        <path id="DejaVuSans-38" d="M 2034 2216 
Q 1584 2216 1326 1975 
Q 1069 1734 1069 1313 
Q 1069 891 1326 650 
Q 1584 409 2034 409 
Q 2484 409 2743 651 
Q 3003 894 3003 1313 
Q 3003 1734 2745 1975 
Q 2488 2216 2034 2216 
z
M 1403 2484 
Q 997 2584 770 2862 
Q 544 3141 544 3541 
Q 544 4100 942 4425 
Q 1341 4750 2034 4750 
Q 2731 4750 3128 4425 
Q 3525 4100 3525 3541 
Q 3525 3141 3298 2862 
Q 3072 2584 2669 2484 
Q 3125 2378 3379 2068 
Q 3634 1759 3634 1313 
Q 3634 634 3220 271 
Q 2806 -91 2034 -91 
Q 1263 -91 848 271 
Q 434 634 434 1313 
Q 434 1759 690 2068 
Q 947 2378 1403 2484 
z
M 1172 3481 
Q 1172 3119 1398 2916 
Q 1625 2713 2034 2713 
Q 2441 2713 2670 2916 
Q 2900 3119 2900 3481 
Q 2900 3844 2670 4047 
Q 2441 4250 2034 4250 
Q 1625 4250 1398 4047 
Q 1172 3844 1172 3481 
z
" transform="scale(0.015625)"/>
       </defs>
       <use xlink:href="#DejaVuSans-30"/>
       <use xlink:href="#DejaVuSans-2e" x="63.623047"/>
       <use xlink:href="#DejaVuSans-38" x="95.410156"/>
      </g>
     </g>
    </g>
    <g id="xtick_6">
     <g id="line2d_6">
      <g>
       <use xlink:href="#m4b7e6d64e8" x="398.487273" y="307.584" style="stroke: #000000; stroke-width: 0.8"/>
      </g>
     </g>
     <g id="text_6">
      <!-- 1.0 -->
      <g transform="translate(390.53571 322.182437)scale(0.1 -0.1)">
       <defs>
        <path id="DejaVuSans-31" d="M 794 531 
L 1825 531 
L 1825 4091 
L 703 3866 
L 703 4441 
L 1819 4666 
L 2450 4666 
L 2450 531 
L 3481 531 
L 3481 0 
L 794 0 
L 794 531 
z
" transform="scale(0.015625)"/>
       </defs>
       <use xlink:href="#DejaVuSans-31"/>
       <use xlink:href="#DejaVuSans-2e" x="63.623047"/>
       <use xlink:href="#DejaVuSans-30" x="95.410156"/>
      </g>
     </g>
    </g>
   </g>
   <g id="matplotlib.axis_2">
    <g id="ytick_1">
     <g id="line2d_7">
      <defs>
       <path id="m15fe92e3de" d="M 0 0 
L -3.5 0 
" style="stroke: #000000; stroke-width: 0.8"/>
      </defs>
      <g>
       <use xlink:href="#m15fe92e3de" x="57.6" y="295.488" style="stroke: #000000; stroke-width: 0.8"/>
      </g>
     </g>
     <g id="text_7">
      <!-- 0.0 -->
      <g transform="translate(34.696875 299.287219)scale(0.1 -0.1)">
       <use xlink:href="#DejaVuSans-30"/>
       <use xlink:href="#DejaVuSans-2e" x="63.623047"/>
       <use xlink:href="#DejaVuSans-30" x="95.410156"/>
      </g>
     </g>
    </g>
    <g id="ytick_2">
     <g id="line2d_8">
      <g>
       <use xlink:href="#m15fe92e3de" x="57.6" y="263.749324" style="stroke: #000000; stroke-width: 0.8"/>
      </g>
     </g>
     <g id="text_8">
      <!-- 0.2 -->
      <g transform="translate(34.696875 267.548543)scale(0.1 -0.1)">
       <use xlink:href="#DejaVuSans-30"/>
       <use xlink:href="#DejaVuSans-2e" x="63.623047"/>
       <use xlink:href="#DejaVuSans-32" x="95.410156"/>
      </g>
     </g>
    </g>
    <g id="ytick_3">
     <g id="line2d_9">
      <g>
       <use xlink:href="#m15fe92e3de" x="57.6" y="232.010649" style="stroke: #000000; stroke-width: 0.8"/>
      </g>
     </g>
     <g id="text_9">
      <!-- 0.4 -->
      <g transform="translate(34.696875 235.809868)scale(0.1 -0.1)">
       <use xlink:href="#DejaVuSans-30"/>
       <use xlink:href="#DejaVuSans-2e" x="63.623047"/>
       <use xlink:href="#DejaVuSans-34" x="95.410156"/>
      </g>
     </g>
    </g>
    <g id="ytick_4">
     <g id="line2d_10">
      <g>
       <use xlink:href="#m15fe92e3de" x="57.6" y="200.271973" style="stroke: #000000; stroke-width: 0.8"/>
      </g>
     </g>
     <g id="text_10">
      <!-- 0.6 -->
      <g transform="translate(34.696875 204.071192)scale(0.1 -0.1)">
       <use xlink:href="#DejaVuSans-30"/>
       <use xlink:href="#DejaVuSans-2e" x="63.623047"/>
       <use xlink:href="#DejaVuSans-36" x="95.410156"/>
      </g>
     </g>
    </g>
    <g id="ytick_5">
     <g id="line2d_11">
      <g>
       <use xlink:href="#m15fe92e3de" x="57.6" y="168.533298" style="stroke: #000000; stroke-width: 0.8"/>
      </g>
     </g>
     <g id="text_11">
      <!-- 0.8 -->
      <g transform="translate(34.696875 172.332517)scale(0.1 -0.1)">
       <use xlink:href="#DejaVuSans-30"/>
       <use xlink:href="#DejaVuSans-2e" x="63.623047"/>
       <use xlink:href="#DejaVuSans-38" x="95.410156"/>
      </g>
     </g>
    </g>
    <g id="ytick_6">
     <g id="line2d_12">
      <g>
       <use xlink:href="#m15fe92e3de" x="57.6" y="136.794622" style="stroke: #000000; stroke-width: 0.8"/>
      </g>
     </g>
     <g id="text_12">
      <!-- 1.0 -->
      <g transform="translate(34.696875 140.593841)scale(0.1 -0.1)">
       <use xlink:href="#DejaVuSans-31"/>
       <use xlink:href="#DejaVuSans-2e" x="63.623047"/>
       <use xlink:href="#DejaVuSans-30" x="95.410156"/>
      </g>
     </g>
    </g>
    <g id="ytick_7">
     <g id="line2d_13">
      <g>
       <use xlink:href="#m15fe92e3de" x="57.6" y="105.055947" style="stroke: #000000; stroke-width: 0.8"/>
      </g>
     </g>
     <g id="text_13">
      <!-- 1.2 -->
      <g transform="translate(34.696875 108.855166)scale(0.1 -0.1)">
       <use xlink:href="#DejaVuSans-31"/>
       <use xlink:href="#DejaVuSans-2e" x="63.623047"/>
       <use xlink:href="#DejaVuSans-32" x="95.410156"/>
      </g>
     </g>
    </g>
    <g id="ytick_8">
     <g id="line2d_14">
      <g>
       <use xlink:href="#m15fe92e3de" x="57.6" y="73.317271" style="stroke: #000000; stroke-width: 0.8"/>
      </g>
     </g>
     <g id="text_14">
      <!-- 1.4 -->
      <g transform="translate(34.696875 77.11649)scale(0.1 -0.1)">
       <use xlink:href="#DejaVuSans-31"/>
       <use xlink:href="#DejaVuSans-2e" x="63.623047"/>
       <use xlink:href="#DejaVuSans-34" x="95.410156"/>
      </g>
     </g>
    </g>
    <g id="ytick_9">
     <g id="line2d_15">
      <g>
       <use xlink:href="#m15fe92e3de" x="57.6" y="41.578596" style="stroke: #000000; stroke-width: 0.8"/>
      </g>
     </g>
     <g id="text_15">
      <!-- 1.6 -->
      <g transform="translate(34.696875 45.377815)scale(0.1 -0.1)">
       <use xlink:href="#DejaVuSans-31"/>
       <use xlink:href="#DejaVuSans-2e" x="63.623047"/>
       <use xlink:href="#DejaVuSans-36" x="95.410156"/>
      </g>
     </g>
    </g>
   </g>
   <g id="line2d_16">
    <defs>
     <path id="mbaec228ed2" d="M 0 3 
C 0.795609 3 1.55874 2.683901 2.12132 2.12132 
C 2.683901 1.55874 3 0.795609 3 0 
C 3 -0.795609 2.683901 -1.55874 2.12132 -2.12132 
C 1.55874 -2.683901 0.795609 -3 0 -3 
C -0.795609 -3 -1.55874 -2.683901 -2.12132 -2.12132 
C -2.683901 -1.55874 -3 -0.795609 -3 0 
C -3 0.795609 -2.683901 1.55874 -2.12132 2.12132 
C -1.55874 2.683901 -0.795609 3 0 3 
z
" style="stroke: #1f77b4"/>
    </defs>
    <g clip-path="url(#p8965188505)">
     <use xlink:href="#mbaec228ed2" x="73.832727" y="295.488" style="fill: #1f77b4; stroke: #1f77b4"/>
     <use xlink:href="#mbaec228ed2" x="75.456" y="295.488" style="fill: #1f77b4; stroke: #1f77b4"/>
     <use xlink:href="#mbaec228ed2" x="77.079273" y="295.488" style="fill: #1f77b4; stroke: #1f77b4"/>
     <use xlink:href="#mbaec228ed2" x="78.702545" y="295.488" style="fill: #1f77b4; stroke: #1f77b4"/>
     <use xlink:href="#mbaec228ed2" x="80.325818" y="295.488" style="fill: #1f77b4; stroke: #1f77b4"/>
     <use xlink:href="#mbaec228ed2" x="81.949091" y="295.488" style="fill: #1f77b4; stroke: #1f77b4"/>
     <use xlink:href="#mbaec228ed2" x="83.572364" y="295.488" style="fill: #1f77b4; stroke: #1f77b4"/>
     <use xlink:href="#mbaec228ed2" x="85.195636" y="295.488" style="fill: #1f77b4; stroke: #1f77b4"/>
     <use xlink:href="#mbaec228ed2" x="86.818909" y="295.488" style="fill: #1f77b4; stroke: #1f77b4"/>
     <use xlink:href="#mbaec228ed2" x="88.442182" y="295.488" style="fill: #1f77b4; stroke: #1f77b4"/>
     <use xlink:href="#mbaec228ed2" x="90.065455" y="295.488" style="fill: #1f77b4; stroke: #1f77b4"/>
     <use xlink:href="#mbaec228ed2" x="91.688727" y="295.488" style="fill: #1f77b4; stroke: #1f77b4"/>
     <use xlink:href="#mbaec228ed2" x="93.312" y="295.488" style="fill: #1f77b4; stroke: #1f77b4"/>
     <use xlink:href="#mbaec228ed2" x="94.935273" y="295.488" style="fill: #1f77b4; stroke: #1f77b4"/>
     <use xlink:href="#mbaec228ed2" x="96.558545" y="295.488" style="fill: #1f77b4; stroke: #1f77b4"/>
     <use xlink:href="#mbaec228ed2" x="98.181818" y="295.488" style="fill: #1f77b4; stroke: #1f77b4"/>
     <use xlink:href="#mbaec228ed2" x="99.805091" y="295.488" style="fill: #1f77b4; stroke: #1f77b4"/>
     <use xlink:href="#mbaec228ed2" x="101.428364" y="295.488" style="fill: #1f77b4; stroke: #1f77b4"/>
     <use xlink:href="#mbaec228ed2" x="103.051636" y="295.488" style="fill: #1f77b4; stroke: #1f77b4"/>
     <use xlink:href="#mbaec228ed2" x="104.674909" y="295.488" style="fill: #1f77b4; stroke: #1f77b4"/>
     <use xlink:href="#mbaec228ed2" x="106.298182" y="295.488" style="fill: #1f77b4; stroke: #1f77b4"/>
     <use xlink:href="#mbaec228ed2" x="107.921455" y="295.488" style="fill: #1f77b4; stroke: #1f77b4"/>
     <use xlink:href="#mbaec228ed2" x="109.544727" y="295.488" style="fill: #1f77b4; stroke: #1f77b4"/>
     <use xlink:href="#mbaec228ed2" x="111.168" y="295.488" style="fill: #1f77b4; stroke: #1f77b4"/>
     <use xlink:href="#mbaec228ed2" x="112.791273" y="295.488" style="fill: #1f77b4; stroke: #1f77b4"/>
     <use xlink:href="#mbaec228ed2" x="114.414545" y="295.488" style="fill: #1f77b4; stroke: #1f77b4"/>
     <use xlink:href="#mbaec228ed2" x="116.037818" y="295.488" style="fill: #1f77b4; stroke: #1f77b4"/>
     <use xlink:href="#mbaec228ed2" x="117.661091" y="295.488" style="fill: #1f77b4; stroke: #1f77b4"/>
     <use xlink:href="#mbaec228ed2" x="119.284364" y="295.488" style="fill: #1f77b4; stroke: #1f77b4"/>
     <use xlink:href="#mbaec228ed2" x="120.907636" y="295.488" style="fill: #1f77b4; stroke: #1f77b4"/>
     <use xlink:href="#mbaec228ed2" x="122.530909" y="295.488" style="fill: #1f77b4; stroke: #1f77b4"/>
     <use xlink:href="#mbaec228ed2" x="124.154182" y="295.488" style="fill: #1f77b4; stroke: #1f77b4"/>
     <use xlink:href="#mbaec228ed2" x="125.777455" y="295.488" style="fill: #1f77b4; stroke: #1f77b4"/>
     <use xlink:href="#mbaec228ed2" x="127.400727" y="295.488" style="fill: #1f77b4; stroke: #1f77b4"/>
     <use xlink:href="#mbaec228ed2" x="129.024" y="295.488" style="fill: #1f77b4; stroke: #1f77b4"/>
     <use xlink:href="#mbaec228ed2" x="130.647273" y="295.488" style="fill: #1f77b4; stroke: #1f77b4"/>
     <use xlink:href="#mbaec228ed2" x="132.270545" y="295.488" style="fill: #1f77b4; stroke: #1f77b4"/>
     <use xlink:href="#mbaec228ed2" x="133.893818" y="295.488" style="fill: #1f77b4; stroke: #1f77b4"/>
     <use xlink:href="#mbaec228ed2" x="135.517091" y="295.488" style="fill: #1f77b4; stroke: #1f77b4"/>
     <use xlink:href="#mbaec228ed2" x="137.140364" y="295.488" style="fill: #1f77b4; stroke: #1f77b4"/>
     <use xlink:href="#mbaec228ed2" x="138.763636" y="295.488" style="fill: #1f77b4; stroke: #1f77b4"/>
     <use xlink:href="#mbaec228ed2" x="140.386909" y="295.488" style="fill: #1f77b4; stroke: #1f77b4"/>
     <use xlink:href="#mbaec228ed2" x="142.010182" y="295.488" style="fill: #1f77b4; stroke: #1f77b4"/>
     <use xlink:href="#mbaec228ed2" x="143.633455" y="295.488" style="fill: #1f77b4; stroke: #1f77b4"/>
     <use xlink:href="#mbaec228ed2" x="145.256727" y="295.488" style="fill: #1f77b4; stroke: #1f77b4"/>
     <use xlink:href="#mbaec228ed2" x="146.88" y="295.488" style="fill: #1f77b4; stroke: #1f77b4"/>
     <use xlink:href="#mbaec228ed2" x="148.503273" y="295.488" style="fill: #1f77b4; stroke: #1f77b4"/>
     <use xlink:href="#mbaec228ed2" x="150.126545" y="295.488" style="fill: #1f77b4; stroke: #1f77b4"/>
     <use xlink:href="#mbaec228ed2" x="151.749818" y="295.488" style="fill: #1f77b4; stroke: #1f77b4"/>
     <use xlink:href="#mbaec228ed2" x="153.373091" y="295.488" style="fill: #1f77b4; stroke: #1f77b4"/>
     <use xlink:href="#mbaec228ed2" x="154.996364" y="195.175561" style="fill: #1f77b4; stroke: #1f77b4"/>
     <use xlink:href="#mbaec228ed2" x="156.619636" y="195.175124" style="fill: #1f77b4; stroke: #1f77b4"/>
     <use xlink:href="#mbaec228ed2" x="158.242909" y="195.173411" style="fill: #1f77b4; stroke: #1f77b4"/>
     <use xlink:href="#mbaec228ed2" x="159.866182" y="195.169628" style="fill: #1f77b4; stroke: #1f77b4"/>
     <use xlink:href="#mbaec228ed2" x="161.489455" y="195.163028" style="fill: #1f77b4; stroke: #1f77b4"/>
     <use xlink:href="#mbaec228ed2" x="163.112727" y="195.152902" style="fill: #1f77b4; stroke: #1f77b4"/>
     <use xlink:href="#mbaec228ed2" x="164.736" y="195.138583" style="fill: #1f77b4; stroke: #1f77b4"/>
     <use xlink:href="#mbaec228ed2" x="166.359273" y="195.119436" style="fill: #1f77b4; stroke: #1f77b4"/>
     <use xlink:href="#mbaec228ed2" x="167.982545" y="195.094861" style="fill: #1f77b4; stroke: #1f77b4"/>
     <use xlink:href="#mbaec228ed2" x="169.605818" y="195.064289" style="fill: #1f77b4; stroke: #1f77b4"/>
     <use xlink:href="#mbaec228ed2" x="171.229091" y="195.027179" style="fill: #1f77b4; stroke: #1f77b4"/>
     <use xlink:href="#mbaec228ed2" x="172.852364" y="194.98302" style="fill: #1f77b4; stroke: #1f77b4"/>
     <use xlink:href="#mbaec228ed2" x="174.475636" y="194.931324" style="fill: #1f77b4; stroke: #1f77b4"/>
     <use xlink:href="#mbaec228ed2" x="176.098909" y="194.871629" style="fill: #1f77b4; stroke: #1f77b4"/>
     <use xlink:href="#mbaec228ed2" x="177.722182" y="194.803496" style="fill: #1f77b4; stroke: #1f77b4"/>
     <use xlink:href="#mbaec228ed2" x="179.345455" y="194.726506" style="fill: #1f77b4; stroke: #1f77b4"/>
     <use xlink:href="#mbaec228ed2" x="180.968727" y="194.640263" style="fill: #1f77b4; stroke: #1f77b4"/>
     <use xlink:href="#mbaec228ed2" x="182.592" y="194.544389" style="fill: #1f77b4; stroke: #1f77b4"/>
     <use xlink:href="#mbaec228ed2" x="184.215273" y="194.438525" style="fill: #1f77b4; stroke: #1f77b4"/>
     <use xlink:href="#mbaec228ed2" x="185.838545" y="194.322328" style="fill: #1f77b4; stroke: #1f77b4"/>
     <use xlink:href="#mbaec228ed2" x="187.461818" y="194.195474" style="fill: #1f77b4; stroke: #1f77b4"/>
     <use xlink:href="#mbaec228ed2" x="189.085091" y="194.057654" style="fill: #1f77b4; stroke: #1f77b4"/>
     <use xlink:href="#mbaec228ed2" x="190.708364" y="193.908574" style="fill: #1f77b4; stroke: #1f77b4"/>
     <use xlink:href="#mbaec228ed2" x="192.331636" y="193.747954" style="fill: #1f77b4; stroke: #1f77b4"/>
     <use xlink:href="#mbaec228ed2" x="193.954909" y="193.575528" style="fill: #1f77b4; stroke: #1f77b4"/>
     <use xlink:href="#mbaec228ed2" x="195.578182" y="193.391044" style="fill: #1f77b4; stroke: #1f77b4"/>
     <use xlink:href="#mbaec228ed2" x="197.201455" y="193.194262" style="fill: #1f77b4; stroke: #1f77b4"/>
     <use xlink:href="#mbaec228ed2" x="198.824727" y="192.984955" style="fill: #1f77b4; stroke: #1f77b4"/>
     <use xlink:href="#mbaec228ed2" x="200.448" y="192.762904" style="fill: #1f77b4; stroke: #1f77b4"/>
     <use xlink:href="#mbaec228ed2" x="202.071273" y="192.527906" style="fill: #1f77b4; stroke: #1f77b4"/>
     <use xlink:href="#mbaec228ed2" x="203.694545" y="192.279766" style="fill: #1f77b4; stroke: #1f77b4"/>
     <use xlink:href="#mbaec228ed2" x="205.317818" y="192.018298" style="fill: #1f77b4; stroke: #1f77b4"/>
     <use xlink:href="#mbaec228ed2" x="206.941091" y="191.743328" style="fill: #1f77b4; stroke: #1f77b4"/>
     <use xlink:href="#mbaec228ed2" x="208.564364" y="191.454691" style="fill: #1f77b4; stroke: #1f77b4"/>
     <use xlink:href="#mbaec228ed2" x="210.187636" y="191.15223" style="fill: #1f77b4; stroke: #1f77b4"/>
     <use xlink:href="#mbaec228ed2" x="211.810909" y="190.835797" style="fill: #1f77b4; stroke: #1f77b4"/>
     <use xlink:href="#mbaec228ed2" x="213.434182" y="190.505253" style="fill: #1f77b4; stroke: #1f77b4"/>
     <use xlink:href="#mbaec228ed2" x="215.057455" y="190.160465" style="fill: #1f77b4; stroke: #1f77b4"/>
     <use xlink:href="#mbaec228ed2" x="216.680727" y="189.80131" style="fill: #1f77b4; stroke: #1f77b4"/>
     <use xlink:href="#mbaec228ed2" x="218.304" y="189.427671" style="fill: #1f77b4; stroke: #1f77b4"/>
     <use xlink:href="#mbaec228ed2" x="219.927273" y="189.039438" style="fill: #1f77b4; stroke: #1f77b4"/>
     <use xlink:href="#mbaec228ed2" x="221.550545" y="188.636508" style="fill: #1f77b4; stroke: #1f77b4"/>
     <use xlink:href="#mbaec228ed2" x="223.173818" y="188.218785" style="fill: #1f77b4; stroke: #1f77b4"/>
     <use xlink:href="#mbaec228ed2" x="224.797091" y="187.786179" style="fill: #1f77b4; stroke: #1f77b4"/>
     <use xlink:href="#mbaec228ed2" x="226.420364" y="187.338606" style="fill: #1f77b4; stroke: #1f77b4"/>
     <use xlink:href="#mbaec228ed2" x="228.043636" y="186.875986" style="fill: #1f77b4; stroke: #1f77b4"/>
     <use xlink:href="#mbaec228ed2" x="229.666909" y="186.398248" style="fill: #1f77b4; stroke: #1f77b4"/>
     <use xlink:href="#mbaec228ed2" x="231.290182" y="185.905324" style="fill: #1f77b4; stroke: #1f77b4"/>
     <use xlink:href="#mbaec228ed2" x="232.913455" y="185.39715" style="fill: #1f77b4; stroke: #1f77b4"/>
     <use xlink:href="#mbaec228ed2" x="234.536727" y="184.87367" style="fill: #1f77b4; stroke: #1f77b4"/>
     <use xlink:href="#mbaec228ed2" x="236.16" y="184.334831" style="fill: #1f77b4; stroke: #1f77b4"/>
     <use xlink:href="#mbaec228ed2" x="237.783273" y="183.780585" style="fill: #1f77b4; stroke: #1f77b4"/>
     <use xlink:href="#mbaec228ed2" x="239.406545" y="183.210886" style="fill: #1f77b4; stroke: #1f77b4"/>
     <use xlink:href="#mbaec228ed2" x="241.029818" y="182.625696" style="fill: #1f77b4; stroke: #1f77b4"/>
     <use xlink:href="#mbaec228ed2" x="242.653091" y="182.024978" style="fill: #1f77b4; stroke: #1f77b4"/>
     <use xlink:href="#mbaec228ed2" x="244.276364" y="181.4087" style="fill: #1f77b4; stroke: #1f77b4"/>
     <use xlink:href="#mbaec228ed2" x="245.899636" y="180.776834" style="fill: #1f77b4; stroke: #1f77b4"/>
     <use xlink:href="#mbaec228ed2" x="247.522909" y="180.129354" style="fill: #1f77b4; stroke: #1f77b4"/>
     <use xlink:href="#mbaec228ed2" x="249.146182" y="179.466239" style="fill: #1f77b4; stroke: #1f77b4"/>
     <use xlink:href="#mbaec228ed2" x="250.769455" y="178.787471" style="fill: #1f77b4; stroke: #1f77b4"/>
     <use xlink:href="#mbaec228ed2" x="252.392727" y="178.093033" style="fill: #1f77b4; stroke: #1f77b4"/>
     <use xlink:href="#mbaec228ed2" x="254.016" y="177.382913" style="fill: #1f77b4; stroke: #1f77b4"/>
     <use xlink:href="#mbaec228ed2" x="255.639273" y="176.657102" style="fill: #1f77b4; stroke: #1f77b4"/>
     <use xlink:href="#mbaec228ed2" x="257.262545" y="175.915591" style="fill: #1f77b4; stroke: #1f77b4"/>
     <use xlink:href="#mbaec228ed2" x="258.885818" y="175.158377" style="fill: #1f77b4; stroke: #1f77b4"/>
     <use xlink:href="#mbaec228ed2" x="260.509091" y="174.385457" style="fill: #1f77b4; stroke: #1f77b4"/>
     <use xlink:href="#mbaec228ed2" x="262.132364" y="173.59683" style="fill: #1f77b4; stroke: #1f77b4"/>
     <use xlink:href="#mbaec228ed2" x="263.755636" y="172.7925" style="fill: #1f77b4; stroke: #1f77b4"/>
     <use xlink:href="#mbaec228ed2" x="265.378909" y="171.97247" style="fill: #1f77b4; stroke: #1f77b4"/>
     <use xlink:href="#mbaec228ed2" x="267.002182" y="171.136747" style="fill: #1f77b4; stroke: #1f77b4"/>
     <use xlink:href="#mbaec228ed2" x="268.625455" y="170.285338" style="fill: #1f77b4; stroke: #1f77b4"/>
     <use xlink:href="#mbaec228ed2" x="270.248727" y="169.418253" style="fill: #1f77b4; stroke: #1f77b4"/>
     <use xlink:href="#mbaec228ed2" x="271.872" y="168.535504" style="fill: #1f77b4; stroke: #1f77b4"/>
     <use xlink:href="#mbaec228ed2" x="273.495273" y="167.637103" style="fill: #1f77b4; stroke: #1f77b4"/>
     <use xlink:href="#mbaec228ed2" x="275.118545" y="166.723066" style="fill: #1f77b4; stroke: #1f77b4"/>
     <use xlink:href="#mbaec228ed2" x="276.741818" y="165.793407" style="fill: #1f77b4; stroke: #1f77b4"/>
     <use xlink:href="#mbaec228ed2" x="278.365091" y="164.848145" style="fill: #1f77b4; stroke: #1f77b4"/>
     <use xlink:href="#mbaec228ed2" x="279.988364" y="163.887297" style="fill: #1f77b4; stroke: #1f77b4"/>
     <use xlink:href="#mbaec228ed2" x="281.611636" y="162.910884" style="fill: #1f77b4; stroke: #1f77b4"/>
     <use xlink:href="#mbaec228ed2" x="283.234909" y="161.918926" style="fill: #1f77b4; stroke: #1f77b4"/>
     <use xlink:href="#mbaec228ed2" x="284.858182" y="160.911445" style="fill: #1f77b4; stroke: #1f77b4"/>
     <use xlink:href="#mbaec228ed2" x="286.481455" y="159.888464" style="fill: #1f77b4; stroke: #1f77b4"/>
     <use xlink:href="#mbaec228ed2" x="288.104727" y="158.850006" style="fill: #1f77b4; stroke: #1f77b4"/>
     <use xlink:href="#mbaec228ed2" x="289.728" y="157.796097" style="fill: #1f77b4; stroke: #1f77b4"/>
     <use xlink:href="#mbaec228ed2" x="291.351273" y="156.72676" style="fill: #1f77b4; stroke: #1f77b4"/>
     <use xlink:href="#mbaec228ed2" x="292.974545" y="155.642023" style="fill: #1f77b4; stroke: #1f77b4"/>
     <use xlink:href="#mbaec228ed2" x="294.597818" y="154.541913" style="fill: #1f77b4; stroke: #1f77b4"/>
     <use xlink:href="#mbaec228ed2" x="296.221091" y="153.426456" style="fill: #1f77b4; stroke: #1f77b4"/>
     <use xlink:href="#mbaec228ed2" x="297.844364" y="152.29568" style="fill: #1f77b4; stroke: #1f77b4"/>
     <use xlink:href="#mbaec228ed2" x="299.467636" y="151.149615" style="fill: #1f77b4; stroke: #1f77b4"/>
     <use xlink:href="#mbaec228ed2" x="301.090909" y="149.988289" style="fill: #1f77b4; stroke: #1f77b4"/>
     <use xlink:href="#mbaec228ed2" x="302.714182" y="148.811732" style="fill: #1f77b4; stroke: #1f77b4"/>
     <use xlink:href="#mbaec228ed2" x="304.337455" y="147.619973" style="fill: #1f77b4; stroke: #1f77b4"/>
     <use xlink:href="#mbaec228ed2" x="305.960727" y="146.413044" style="fill: #1f77b4; stroke: #1f77b4"/>
     <use xlink:href="#mbaec228ed2" x="307.584" y="145.190974" style="fill: #1f77b4; stroke: #1f77b4"/>
     <use xlink:href="#mbaec228ed2" x="309.207273" y="143.953794" style="fill: #1f77b4; stroke: #1f77b4"/>
     <use xlink:href="#mbaec228ed2" x="310.830545" y="142.701536" style="fill: #1f77b4; stroke: #1f77b4"/>
     <use xlink:href="#mbaec228ed2" x="312.453818" y="141.434231" style="fill: #1f77b4; stroke: #1f77b4"/>
     <use xlink:href="#mbaec228ed2" x="314.077091" y="140.151911" style="fill: #1f77b4; stroke: #1f77b4"/>
     <use xlink:href="#mbaec228ed2" x="315.700364" y="138.854608" style="fill: #1f77b4; stroke: #1f77b4"/>
     <use xlink:href="#mbaec228ed2" x="317.323636" y="137.542354" style="fill: #1f77b4; stroke: #1f77b4"/>
     <use xlink:href="#mbaec228ed2" x="318.946909" y="136.21518" style="fill: #1f77b4; stroke: #1f77b4"/>
     <use xlink:href="#mbaec228ed2" x="320.570182" y="134.87312" style="fill: #1f77b4; stroke: #1f77b4"/>
     <use xlink:href="#mbaec228ed2" x="322.193455" y="133.516205" style="fill: #1f77b4; stroke: #1f77b4"/>
     <use xlink:href="#mbaec228ed2" x="323.816727" y="132.144468" style="fill: #1f77b4; stroke: #1f77b4"/>
     <use xlink:href="#mbaec228ed2" x="325.44" y="130.757942" style="fill: #1f77b4; stroke: #1f77b4"/>
     <use xlink:href="#mbaec228ed2" x="327.063273" y="129.356659" style="fill: #1f77b4; stroke: #1f77b4"/>
     <use xlink:href="#mbaec228ed2" x="328.686545" y="127.940651" style="fill: #1f77b4; stroke: #1f77b4"/>
     <use xlink:href="#mbaec228ed2" x="330.309818" y="126.509951" style="fill: #1f77b4; stroke: #1f77b4"/>
     <use xlink:href="#mbaec228ed2" x="331.933091" y="125.064592" style="fill: #1f77b4; stroke: #1f77b4"/>
     <use xlink:href="#mbaec228ed2" x="333.556364" y="123.604605" style="fill: #1f77b4; stroke: #1f77b4"/>
     <use xlink:href="#mbaec228ed2" x="335.179636" y="122.130024" style="fill: #1f77b4; stroke: #1f77b4"/>
     <use xlink:href="#mbaec228ed2" x="336.802909" y="120.64088" style="fill: #1f77b4; stroke: #1f77b4"/>
     <use xlink:href="#mbaec228ed2" x="338.426182" y="119.137206" style="fill: #1f77b4; stroke: #1f77b4"/>
     <use xlink:href="#mbaec228ed2" x="340.049455" y="117.619035" style="fill: #1f77b4; stroke: #1f77b4"/>
     <use xlink:href="#mbaec228ed2" x="341.672727" y="116.086397" style="fill: #1f77b4; stroke: #1f77b4"/>
     <use xlink:href="#mbaec228ed2" x="343.296" y="114.539325" style="fill: #1f77b4; stroke: #1f77b4"/>
     <use xlink:href="#mbaec228ed2" x="344.919273" y="112.977851" style="fill: #1f77b4; stroke: #1f77b4"/>
     <use xlink:href="#mbaec228ed2" x="346.542545" y="111.402007" style="fill: #1f77b4; stroke: #1f77b4"/>
     <use xlink:href="#mbaec228ed2" x="348.165818" y="109.811823" style="fill: #1f77b4; stroke: #1f77b4"/>
     <use xlink:href="#mbaec228ed2" x="349.789091" y="108.207332" style="fill: #1f77b4; stroke: #1f77b4"/>
     <use xlink:href="#mbaec228ed2" x="351.412364" y="106.588565" style="fill: #1f77b4; stroke: #1f77b4"/>
     <use xlink:href="#mbaec228ed2" x="353.035636" y="104.955552" style="fill: #1f77b4; stroke: #1f77b4"/>
     <use xlink:href="#mbaec228ed2" x="354.658909" y="103.308326" style="fill: #1f77b4; stroke: #1f77b4"/>
     <use xlink:href="#mbaec228ed2" x="356.282182" y="101.646915" style="fill: #1f77b4; stroke: #1f77b4"/>
     <use xlink:href="#mbaec228ed2" x="357.905455" y="99.971352" style="fill: #1f77b4; stroke: #1f77b4"/>
     <use xlink:href="#mbaec228ed2" x="359.528727" y="98.281666" style="fill: #1f77b4; stroke: #1f77b4"/>
     <use xlink:href="#mbaec228ed2" x="361.152" y="96.577888" style="fill: #1f77b4; stroke: #1f77b4"/>
     <use xlink:href="#mbaec228ed2" x="362.775273" y="94.860048" style="fill: #1f77b4; stroke: #1f77b4"/>
     <use xlink:href="#mbaec228ed2" x="364.398545" y="93.128175" style="fill: #1f77b4; stroke: #1f77b4"/>
     <use xlink:href="#mbaec228ed2" x="366.021818" y="91.382299" style="fill: #1f77b4; stroke: #1f77b4"/>
     <use xlink:href="#mbaec228ed2" x="367.645091" y="89.622449" style="fill: #1f77b4; stroke: #1f77b4"/>
     <use xlink:href="#mbaec228ed2" x="369.268364" y="87.848656" style="fill: #1f77b4; stroke: #1f77b4"/>
     <use xlink:href="#mbaec228ed2" x="370.891636" y="86.060947" style="fill: #1f77b4; stroke: #1f77b4"/>
     <use xlink:href="#mbaec228ed2" x="372.514909" y="84.259352" style="fill: #1f77b4; stroke: #1f77b4"/>
     <use xlink:href="#mbaec228ed2" x="374.138182" y="82.4439" style="fill: #1f77b4; stroke: #1f77b4"/>
     <use xlink:href="#mbaec228ed2" x="375.761455" y="80.614618" style="fill: #1f77b4; stroke: #1f77b4"/>
     <use xlink:href="#mbaec228ed2" x="377.384727" y="78.771535" style="fill: #1f77b4; stroke: #1f77b4"/>
     <use xlink:href="#mbaec228ed2" x="379.008" y="76.914679" style="fill: #1f77b4; stroke: #1f77b4"/>
     <use xlink:href="#mbaec228ed2" x="380.631273" y="75.044077" style="fill: #1f77b4; stroke: #1f77b4"/>
     <use xlink:href="#mbaec228ed2" x="382.254545" y="73.159758" style="fill: #1f77b4; stroke: #1f77b4"/>
     <use xlink:href="#mbaec228ed2" x="383.877818" y="71.261748" style="fill: #1f77b4; stroke: #1f77b4"/>
     <use xlink:href="#mbaec228ed2" x="385.501091" y="69.350075" style="fill: #1f77b4; stroke: #1f77b4"/>
     <use xlink:href="#mbaec228ed2" x="387.124364" y="67.424766" style="fill: #1f77b4; stroke: #1f77b4"/>
     <use xlink:href="#mbaec228ed2" x="388.747636" y="65.485847" style="fill: #1f77b4; stroke: #1f77b4"/>
     <use xlink:href="#mbaec228ed2" x="390.370909" y="63.533345" style="fill: #1f77b4; stroke: #1f77b4"/>
     <use xlink:href="#mbaec228ed2" x="391.994182" y="61.567286" style="fill: #1f77b4; stroke: #1f77b4"/>
     <use xlink:href="#mbaec228ed2" x="393.617455" y="59.587696" style="fill: #1f77b4; stroke: #1f77b4"/>
     <use xlink:href="#mbaec228ed2" x="395.240727" y="57.594602" style="fill: #1f77b4; stroke: #1f77b4"/>
     <use xlink:href="#mbaec228ed2" x="396.864" y="55.588028" style="fill: #1f77b4; stroke: #1f77b4"/>
     <use xlink:href="#mbaec228ed2" x="398.487273" y="53.568" style="fill: #1f77b4; stroke: #1f77b4"/>
    </g>
   </g>
   <g id="patch_3">
    <path d="M 57.6 307.584 
L 57.6 41.472 
" style="fill: none; stroke: #000000; stroke-width: 0.8; stroke-linejoin: miter; stroke-linecap: square"/>
   </g>
   <g id="patch_4">
    <path d="M 414.72 307.584 
L 414.72 41.472 
" style="fill: none; stroke: #000000; stroke-width: 0.8; stroke-linejoin: miter; stroke-linecap: square"/>
   </g>
   <g id="patch_5">
    <path d="M 57.6 307.584 
L 414.72 307.584 
" style="fill: none; stroke: #000000; stroke-width: 0.8; stroke-linejoin: miter; stroke-linecap: square"/>
   </g>
   <g id="patch_6">
    <path d="M 57.6 41.472 
L 414.72 41.472 
" style="fill: none; stroke: #000000; stroke-width: 0.8; stroke-linejoin: miter; stroke-linecap: square"/>
   </g>
  </g>
 </g>
 <defs>
  <clipPath id="p8965188505">
   <rect x="57.6" y="41.472" width="357.12" height="266.112"/>
  </clipPath>
 </defs>
</svg>
