<?xml version="1.0" encoding="utf-8" standalone="no"?>
<!DOCTYPE svg PUBLIC "-//W3C//DTD SVG 1.1//EN"
  "http://www.w3.org/Graphics/SVG/1.1/DTD/svg11.dtd">
<svg xmlns:xlink="http://www.w3.org/1999/xlink" width="460.8pt" height="345.6pt" viewBox="0 0 460.8 345.6" xmlns="http://www.w3.org/2000/svg" version="1.1">
 <metadata>
  <rdf:RDF xmlns:dc="http://purl.org/dc/elements/1.1/" xmlns:cc="http://creativecommons.org/ns#" xmlns:rdf="http://www.w3.org/1999/02/22-rdf-syntax-ns#">
   <cc:Work>
    <dc:type rdf:resource="http://purl.org/dc/dcmitype/StillImage"/>
    <dc:date>2022-01-02T13:13:29.689884</dc:date>
    <dc:format>image/svg+xml</dc:format>
    <dc:creator>
     <cc:Agent>
      <dc:title>Matplotlib v3.5.0, https://matplotlib.org/</dc:title>
     </cc:Agent>
    </dc:creator>
   </cc:Work>
  </rdf:RDF>
 </metadata>
 <defs>
  <style type="text/css">*{stroke-linejoin: round; stroke-linecap: butt}</style>
 </defs>
 <g id="figure_1">
  <g id="patch_1">
   <path d="M 0 345.6 
L 460.8 345.6 
L 460.8 0 
L 0 0 
z
" style="fill: #ffffff"/>
  </g>
  <g id="axes_1">
   <g id="patch_2">
    <path d="M 57.6 307.584 
L 414.72 307.584 
L 414.72 41.472 
L 57.6 41.472 
z
" style="fill: #ffffff"/>
   </g>
   <g id="matplotlib.axis_1">
    <g id="xtick_1">
     <g id="line2d_1">
      <defs>
       <path id="m430d577151" d="M 0 0 
L 0 3.5 
" style="stroke: #000000; stroke-width: 0.8"/>
      </defs>
      <g>
       <use xlink:href="#m430d577151" x="73.832727" y="307.584" style="stroke: #000000; stroke-width: 0.8"/>
      </g>
     </g>
     <g id="text_1">
      <!-- 0.0 -->
      <g transform="translate(65.881165 322.182437)scale(0.1 -0.1)">
       <defs>
        <path id="DejaVuSans-30" d="M 2034 4250 
Q 1547 4250 1301 3770 
Q 1056 3291 1056 2328 
Q 1056 1369 1301 889 
Q 1547 409 2034 409 
Q 2525 409 2770 889 
Q 3016 1369 3016 2328 
Q 3016 3291 2770 3770 
Q 2525 4250 2034 4250 
z
M 2034 4750 
Q 2819 4750 3233 4129 
Q 3647 3509 3647 2328 
Q 3647 1150 3233 529 
Q 2819 -91 2034 -91 
Q 1250 -91 836 529 
Q 422 1150 422 2328 
Q 422 3509 836 4129 
Q 1250 4750 2034 4750 
z
" transform="scale(0.015625)"/>
        <path id="DejaVuSans-2e" d="M 684 794 
L 1344 794 
L 1344 0 
L 684 0 
L 684 794 
z
" transform="scale(0.015625)"/>
       </defs>
       <use xlink:href="#DejaVuSans-30"/>
       <use xlink:href="#DejaVuSans-2e" x="63.623047"/>
       <use xlink:href="#DejaVuSans-30" x="95.410156"/>
      </g>
     </g>
    </g>
    <g id="xtick_2">
     <g id="line2d_2">
      <g>
       <use xlink:href="#m430d577151" x="138.763636" y="307.584" style="stroke: #000000; stroke-width: 0.8"/>
      </g>
     </g>
     <g id="text_2">
      <!-- 0.2 -->
      <g transform="translate(130.812074 322.182437)scale(0.1 -0.1)">
       <defs>
        <path id="DejaVuSans-32" d="M 1228 531 
L 3431 531 
L 3431 0 
L 469 0 
L 469 531 
Q 828 903 1448 1529 
Q 2069 2156 2228 2338 
Q 2531 2678 2651 2914 
Q 2772 3150 2772 3378 
Q 2772 3750 2511 3984 
Q 2250 4219 1831 4219 
Q 1534 4219 1204 4116 
Q 875 4013 500 3803 
L 500 4441 
Q 881 4594 1212 4672 
Q 1544 4750 1819 4750 
Q 2544 4750 2975 4387 
Q 3406 4025 3406 3419 
Q 3406 3131 3298 2873 
Q 3191 2616 2906 2266 
Q 2828 2175 2409 1742 
Q 1991 1309 1228 531 
z
" transform="scale(0.015625)"/>
       </defs>
       <use xlink:href="#DejaVuSans-30"/>
       <use xlink:href="#DejaVuSans-2e" x="63.623047"/>
       <use xlink:href="#DejaVuSans-32" x="95.410156"/>
      </g>
     </g>
    </g>
    <g id="xtick_3">
     <g id="line2d_3">
      <g>
       <use xlink:href="#m430d577151" x="203.694545" y="307.584" style="stroke: #000000; stroke-width: 0.8"/>
      </g>
     </g>
     <g id="text_3">
      <!-- 0.4 -->
      <g transform="translate(195.742983 322.182437)scale(0.1 -0.1)">
       <defs>
        <path id="DejaVuSans-34" d="M 2419 4116 
L 825 1625 
L 2419 1625 
L 2419 4116 
z
M 2253 4666 
L 3047 4666 
L 3047 1625 
L 3713 1625 
L 3713 1100 
L 3047 1100 
L 3047 0 
L 2419 0 
L 2419 1100 
L 313 1100 
L 313 1709 
L 2253 4666 
z
" transform="scale(0.015625)"/>
       </defs>
       <use xlink:href="#DejaVuSans-30"/>
       <use xlink:href="#DejaVuSans-2e" x="63.623047"/>
       <use xlink:href="#DejaVuSans-34" x="95.410156"/>
      </g>
     </g>
    </g>
    <g id="xtick_4">
     <g id="line2d_4">
      <g>
       <use xlink:href="#m430d577151" x="268.625455" y="307.584" style="stroke: #000000; stroke-width: 0.8"/>
      </g>
     </g>
     <g id="text_4">
      <!-- 0.6 -->
      <g transform="translate(260.673892 322.182437)scale(0.1 -0.1)">
       <defs>
        <path id="DejaVuSans-36" d="M 2113 2584 
Q 1688 2584 1439 2293 
Q 1191 2003 1191 1497 
Q 1191 994 1439 701 
Q 1688 409 2113 409 
Q 2538 409 2786 701 
Q 3034 994 3034 1497 
Q 3034 2003 2786 2293 
Q 2538 2584 2113 2584 
z
M 3366 4563 
L 3366 3988 
Q 3128 4100 2886 4159 
Q 2644 4219 2406 4219 
Q 1781 4219 1451 3797 
Q 1122 3375 1075 2522 
Q 1259 2794 1537 2939 
Q 1816 3084 2150 3084 
Q 2853 3084 3261 2657 
Q 3669 2231 3669 1497 
Q 3669 778 3244 343 
Q 2819 -91 2113 -91 
Q 1303 -91 875 529 
Q 447 1150 447 2328 
Q 447 3434 972 4092 
Q 1497 4750 2381 4750 
Q 2619 4750 2861 4703 
Q 3103 4656 3366 4563 
z
" transform="scale(0.015625)"/>
       </defs>
       <use xlink:href="#DejaVuSans-30"/>
       <use xlink:href="#DejaVuSans-2e" x="63.623047"/>
       <use xlink:href="#DejaVuSans-36" x="95.410156"/>
      </g>
     </g>
    </g>
    <g id="xtick_5">
     <g id="line2d_5">
      <g>
       <use xlink:href="#m430d577151" x="333.556364" y="307.584" style="stroke: #000000; stroke-width: 0.8"/>
      </g>
     </g>
     <g id="text_5">
      <!-- 0.8 -->
      <g transform="translate(325.604801 322.182437)scale(0.1 -0.1)">
       <defs>
        <path id="DejaVuSans-38" d="M 2034 2216 
Q 1584 2216 1326 1975 
Q 1069 1734 1069 1313 
Q 1069 891 1326 650 
Q 1584 409 2034 409 
Q 2484 409 2743 651 
Q 3003 894 3003 1313 
Q 3003 1734 2745 1975 
Q 2488 2216 2034 2216 
z
M 1403 2484 
Q 997 2584 770 2862 
Q 544 3141 544 3541 
Q 544 4100 942 4425 
Q 1341 4750 2034 4750 
Q 2731 4750 3128 4425 
Q 3525 4100 3525 3541 
Q 3525 3141 3298 2862 
Q 3072 2584 2669 2484 
Q 3125 2378 3379 2068 
Q 3634 1759 3634 1313 
Q 3634 634 3220 271 
Q 2806 -91 2034 -91 
Q 1263 -91 848 271 
Q 434 634 434 1313 
Q 434 1759 690 2068 
Q 947 2378 1403 2484 
z
M 1172 3481 
Q 1172 3119 1398 2916 
Q 1625 2713 2034 2713 
Q 2441 2713 2670 2916 
Q 2900 3119 2900 3481 
Q 2900 3844 2670 4047 
Q 2441 4250 2034 4250 
Q 1625 4250 1398 4047 
Q 1172 3844 1172 3481 
z
" transform="scale(0.015625)"/>
       </defs>
       <use xlink:href="#DejaVuSans-30"/>
       <use xlink:href="#DejaVuSans-2e" x="63.623047"/>
       <use xlink:href="#DejaVuSans-38" x="95.410156"/>
      </g>
     </g>
    </g>
    <g id="xtick_6">
     <g id="line2d_6">
      <g>
       <use xlink:href="#m430d577151" x="398.487273" y="307.584" style="stroke: #000000; stroke-width: 0.8"/>
      </g>
     </g>
     <g id="text_6">
      <!-- 1.0 -->
      <g transform="translate(390.53571 322.182437)scale(0.1 -0.1)">
       <defs>
        <path id="DejaVuSans-31" d="M 794 531 
L 1825 531 
L 1825 4091 
L 703 3866 
L 703 4441 
L 1819 4666 
L 2450 4666 
L 2450 531 
L 3481 531 
L 3481 0 
L 794 0 
L 794 531 
z
" transform="scale(0.015625)"/>
       </defs>
       <use xlink:href="#DejaVuSans-31"/>
       <use xlink:href="#DejaVuSans-2e" x="63.623047"/>
       <use xlink:href="#DejaVuSans-30" x="95.410156"/>
      </g>
     </g>
    </g>
   </g>
   <g id="matplotlib.axis_2">
    <g id="ytick_1">
     <g id="line2d_7">
      <defs>
       <path id="m742ef11bbc" d="M 0 0 
L -3.5 0 
" style="stroke: #000000; stroke-width: 0.8"/>
      </defs>
      <g>
       <use xlink:href="#m742ef11bbc" x="57.6" y="295.488" style="stroke: #000000; stroke-width: 0.8"/>
      </g>
     </g>
     <g id="text_7">
      <!-- 0.0 -->
      <g transform="translate(34.696875 299.287219)scale(0.1 -0.1)">
       <use xlink:href="#DejaVuSans-30"/>
       <use xlink:href="#DejaVuSans-2e" x="63.623047"/>
       <use xlink:href="#DejaVuSans-30" x="95.410156"/>
      </g>
     </g>
    </g>
    <g id="ytick_2">
     <g id="line2d_8">
      <g>
       <use xlink:href="#m742ef11bbc" x="57.6" y="261.560953" style="stroke: #000000; stroke-width: 0.8"/>
      </g>
     </g>
     <g id="text_8">
      <!-- 0.2 -->
      <g transform="translate(34.696875 265.360172)scale(0.1 -0.1)">
       <use xlink:href="#DejaVuSans-30"/>
       <use xlink:href="#DejaVuSans-2e" x="63.623047"/>
       <use xlink:href="#DejaVuSans-32" x="95.410156"/>
      </g>
     </g>
    </g>
    <g id="ytick_3">
     <g id="line2d_9">
      <g>
       <use xlink:href="#m742ef11bbc" x="57.6" y="227.633906" style="stroke: #000000; stroke-width: 0.8"/>
      </g>
     </g>
     <g id="text_9">
      <!-- 0.4 -->
      <g transform="translate(34.696875 231.433125)scale(0.1 -0.1)">
       <use xlink:href="#DejaVuSans-30"/>
       <use xlink:href="#DejaVuSans-2e" x="63.623047"/>
       <use xlink:href="#DejaVuSans-34" x="95.410156"/>
      </g>
     </g>
    </g>
    <g id="ytick_4">
     <g id="line2d_10">
      <g>
       <use xlink:href="#m742ef11bbc" x="57.6" y="193.706859" style="stroke: #000000; stroke-width: 0.8"/>
      </g>
     </g>
     <g id="text_10">
      <!-- 0.6 -->
      <g transform="translate(34.696875 197.506078)scale(0.1 -0.1)">
       <use xlink:href="#DejaVuSans-30"/>
       <use xlink:href="#DejaVuSans-2e" x="63.623047"/>
       <use xlink:href="#DejaVuSans-36" x="95.410156"/>
      </g>
     </g>
    </g>
    <g id="ytick_5">
     <g id="line2d_11">
      <g>
       <use xlink:href="#m742ef11bbc" x="57.6" y="159.779812" style="stroke: #000000; stroke-width: 0.8"/>
      </g>
     </g>
     <g id="text_11">
      <!-- 0.8 -->
      <g transform="translate(34.696875 163.579031)scale(0.1 -0.1)">
       <use xlink:href="#DejaVuSans-30"/>
       <use xlink:href="#DejaVuSans-2e" x="63.623047"/>
       <use xlink:href="#DejaVuSans-38" x="95.410156"/>
      </g>
     </g>
    </g>
    <g id="ytick_6">
     <g id="line2d_12">
      <g>
       <use xlink:href="#m742ef11bbc" x="57.6" y="125.852765" style="stroke: #000000; stroke-width: 0.8"/>
      </g>
     </g>
     <g id="text_12">
      <!-- 1.0 -->
      <g transform="translate(34.696875 129.651984)scale(0.1 -0.1)">
       <use xlink:href="#DejaVuSans-31"/>
       <use xlink:href="#DejaVuSans-2e" x="63.623047"/>
       <use xlink:href="#DejaVuSans-30" x="95.410156"/>
      </g>
     </g>
    </g>
    <g id="ytick_7">
     <g id="line2d_13">
      <g>
       <use xlink:href="#m742ef11bbc" x="57.6" y="91.925718" style="stroke: #000000; stroke-width: 0.8"/>
      </g>
     </g>
     <g id="text_13">
      <!-- 1.2 -->
      <g transform="translate(34.696875 95.724937)scale(0.1 -0.1)">
       <use xlink:href="#DejaVuSans-31"/>
       <use xlink:href="#DejaVuSans-2e" x="63.623047"/>
       <use xlink:href="#DejaVuSans-32" x="95.410156"/>
      </g>
     </g>
    </g>
    <g id="ytick_8">
     <g id="line2d_14">
      <g>
       <use xlink:href="#m742ef11bbc" x="57.6" y="57.998671" style="stroke: #000000; stroke-width: 0.8"/>
      </g>
     </g>
     <g id="text_14">
      <!-- 1.4 -->
      <g transform="translate(34.696875 61.79789)scale(0.1 -0.1)">
       <use xlink:href="#DejaVuSans-31"/>
       <use xlink:href="#DejaVuSans-2e" x="63.623047"/>
       <use xlink:href="#DejaVuSans-34" x="95.410156"/>
      </g>
     </g>
    </g>
   </g>
   <g id="line2d_15">
    <defs>
     <path id="mdb3801330a" d="M 0 3 
C 0.795609 3 1.55874 2.683901 2.12132 2.12132 
C 2.683901 1.55874 3 0.795609 3 0 
C 3 -0.795609 2.683901 -1.55874 2.12132 -2.12132 
C 1.55874 -2.683901 0.795609 -3 0 -3 
C -0.795609 -3 -1.55874 -2.683901 -2.12132 -2.12132 
C -2.683901 -1.55874 -3 -0.795609 -3 0 
C -3 0.795609 -2.683901 1.55874 -2.12132 2.12132 
C -1.55874 2.683901 -0.795609 3 0 3 
z
" style="stroke: #1f77b4"/>
    </defs>
    <g clip-path="url(#p12f27a3260)">
     <use xlink:href="#mdb3801330a" x="73.832727" y="295.488" style="fill: #1f77b4; stroke: #1f77b4"/>
     <use xlink:href="#mdb3801330a" x="75.456" y="295.488" style="fill: #1f77b4; stroke: #1f77b4"/>
     <use xlink:href="#mdb3801330a" x="77.079273" y="295.488" style="fill: #1f77b4; stroke: #1f77b4"/>
     <use xlink:href="#mdb3801330a" x="78.702545" y="295.488" style="fill: #1f77b4; stroke: #1f77b4"/>
     <use xlink:href="#mdb3801330a" x="80.325818" y="295.488" style="fill: #1f77b4; stroke: #1f77b4"/>
     <use xlink:href="#mdb3801330a" x="81.949091" y="295.488" style="fill: #1f77b4; stroke: #1f77b4"/>
     <use xlink:href="#mdb3801330a" x="83.572364" y="295.488" style="fill: #1f77b4; stroke: #1f77b4"/>
     <use xlink:href="#mdb3801330a" x="85.195636" y="295.488" style="fill: #1f77b4; stroke: #1f77b4"/>
     <use xlink:href="#mdb3801330a" x="86.818909" y="295.488" style="fill: #1f77b4; stroke: #1f77b4"/>
     <use xlink:href="#mdb3801330a" x="88.442182" y="295.488" style="fill: #1f77b4; stroke: #1f77b4"/>
     <use xlink:href="#mdb3801330a" x="90.065455" y="295.488" style="fill: #1f77b4; stroke: #1f77b4"/>
     <use xlink:href="#mdb3801330a" x="91.688727" y="295.488" style="fill: #1f77b4; stroke: #1f77b4"/>
     <use xlink:href="#mdb3801330a" x="93.312" y="295.488" style="fill: #1f77b4; stroke: #1f77b4"/>
     <use xlink:href="#mdb3801330a" x="94.935273" y="295.488" style="fill: #1f77b4; stroke: #1f77b4"/>
     <use xlink:href="#mdb3801330a" x="96.558545" y="295.488" style="fill: #1f77b4; stroke: #1f77b4"/>
     <use xlink:href="#mdb3801330a" x="98.181818" y="295.488" style="fill: #1f77b4; stroke: #1f77b4"/>
     <use xlink:href="#mdb3801330a" x="99.805091" y="295.488" style="fill: #1f77b4; stroke: #1f77b4"/>
     <use xlink:href="#mdb3801330a" x="101.428364" y="295.488" style="fill: #1f77b4; stroke: #1f77b4"/>
     <use xlink:href="#mdb3801330a" x="103.051636" y="295.488" style="fill: #1f77b4; stroke: #1f77b4"/>
     <use xlink:href="#mdb3801330a" x="104.674909" y="295.488" style="fill: #1f77b4; stroke: #1f77b4"/>
     <use xlink:href="#mdb3801330a" x="106.298182" y="295.488" style="fill: #1f77b4; stroke: #1f77b4"/>
     <use xlink:href="#mdb3801330a" x="107.921455" y="295.488" style="fill: #1f77b4; stroke: #1f77b4"/>
     <use xlink:href="#mdb3801330a" x="109.544727" y="295.488" style="fill: #1f77b4; stroke: #1f77b4"/>
     <use xlink:href="#mdb3801330a" x="111.168" y="295.488" style="fill: #1f77b4; stroke: #1f77b4"/>
     <use xlink:href="#mdb3801330a" x="112.791273" y="295.488" style="fill: #1f77b4; stroke: #1f77b4"/>
     <use xlink:href="#mdb3801330a" x="114.414545" y="295.488" style="fill: #1f77b4; stroke: #1f77b4"/>
     <use xlink:href="#mdb3801330a" x="116.037818" y="295.488" style="fill: #1f77b4; stroke: #1f77b4"/>
     <use xlink:href="#mdb3801330a" x="117.661091" y="295.488" style="fill: #1f77b4; stroke: #1f77b4"/>
     <use xlink:href="#mdb3801330a" x="119.284364" y="295.488" style="fill: #1f77b4; stroke: #1f77b4"/>
     <use xlink:href="#mdb3801330a" x="120.907636" y="295.488" style="fill: #1f77b4; stroke: #1f77b4"/>
     <use xlink:href="#mdb3801330a" x="122.530909" y="295.488" style="fill: #1f77b4; stroke: #1f77b4"/>
     <use xlink:href="#mdb3801330a" x="124.154182" y="295.488" style="fill: #1f77b4; stroke: #1f77b4"/>
     <use xlink:href="#mdb3801330a" x="125.777455" y="295.488" style="fill: #1f77b4; stroke: #1f77b4"/>
     <use xlink:href="#mdb3801330a" x="127.400727" y="295.488" style="fill: #1f77b4; stroke: #1f77b4"/>
     <use xlink:href="#mdb3801330a" x="129.024" y="295.488" style="fill: #1f77b4; stroke: #1f77b4"/>
     <use xlink:href="#mdb3801330a" x="130.647273" y="295.488" style="fill: #1f77b4; stroke: #1f77b4"/>
     <use xlink:href="#mdb3801330a" x="132.270545" y="295.488" style="fill: #1f77b4; stroke: #1f77b4"/>
     <use xlink:href="#mdb3801330a" x="133.893818" y="295.488" style="fill: #1f77b4; stroke: #1f77b4"/>
     <use xlink:href="#mdb3801330a" x="135.517091" y="295.488" style="fill: #1f77b4; stroke: #1f77b4"/>
     <use xlink:href="#mdb3801330a" x="137.140364" y="295.488" style="fill: #1f77b4; stroke: #1f77b4"/>
     <use xlink:href="#mdb3801330a" x="138.763636" y="295.488" style="fill: #1f77b4; stroke: #1f77b4"/>
     <use xlink:href="#mdb3801330a" x="140.386909" y="295.488" style="fill: #1f77b4; stroke: #1f77b4"/>
     <use xlink:href="#mdb3801330a" x="142.010182" y="295.488" style="fill: #1f77b4; stroke: #1f77b4"/>
     <use xlink:href="#mdb3801330a" x="143.633455" y="295.488" style="fill: #1f77b4; stroke: #1f77b4"/>
     <use xlink:href="#mdb3801330a" x="145.256727" y="295.488" style="fill: #1f77b4; stroke: #1f77b4"/>
     <use xlink:href="#mdb3801330a" x="146.88" y="295.488" style="fill: #1f77b4; stroke: #1f77b4"/>
     <use xlink:href="#mdb3801330a" x="148.503273" y="295.488" style="fill: #1f77b4; stroke: #1f77b4"/>
     <use xlink:href="#mdb3801330a" x="150.126545" y="295.488" style="fill: #1f77b4; stroke: #1f77b4"/>
     <use xlink:href="#mdb3801330a" x="151.749818" y="295.488" style="fill: #1f77b4; stroke: #1f77b4"/>
     <use xlink:href="#mdb3801330a" x="153.373091" y="295.488" style="fill: #1f77b4; stroke: #1f77b4"/>
     <use xlink:href="#mdb3801330a" x="154.996364" y="295.488" style="fill: #1f77b4; stroke: #1f77b4"/>
     <use xlink:href="#mdb3801330a" x="156.619636" y="295.488" style="fill: #1f77b4; stroke: #1f77b4"/>
     <use xlink:href="#mdb3801330a" x="158.242909" y="295.488" style="fill: #1f77b4; stroke: #1f77b4"/>
     <use xlink:href="#mdb3801330a" x="159.866182" y="295.488" style="fill: #1f77b4; stroke: #1f77b4"/>
     <use xlink:href="#mdb3801330a" x="161.489455" y="295.488" style="fill: #1f77b4; stroke: #1f77b4"/>
     <use xlink:href="#mdb3801330a" x="163.112727" y="295.488" style="fill: #1f77b4; stroke: #1f77b4"/>
     <use xlink:href="#mdb3801330a" x="164.736" y="295.488" style="fill: #1f77b4; stroke: #1f77b4"/>
     <use xlink:href="#mdb3801330a" x="166.359273" y="295.488" style="fill: #1f77b4; stroke: #1f77b4"/>
     <use xlink:href="#mdb3801330a" x="167.982545" y="295.488" style="fill: #1f77b4; stroke: #1f77b4"/>
     <use xlink:href="#mdb3801330a" x="169.605818" y="295.488" style="fill: #1f77b4; stroke: #1f77b4"/>
     <use xlink:href="#mdb3801330a" x="171.229091" y="295.488" style="fill: #1f77b4; stroke: #1f77b4"/>
     <use xlink:href="#mdb3801330a" x="172.852364" y="295.488" style="fill: #1f77b4; stroke: #1f77b4"/>
     <use xlink:href="#mdb3801330a" x="174.475636" y="295.488" style="fill: #1f77b4; stroke: #1f77b4"/>
     <use xlink:href="#mdb3801330a" x="176.098909" y="295.488" style="fill: #1f77b4; stroke: #1f77b4"/>
     <use xlink:href="#mdb3801330a" x="177.722182" y="295.488" style="fill: #1f77b4; stroke: #1f77b4"/>
     <use xlink:href="#mdb3801330a" x="179.345455" y="295.488" style="fill: #1f77b4; stroke: #1f77b4"/>
     <use xlink:href="#mdb3801330a" x="180.968727" y="295.488" style="fill: #1f77b4; stroke: #1f77b4"/>
     <use xlink:href="#mdb3801330a" x="182.592" y="295.488" style="fill: #1f77b4; stroke: #1f77b4"/>
     <use xlink:href="#mdb3801330a" x="184.215273" y="295.488" style="fill: #1f77b4; stroke: #1f77b4"/>
     <use xlink:href="#mdb3801330a" x="185.838545" y="295.488" style="fill: #1f77b4; stroke: #1f77b4"/>
     <use xlink:href="#mdb3801330a" x="187.461818" y="295.488" style="fill: #1f77b4; stroke: #1f77b4"/>
     <use xlink:href="#mdb3801330a" x="189.085091" y="295.488" style="fill: #1f77b4; stroke: #1f77b4"/>
     <use xlink:href="#mdb3801330a" x="190.708364" y="295.488" style="fill: #1f77b4; stroke: #1f77b4"/>
     <use xlink:href="#mdb3801330a" x="192.331636" y="295.488" style="fill: #1f77b4; stroke: #1f77b4"/>
     <use xlink:href="#mdb3801330a" x="193.954909" y="295.488" style="fill: #1f77b4; stroke: #1f77b4"/>
     <use xlink:href="#mdb3801330a" x="195.578182" y="295.488" style="fill: #1f77b4; stroke: #1f77b4"/>
     <use xlink:href="#mdb3801330a" x="197.201455" y="295.488" style="fill: #1f77b4; stroke: #1f77b4"/>
     <use xlink:href="#mdb3801330a" x="198.824727" y="295.488" style="fill: #1f77b4; stroke: #1f77b4"/>
     <use xlink:href="#mdb3801330a" x="200.448" y="295.488" style="fill: #1f77b4; stroke: #1f77b4"/>
     <use xlink:href="#mdb3801330a" x="202.071273" y="295.488" style="fill: #1f77b4; stroke: #1f77b4"/>
     <use xlink:href="#mdb3801330a" x="203.694545" y="168.536628" style="fill: #1f77b4; stroke: #1f77b4"/>
     <use xlink:href="#mdb3801330a" x="205.317818" y="168.536165" style="fill: #1f77b4; stroke: #1f77b4"/>
     <use xlink:href="#mdb3801330a" x="206.941091" y="168.534337" style="fill: #1f77b4; stroke: #1f77b4"/>
     <use xlink:href="#mdb3801330a" x="208.564364" y="168.530273" style="fill: #1f77b4; stroke: #1f77b4"/>
     <use xlink:href="#mdb3801330a" x="210.187636" y="168.523135" style="fill: #1f77b4; stroke: #1f77b4"/>
     <use xlink:href="#mdb3801330a" x="211.810909" y="168.512114" style="fill: #1f77b4; stroke: #1f77b4"/>
     <use xlink:href="#mdb3801330a" x="213.434182" y="168.496429" style="fill: #1f77b4; stroke: #1f77b4"/>
     <use xlink:href="#mdb3801330a" x="215.057455" y="168.475326" style="fill: #1f77b4; stroke: #1f77b4"/>
     <use xlink:href="#mdb3801330a" x="216.680727" y="168.44808" style="fill: #1f77b4; stroke: #1f77b4"/>
     <use xlink:href="#mdb3801330a" x="218.304" y="168.413989" style="fill: #1f77b4; stroke: #1f77b4"/>
     <use xlink:href="#mdb3801330a" x="219.927273" y="168.372375" style="fill: #1f77b4; stroke: #1f77b4"/>
     <use xlink:href="#mdb3801330a" x="221.550545" y="168.322584" style="fill: #1f77b4; stroke: #1f77b4"/>
     <use xlink:href="#mdb3801330a" x="223.173818" y="168.263986" style="fill: #1f77b4; stroke: #1f77b4"/>
     <use xlink:href="#mdb3801330a" x="224.797091" y="168.195971" style="fill: #1f77b4; stroke: #1f77b4"/>
     <use xlink:href="#mdb3801330a" x="226.420364" y="168.117951" style="fill: #1f77b4; stroke: #1f77b4"/>
     <use xlink:href="#mdb3801330a" x="228.043636" y="168.029358" style="fill: #1f77b4; stroke: #1f77b4"/>
     <use xlink:href="#mdb3801330a" x="229.666909" y="167.929644" style="fill: #1f77b4; stroke: #1f77b4"/>
     <use xlink:href="#mdb3801330a" x="231.290182" y="167.818281" style="fill: #1f77b4; stroke: #1f77b4"/>
     <use xlink:href="#mdb3801330a" x="232.913455" y="167.694759" style="fill: #1f77b4; stroke: #1f77b4"/>
     <use xlink:href="#mdb3801330a" x="234.536727" y="167.558586" style="fill: #1f77b4; stroke: #1f77b4"/>
     <use xlink:href="#mdb3801330a" x="236.16" y="167.409287" style="fill: #1f77b4; stroke: #1f77b4"/>
     <use xlink:href="#mdb3801330a" x="237.783273" y="167.246406" style="fill: #1f77b4; stroke: #1f77b4"/>
     <use xlink:href="#mdb3801330a" x="239.406545" y="167.069502" style="fill: #1f77b4; stroke: #1f77b4"/>
     <use xlink:href="#mdb3801330a" x="241.029818" y="166.878152" style="fill: #1f77b4; stroke: #1f77b4"/>
     <use xlink:href="#mdb3801330a" x="242.653091" y="166.671946" style="fill: #1f77b4; stroke: #1f77b4"/>
     <use xlink:href="#mdb3801330a" x="244.276364" y="166.450493" style="fill: #1f77b4; stroke: #1f77b4"/>
     <use xlink:href="#mdb3801330a" x="245.899636" y="166.213415" style="fill: #1f77b4; stroke: #1f77b4"/>
     <use xlink:href="#mdb3801330a" x="247.522909" y="165.960348" style="fill: #1f77b4; stroke: #1f77b4"/>
     <use xlink:href="#mdb3801330a" x="249.146182" y="165.690944" style="fill: #1f77b4; stroke: #1f77b4"/>
     <use xlink:href="#mdb3801330a" x="250.769455" y="165.404868" style="fill: #1f77b4; stroke: #1f77b4"/>
     <use xlink:href="#mdb3801330a" x="252.392727" y="165.1018" style="fill: #1f77b4; stroke: #1f77b4"/>
     <use xlink:href="#mdb3801330a" x="254.016" y="164.781432" style="fill: #1f77b4; stroke: #1f77b4"/>
     <use xlink:href="#mdb3801330a" x="255.639273" y="164.44347" style="fill: #1f77b4; stroke: #1f77b4"/>
     <use xlink:href="#mdb3801330a" x="257.262545" y="164.087631" style="fill: #1f77b4; stroke: #1f77b4"/>
     <use xlink:href="#mdb3801330a" x="258.885818" y="163.713646" style="fill: #1f77b4; stroke: #1f77b4"/>
     <use xlink:href="#mdb3801330a" x="260.509091" y="163.321258" style="fill: #1f77b4; stroke: #1f77b4"/>
     <use xlink:href="#mdb3801330a" x="262.132364" y="162.910221" style="fill: #1f77b4; stroke: #1f77b4"/>
     <use xlink:href="#mdb3801330a" x="263.755636" y="162.480302" style="fill: #1f77b4; stroke: #1f77b4"/>
     <use xlink:href="#mdb3801330a" x="265.378909" y="162.031278" style="fill: #1f77b4; stroke: #1f77b4"/>
     <use xlink:href="#mdb3801330a" x="267.002182" y="161.562938" style="fill: #1f77b4; stroke: #1f77b4"/>
     <use xlink:href="#mdb3801330a" x="268.625455" y="161.075079" style="fill: #1f77b4; stroke: #1f77b4"/>
     <use xlink:href="#mdb3801330a" x="270.248727" y="160.567512" style="fill: #1f77b4; stroke: #1f77b4"/>
     <use xlink:href="#mdb3801330a" x="271.872" y="160.040057" style="fill: #1f77b4; stroke: #1f77b4"/>
     <use xlink:href="#mdb3801330a" x="273.495273" y="159.492543" style="fill: #1f77b4; stroke: #1f77b4"/>
     <use xlink:href="#mdb3801330a" x="275.118545" y="158.924809" style="fill: #1f77b4; stroke: #1f77b4"/>
     <use xlink:href="#mdb3801330a" x="276.741818" y="158.336705" style="fill: #1f77b4; stroke: #1f77b4"/>
     <use xlink:href="#mdb3801330a" x="278.365091" y="157.728087" style="fill: #1f77b4; stroke: #1f77b4"/>
     <use xlink:href="#mdb3801330a" x="279.988364" y="157.098822" style="fill: #1f77b4; stroke: #1f77b4"/>
     <use xlink:href="#mdb3801330a" x="281.611636" y="156.448786" style="fill: #1f77b4; stroke: #1f77b4"/>
     <use xlink:href="#mdb3801330a" x="283.234909" y="155.777862" style="fill: #1f77b4; stroke: #1f77b4"/>
     <use xlink:href="#mdb3801330a" x="284.858182" y="155.085942" style="fill: #1f77b4; stroke: #1f77b4"/>
     <use xlink:href="#mdb3801330a" x="286.481455" y="154.372925" style="fill: #1f77b4; stroke: #1f77b4"/>
     <use xlink:href="#mdb3801330a" x="288.104727" y="153.63872" style="fill: #1f77b4; stroke: #1f77b4"/>
     <use xlink:href="#mdb3801330a" x="289.728" y="152.88324" style="fill: #1f77b4; stroke: #1f77b4"/>
     <use xlink:href="#mdb3801330a" x="291.351273" y="152.106408" style="fill: #1f77b4; stroke: #1f77b4"/>
     <use xlink:href="#mdb3801330a" x="292.974545" y="151.308152" style="fill: #1f77b4; stroke: #1f77b4"/>
     <use xlink:href="#mdb3801330a" x="294.597818" y="150.488407" style="fill: #1f77b4; stroke: #1f77b4"/>
     <use xlink:href="#mdb3801330a" x="296.221091" y="149.647117" style="fill: #1f77b4; stroke: #1f77b4"/>
     <use xlink:href="#mdb3801330a" x="297.844364" y="148.784229" style="fill: #1f77b4; stroke: #1f77b4"/>
     <use xlink:href="#mdb3801330a" x="299.467636" y="147.899697" style="fill: #1f77b4; stroke: #1f77b4"/>
     <use xlink:href="#mdb3801330a" x="301.090909" y="146.993482" style="fill: #1f77b4; stroke: #1f77b4"/>
     <use xlink:href="#mdb3801330a" x="302.714182" y="146.065548" style="fill: #1f77b4; stroke: #1f77b4"/>
     <use xlink:href="#mdb3801330a" x="304.337455" y="145.115869" style="fill: #1f77b4; stroke: #1f77b4"/>
     <use xlink:href="#mdb3801330a" x="305.960727" y="144.144419" style="fill: #1f77b4; stroke: #1f77b4"/>
     <use xlink:href="#mdb3801330a" x="307.584" y="143.15118" style="fill: #1f77b4; stroke: #1f77b4"/>
     <use xlink:href="#mdb3801330a" x="309.207273" y="142.136138" style="fill: #1f77b4; stroke: #1f77b4"/>
     <use xlink:href="#mdb3801330a" x="310.830545" y="141.099283" style="fill: #1f77b4; stroke: #1f77b4"/>
     <use xlink:href="#mdb3801330a" x="312.453818" y="140.040612" style="fill: #1f77b4; stroke: #1f77b4"/>
     <use xlink:href="#mdb3801330a" x="314.077091" y="138.960123" style="fill: #1f77b4; stroke: #1f77b4"/>
     <use xlink:href="#mdb3801330a" x="315.700364" y="137.857819" style="fill: #1f77b4; stroke: #1f77b4"/>
     <use xlink:href="#mdb3801330a" x="317.323636" y="136.733708" style="fill: #1f77b4; stroke: #1f77b4"/>
     <use xlink:href="#mdb3801330a" x="318.946909" y="135.5878" style="fill: #1f77b4; stroke: #1f77b4"/>
     <use xlink:href="#mdb3801330a" x="320.570182" y="134.42011" style="fill: #1f77b4; stroke: #1f77b4"/>
     <use xlink:href="#mdb3801330a" x="322.193455" y="133.230656" style="fill: #1f77b4; stroke: #1f77b4"/>
     <use xlink:href="#mdb3801330a" x="323.816727" y="132.019459" style="fill: #1f77b4; stroke: #1f77b4"/>
     <use xlink:href="#mdb3801330a" x="325.44" y="130.786542" style="fill: #1f77b4; stroke: #1f77b4"/>
     <use xlink:href="#mdb3801330a" x="327.063273" y="129.531932" style="fill: #1f77b4; stroke: #1f77b4"/>
     <use xlink:href="#mdb3801330a" x="328.686545" y="128.255659" style="fill: #1f77b4; stroke: #1f77b4"/>
     <use xlink:href="#mdb3801330a" x="330.309818" y="126.957755" style="fill: #1f77b4; stroke: #1f77b4"/>
     <use xlink:href="#mdb3801330a" x="331.933091" y="125.638254" style="fill: #1f77b4; stroke: #1f77b4"/>
     <use xlink:href="#mdb3801330a" x="333.556364" y="124.297194" style="fill: #1f77b4; stroke: #1f77b4"/>
     <use xlink:href="#mdb3801330a" x="335.179636" y="122.934613" style="fill: #1f77b4; stroke: #1f77b4"/>
     <use xlink:href="#mdb3801330a" x="336.802909" y="121.550552" style="fill: #1f77b4; stroke: #1f77b4"/>
     <use xlink:href="#mdb3801330a" x="338.426182" y="120.145055" style="fill: #1f77b4; stroke: #1f77b4"/>
     <use xlink:href="#mdb3801330a" x="340.049455" y="118.718166" style="fill: #1f77b4; stroke: #1f77b4"/>
     <use xlink:href="#mdb3801330a" x="341.672727" y="117.269932" style="fill: #1f77b4; stroke: #1f77b4"/>
     <use xlink:href="#mdb3801330a" x="343.296" y="115.8004" style="fill: #1f77b4; stroke: #1f77b4"/>
     <use xlink:href="#mdb3801330a" x="344.919273" y="114.309621" style="fill: #1f77b4; stroke: #1f77b4"/>
     <use xlink:href="#mdb3801330a" x="346.542545" y="112.797644" style="fill: #1f77b4; stroke: #1f77b4"/>
     <use xlink:href="#mdb3801330a" x="348.165818" y="111.264524" style="fill: #1f77b4; stroke: #1f77b4"/>
     <use xlink:href="#mdb3801330a" x="349.789091" y="109.710311" style="fill: #1f77b4; stroke: #1f77b4"/>
     <use xlink:href="#mdb3801330a" x="351.412364" y="108.135062" style="fill: #1f77b4; stroke: #1f77b4"/>
     <use xlink:href="#mdb3801330a" x="353.035636" y="106.538831" style="fill: #1f77b4; stroke: #1f77b4"/>
     <use xlink:href="#mdb3801330a" x="354.658909" y="104.921675" style="fill: #1f77b4; stroke: #1f77b4"/>
     <use xlink:href="#mdb3801330a" x="356.282182" y="103.283651" style="fill: #1f77b4; stroke: #1f77b4"/>
     <use xlink:href="#mdb3801330a" x="357.905455" y="101.624817" style="fill: #1f77b4; stroke: #1f77b4"/>
     <use xlink:href="#mdb3801330a" x="359.528727" y="99.945232" style="fill: #1f77b4; stroke: #1f77b4"/>
     <use xlink:href="#mdb3801330a" x="361.152" y="98.244954" style="fill: #1f77b4; stroke: #1f77b4"/>
     <use xlink:href="#mdb3801330a" x="362.775273" y="96.524043" style="fill: #1f77b4; stroke: #1f77b4"/>
     <use xlink:href="#mdb3801330a" x="364.398545" y="94.78256" style="fill: #1f77b4; stroke: #1f77b4"/>
     <use xlink:href="#mdb3801330a" x="366.021818" y="93.020565" style="fill: #1f77b4; stroke: #1f77b4"/>
     <use xlink:href="#mdb3801330a" x="367.645091" y="91.238119" style="fill: #1f77b4; stroke: #1f77b4"/>
     <use xlink:href="#mdb3801330a" x="369.268364" y="89.435284" style="fill: #1f77b4; stroke: #1f77b4"/>
     <use xlink:href="#mdb3801330a" x="370.891636" y="87.61212" style="fill: #1f77b4; stroke: #1f77b4"/>
     <use xlink:href="#mdb3801330a" x="372.514909" y="85.768691" style="fill: #1f77b4; stroke: #1f77b4"/>
     <use xlink:href="#mdb3801330a" x="374.138182" y="83.905056" style="fill: #1f77b4; stroke: #1f77b4"/>
     <use xlink:href="#mdb3801330a" x="375.761455" y="82.021279" style="fill: #1f77b4; stroke: #1f77b4"/>
     <use xlink:href="#mdb3801330a" x="377.384727" y="80.117421" style="fill: #1f77b4; stroke: #1f77b4"/>
     <use xlink:href="#mdb3801330a" x="379.008" y="78.193545" style="fill: #1f77b4; stroke: #1f77b4"/>
     <use xlink:href="#mdb3801330a" x="380.631273" y="76.249712" style="fill: #1f77b4; stroke: #1f77b4"/>
     <use xlink:href="#mdb3801330a" x="382.254545" y="74.285984" style="fill: #1f77b4; stroke: #1f77b4"/>
     <use xlink:href="#mdb3801330a" x="383.877818" y="72.302423" style="fill: #1f77b4; stroke: #1f77b4"/>
     <use xlink:href="#mdb3801330a" x="385.501091" y="70.299091" style="fill: #1f77b4; stroke: #1f77b4"/>
     <use xlink:href="#mdb3801330a" x="387.124364" y="68.276049" style="fill: #1f77b4; stroke: #1f77b4"/>
     <use xlink:href="#mdb3801330a" x="388.747636" y="66.233359" style="fill: #1f77b4; stroke: #1f77b4"/>
     <use xlink:href="#mdb3801330a" x="390.370909" y="64.171081" style="fill: #1f77b4; stroke: #1f77b4"/>
     <use xlink:href="#mdb3801330a" x="391.994182" y="62.089276" style="fill: #1f77b4; stroke: #1f77b4"/>
     <use xlink:href="#mdb3801330a" x="393.617455" y="59.988006" style="fill: #1f77b4; stroke: #1f77b4"/>
     <use xlink:href="#mdb3801330a" x="395.240727" y="57.86733" style="fill: #1f77b4; stroke: #1f77b4"/>
     <use xlink:href="#mdb3801330a" x="396.864" y="55.727308" style="fill: #1f77b4; stroke: #1f77b4"/>
     <use xlink:href="#mdb3801330a" x="398.487273" y="53.568" style="fill: #1f77b4; stroke: #1f77b4"/>
    </g>
   </g>
   <g id="patch_3">
    <path d="M 57.6 307.584 
L 57.6 41.472 
" style="fill: none; stroke: #000000; stroke-width: 0.8; stroke-linejoin: miter; stroke-linecap: square"/>
   </g>
   <g id="patch_4">
    <path d="M 414.72 307.584 
L 414.72 41.472 
" style="fill: none; stroke: #000000; stroke-width: 0.8; stroke-linejoin: miter; stroke-linecap: square"/>
   </g>
   <g id="patch_5">
    <path d="M 57.6 307.584 
L 414.72 307.584 
" style="fill: none; stroke: #000000; stroke-width: 0.8; stroke-linejoin: miter; stroke-linecap: square"/>
   </g>
   <g id="patch_6">
    <path d="M 57.6 41.472 
L 414.72 41.472 
" style="fill: none; stroke: #000000; stroke-width: 0.8; stroke-linejoin: miter; stroke-linecap: square"/>
   </g>
  </g>
 </g>
 <defs>
  <clipPath id="p12f27a3260">
   <rect x="57.6" y="41.472" width="357.12" height="266.112"/>
  </clipPath>
 </defs>
</svg>
